<svg xmlns="http://www.w3.org/2000/svg" xmlns:xlink="http://www.w3.org/1999/xlink" width="40" height="40" viewBox="0 0 40 40"><defs><path id="a" d="M-483-211.864H541v469H-483z"/></defs><clipPath id="b"><use xlink:href="#a" overflow="visible"/></clipPath><g clip-path="url(#b)"><defs><path id="c" d="M118 135.136h40v40h-40z"/></defs><clipPath id="d"><use xlink:href="#c" overflow="visible"/></clipPath><g clip-path="url(#d)"><defs><circle id="e" cx="138" cy="155.136" r="20"/></defs><clipPath id="f"><use xlink:href="#e" overflow="visible"/></clipPath><g clip-path="url(#f)"><defs><path id="g" d="M118 135.136h40v40h-40z"/></defs><clipPath id="h"><use xlink:href="#g" overflow="visible"/></clipPath><path clip-path="url(#h)" fill="#FFF" d="M113 130.136h50v50h-50z"/></g></g><g clip-path="url(#d)"><defs><path id="i" d="M138.075 147.266c-3.955-.08-7.211 3.25-7.242 7.136-.033 4.007 3.267 7.277 7.181 7.299 3.988.023 7.274-3.282 7.271-7.237-.003-3.947-3.293-7.265-7.21-7.198m-.021 11.903a4.677 4.677 0 0 1-4.688-4.723 4.67 4.67 0 0 1 4.711-4.664 4.67 4.67 0 0 1 4.674 4.702 4.677 4.677 0 0 1-4.697 4.685"/></defs><clipPath id="j"><use xlink:href="#i" overflow="visible"/></clipPath><g clip-path="url(#j)"><defs><path id="k" d="M118 135.136h40v40h-40z"/></defs><clipPath id="l"><use xlink:href="#k" overflow="visible"/></clipPath><path clip-path="url(#l)" fill="#ADADAD" d="M125.832 142.264h24.453v24.438h-24.453z"/></g></g><g clip-path="url(#d)"><defs><path id="m" d="M145.598 145.281a1.677 1.677 0 0 0-1.701 1.646c-.007.956.713 1.692 1.665 1.703a1.67 1.67 0 0 0 1.692-1.681c.002-.896-.75-1.653-1.656-1.668"/></defs><clipPath id="n"><use xlink:href="#m" overflow="visible"/></clipPath><g clip-path="url(#n)"><defs><path id="o" d="M118 135.136h40v40h-40z"/></defs><clipPath id="p"><use xlink:href="#o" overflow="visible"/></clipPath><path clip-path="url(#p)" fill="#ADADAD" d="M138.896 140.28h13.357v13.351h-13.357z"/></g></g><g clip-path="url(#d)"><defs><path id="q" d="M124 140.417h28.125v28.152H124z"/></defs><clipPath id="r"><use xlink:href="#q" overflow="visible"/></clipPath><g clip-path="url(#r)"><defs><path id="s" d="M118 135.136h40v40h-40z"/></defs><clipPath id="t"><use xlink:href="#s" overflow="visible"/></clipPath><g clip-path="url(#t)"><defs><path id="u" d="M124 140.136h29v29h-29z"/></defs><clipPath id="v"><use xlink:href="#u" overflow="visible"/></clipPath><g clip-path="url(#v)"><defs><path id="w" d="M152.084 150.421c-.021-1.139-.076-2.288-.257-3.41-.582-3.605-2.951-5.863-6.595-6.355-1.339-.182-2.704-.218-4.059-.23-2.598-.023-5.196.013-7.794.033-1.144.009-2.281.088-3.397.359-1.436.349-2.707.992-3.736 2.067-1.293 1.35-1.904 3.014-2.069 4.83-.131 1.437-.162 2.885-.172 4.328-.017 2.383.013 4.767.037 7.149.015 1.468.136 2.924.647 4.317.689 1.875 1.919 3.256 3.745 4.094 1.348.618 2.781.823 4.24.868 1.786.056 3.573.067 5.36.098l.001-.06c1.367 0 2.734.011 4.102-.004 1.239-.014 2.476-.051 3.698-.304 3.396-.703 5.405-2.97 6.005-6.226.263-1.429.257-2.876.271-4.318.025-2.411.017-4.824-.027-7.236m-2.487 8.078c-.012 1.159-.052 2.322-.325 3.46-.505 2.096-1.828 3.34-3.925 3.775-1.25.26-2.521.271-3.789.291-1.162.019-2.325.004-3.488.004v.03c-1.816-.032-3.633-.047-5.448-.104-.996-.03-1.995-.139-2.921-.534-1.61-.688-2.557-1.929-2.899-3.64-.246-1.231-.282-2.481-.29-3.729a468.6 468.6 0 0 1 .009-7.592c.012-1.169.049-2.343.328-3.489.51-2.093 1.841-3.327 3.938-3.758 1.222-.251 2.463-.279 3.7-.287 2.531-.015 5.062-.018 7.593.009 1.168.012 2.341.052 3.488.33 2.084.507 3.313 1.832 3.75 3.912.258 1.229.282 2.48.289 3.729a480.44 480.44 0 0 1-.01 7.593"/></defs><clipPath id="x"><use xlink:href="#w" overflow="visible"/></clipPath><g clip-path="url(#x)"><defs><path id="y" d="M124 140.136h29v29h-29z"/></defs><clipPath id="z"><use xlink:href="#y" overflow="visible"/></clipPath><path clip-path="url(#z)" fill="#ADADAD" d="M119 135.417h38.125v38.152H119z"/></g></g></g></g></g></g><defs><path id="A" d="M0 0h40v40H0z"/></defs><clipPath id="B"><use xlink:href="#A" overflow="visible"/></clipPath><g clip-path="url(#B)"><defs><circle id="C" cx="20" cy="20" r="20"/></defs><clipPath id="D"><use xlink:href="#C" overflow="visible"/></clipPath><g clip-path="url(#D)"><defs><path id="E" d="M0 0h40v40H0z"/></defs><clipPath id="F"><use xlink:href="#E" overflow="visible"/></clipPath><path clip-path="url(#F)" fill="#FFF" d="M-5-5h50v50H-5z"/></g></g><g clip-path="url(#B)"><defs><path id="G" d="M28.546 7.243v4.729c-.128 0-.24-.001-.353.001-1.01.013-2.022-.027-3.026.052-1.417.111-1.952.704-2.069 2.131-.01.114-.01.23-.01.346v3.481h5.277c-.076.599-.145 1.159-.218 1.719-.146 1.114-.3 2.227-.437 3.342-.026.214-.088.292-.316.29-1.309-.011-2.617-.005-3.924-.005h-.373V37h-5.503V23.337H13v-5.341h4.584v-.369c.004-1.404-.031-2.811.024-4.212.086-2.188.88-4.037 2.763-5.301.92-.618 1.951-.946 3.047-1.045 1.634-.146 3.265-.039 4.893.119.075.008.148.035.235.055"/></defs><clipPath id="H"><use xlink:href="#G" overflow="visible"/></clipPath><g clip-path="url(#H)"><defs><path id="I" d="M-1 0h40v40H-1z"/></defs><clipPath id="J"><use xlink:href="#I" overflow="visible"/></clipPath><path clip-path="url(#J)" fill="#ADADAD" d="M8 2h25.546v40H8z"/></g></g></svg>