<svg xmlns="http://www.w3.org/2000/svg" xmlns:xlink="http://www.w3.org/1999/xlink" width="40" height="40" viewBox="0 0 40 40"><defs><path id="a" d="M0 0h40v40H0z"/></defs><clipPath id="b"><use xlink:href="#a" overflow="visible"/></clipPath><g clip-path="url(#b)"><defs><circle id="c" cx="20" cy="20" r="20"/></defs><use xlink:href="#c" overflow="visible" fill-rule="evenodd" clip-rule="evenodd" fill="#3B5998"/><clipPath id="d"><use xlink:href="#c" overflow="visible"/></clipPath><g clip-path="url(#d)"><defs><path id="e" d="M0 0h40v40H0z"/></defs><use xlink:href="#e" overflow="visible" fill="#3B5998"/><clipPath id="f"><use xlink:href="#e" overflow="visible"/></clipPath><path clip-path="url(#f)" fill="#3B5998" d="M-5-5h50v50H-5z"/></g></g><g clip-path="url(#b)"><defs><path id="g" d="M29.546 7.243v4.729c-.128 0-.24-.001-.353.001-1.01.013-2.022-.027-3.026.052-1.417.111-1.952.704-2.069 2.131-.01.114-.01.23-.01.346v3.481h5.277c-.076.599-.145 1.159-.218 1.719-.146 1.114-.3 2.227-.437 3.342-.026.214-.088.292-.316.29-1.309-.011-2.617-.005-3.924-.005h-.373V37h-5.503V23.337H14v-5.341h4.584v-.369c.004-1.404-.031-2.811.024-4.212.086-2.188.88-4.037 2.763-5.301.92-.618 1.951-.946 3.047-1.045 1.634-.146 3.265-.039 4.893.119.075.008.148.035.235.055"/></defs><use xlink:href="#g" overflow="visible" fill-rule="evenodd" clip-rule="evenodd" fill="#F4F4F4"/><clipPath id="h"><use xlink:href="#g" overflow="visible"/></clipPath><g clip-path="url(#h)"><defs><path id="i" d="M0 0h40v40H0z"/></defs><use xlink:href="#i" overflow="visible" fill="#F4F4F4"/><clipPath id="j"><use xlink:href="#i" overflow="visible"/></clipPath><path clip-path="url(#j)" fill="#F4F4F4" d="M9 2h25.546v40H9z"/></g></g></svg>