<svg xmlns="http://www.w3.org/2000/svg" width="40" height="40" viewBox="0 0 40 40"><circle fill="#F9F9F9" cx="20" cy="20" r="20"/><path fill="#ADADAD" d="M25.729 32.5H14.271A6.779 6.779 0 0 1 7.5 25.729V14.271A6.779 6.779 0 0 1 14.271 7.5h11.458a6.779 6.779 0 0 1 6.771 6.771v11.458a6.778 6.778 0 0 1-6.771 6.771zM14.271 9.583a4.693 4.693 0 0 0-4.688 4.688v11.458a4.693 4.693 0 0 0 4.688 4.688h11.458a4.694 4.694 0 0 0 4.688-4.688V14.271a4.694 4.694 0 0 0-4.688-4.688H14.271z"/><path fill="#ADADAD" d="M20 26.25c-3.446 0-6.25-2.804-6.25-6.25s2.804-6.25 6.25-6.25 6.25 2.804 6.25 6.25-2.804 6.25-6.25 6.25zm0-10.417A4.172 4.172 0 0 0 15.833 20 4.171 4.171 0 0 0 20 24.167 4.172 4.172 0 0 0 24.167 20 4.172 4.172 0 0 0 20 15.833z"/><circle fill="#ADADAD" cx="26.641" cy="13.359" r="1.432"/></svg>