<svg xmlns="http://www.w3.org/2000/svg" xmlns:xlink="http://www.w3.org/1999/xlink" width="40" height="40" viewBox="0 0 40 40"><defs><path id="a" d="M0 0h40v40H0z"/></defs><clipPath id="b"><use xlink:href="#a" overflow="visible"/></clipPath><g clip-path="url(#b)"><defs><circle id="c" cx="20" cy="20" r="20"/></defs><clipPath id="d"><use xlink:href="#c" overflow="visible"/></clipPath><g clip-path="url(#d)"><defs><path id="e" d="M0 0h40v40H0z"/></defs><clipPath id="f"><use xlink:href="#e" overflow="visible"/></clipPath><path clip-path="url(#f)" fill="#FFF" d="M-5-5h50v50H-5z"/></g></g><g clip-path="url(#b)"><defs><path id="g" d="M20.075 12.13c-3.955-.08-7.211 3.25-7.242 7.136-.033 4.007 3.267 7.277 7.181 7.299 3.988.023 7.274-3.282 7.271-7.237-.003-3.947-3.293-7.265-7.21-7.198m-.021 11.903a4.677 4.677 0 0 1-4.688-4.723 4.67 4.67 0 0 1 4.711-4.664 4.67 4.67 0 0 1 4.674 4.702 4.677 4.677 0 0 1-4.697 4.685"/></defs><clipPath id="h"><use xlink:href="#g" overflow="visible"/></clipPath><g clip-path="url(#h)"><defs><path id="i" d="M0 0h40v40H0z"/></defs><clipPath id="j"><use xlink:href="#i" overflow="visible"/></clipPath><path clip-path="url(#j)" fill="#ADADAD" d="M7.832 7.128h24.453v24.438H7.832z"/></g></g><g clip-path="url(#b)"><defs><path id="k" d="M27.598 10.146a1.677 1.677 0 0 0-1.701 1.646c-.007.956.713 1.692 1.665 1.703a1.67 1.67 0 0 0 1.692-1.681c.002-.897-.75-1.654-1.656-1.668"/></defs><clipPath id="l"><use xlink:href="#k" overflow="visible"/></clipPath><g clip-path="url(#l)"><defs><path id="m" d="M0 0h40v40H0z"/></defs><clipPath id="n"><use xlink:href="#m" overflow="visible"/></clipPath><path clip-path="url(#n)" fill="#ADADAD" d="M20.896 5.145h13.357v13.351H20.896z"/></g></g><g clip-path="url(#b)"><defs><path id="o" d="M6 5.281h28.125v28.152H6z"/></defs><clipPath id="p"><use xlink:href="#o" overflow="visible"/></clipPath><g clip-path="url(#p)"><defs><path id="q" d="M0 0h40v40H0z"/></defs><clipPath id="r"><use xlink:href="#q" overflow="visible"/></clipPath><g clip-path="url(#r)"><defs><path id="s" d="M6 5h29v29H6z"/></defs><clipPath id="t"><use xlink:href="#s" overflow="visible"/></clipPath><g clip-path="url(#t)"><defs><path id="u" d="M34.084 15.285c-.021-1.139-.076-2.288-.257-3.41-.582-3.605-2.951-5.863-6.595-6.355-1.339-.182-2.704-.218-4.059-.23-2.598-.023-5.196.013-7.794.033-1.144.009-2.281.088-3.397.359-1.435.348-2.707.992-3.736 2.067-1.293 1.35-1.904 3.014-2.069 4.83-.131 1.437-.162 2.885-.172 4.328-.017 2.383.013 4.767.037 7.149.015 1.468.136 2.924.647 4.317.689 1.875 1.919 3.256 3.745 4.094 1.348.618 2.781.823 4.24.868 1.786.056 3.573.067 5.36.098l.001-.06c1.367 0 2.734.011 4.102-.004 1.239-.014 2.476-.051 3.698-.304 3.396-.703 5.405-2.97 6.005-6.226.263-1.429.257-2.876.271-4.318.025-2.411.017-4.824-.027-7.236m-2.487 8.078c-.012 1.159-.052 2.322-.325 3.46-.505 2.096-1.828 3.34-3.925 3.775-1.25.26-2.521.271-3.789.291-1.162.019-2.325.004-3.488.004v.03c-1.816-.032-3.633-.047-5.448-.104-.996-.03-1.995-.139-2.921-.534-1.61-.688-2.557-1.929-2.899-3.64-.246-1.231-.282-2.481-.29-3.729a468.6 468.6 0 0 1 .009-7.592c.012-1.169.049-2.343.328-3.489.51-2.093 1.841-3.327 3.938-3.758 1.222-.251 2.463-.279 3.7-.287 2.531-.015 5.062-.018 7.593.009 1.168.012 2.341.052 3.488.33 2.084.507 3.313 1.832 3.75 3.912.258 1.229.282 2.48.289 3.729a480.44 480.44 0 0 1-.01 7.593"/></defs><clipPath id="v"><use xlink:href="#u" overflow="visible"/></clipPath><g clip-path="url(#v)"><defs><path id="w" d="M6 5h29v29H6z"/></defs><clipPath id="x"><use xlink:href="#w" overflow="visible"/></clipPath><path clip-path="url(#x)" fill="#ADADAD" d="M1 .281h38.125v38.152H1z"/></g></g></g></g></g><linearGradient id="y" gradientUnits="userSpaceOnUse" x1="-307.812" y1="-155.655" x2="-284.866" y2="-188.424" gradientTransform="translate(316.34 192.04)"><stop offset="0" stop-color="#ffb900"/><stop offset="1" stop-color="#9100eb"/></linearGradient><circle fill="url(#y)" cx="20" cy="20" r="20"/><g fill="#FFF"><path d="M25.729 32.501H14.271A6.78 6.78 0 0 1 7.5 25.73V14.271A6.78 6.78 0 0 1 14.271 7.5h11.458a6.779 6.779 0 0 1 6.771 6.771v11.458a6.779 6.779 0 0 1-6.771 6.772zM14.271 9.584a4.694 4.694 0 0 0-4.688 4.688V25.73a4.693 4.693 0 0 0 4.688 4.688h11.458a4.693 4.693 0 0 0 4.688-4.688V14.271a4.693 4.693 0 0 0-4.688-4.688H14.271z"/><path d="M20 26.25a6.257 6.257 0 0 1-6.25-6.249c0-3.447 2.804-6.25 6.25-6.25s6.25 2.803 6.25 6.25A6.257 6.257 0 0 1 20 26.25zm0-10.416c-2.297 0-4.167 1.869-4.167 4.167s1.869 4.166 4.167 4.166 4.166-1.868 4.166-4.166-1.867-4.167-4.166-4.167z"/><circle cx="26.641" cy="13.36" r="1.432"/></g></svg>