<svg xmlns="http://www.w3.org/2000/svg" xmlns:xlink="http://www.w3.org/1999/xlink" width="40" height="40" viewBox="0 0 40 40"><path fill="none" d="M-495-216H529v469H-495z"/><path fill="none" d="M-16.848 147.547h-1.506c-.004-.097-.012-.189-.012-.283-.001-.893-.031-1.785.008-2.677.042-.938-.115-1.839-.41-2.72-.467-1.396-.941-2.789-1.412-4.184-.033-.099-.06-.199-.096-.318.509 0 .996-.006 1.481.009.057.002.14.112.16.187.326 1.178.645 2.357.965 3.537.017.063.039.121.078.245l.507-1.948c.16-.617.317-1.238.488-1.854.019-.067.113-.164.175-.166.453-.015.907-.008 1.399-.008-.062.219-.115.417-.174.612-.531 1.748-1.063 3.496-1.591 5.248-.039.129-.057.27-.058.403-.004 1.201-.002 2.402-.002 3.603v.314zm7.067-7.558h1.367v5.848c0 .081-.005.164.008.243.045.283.213.386.486.304.394-.116.706-.53.706-.934v-5.462h1.366v7.556h-1.36v-.782c-.271.229-.494.437-.739.614a1.399 1.399 0 0 1-1.058.265c-.344-.051-.595-.229-.674-.574a3.91 3.91 0 0 1-.111-.84c-.009-2.035-.005-4.072-.004-6.107 0-.034.006-.065.013-.131m-1.224 1.62c-.082-.793-.5-1.395-1.294-1.627-.788-.229-1.529-.127-2.126.502-.443.466-.547 1.06-.557 1.666a96.847 96.847 0 0 0 0 3.234c.009.536.1 1.066.432 1.518.477.648 1.317.91 2.182.684.74-.191 1.288-.828 1.367-1.679.065-.708.06-1.425.085-2.146-.026-.711-.015-1.435-.089-2.152m-1.315 3.862a1.855 1.855 0 0 1-.108.568c-.082.246-.274.377-.537.38-.263.004-.463-.124-.542-.37a2.42 2.42 0 0 1-.113-.665c-.016-.543-.005-1.087-.005-1.63s-.005-1.086.003-1.63c.002-.177.022-.356.065-.526.082-.324.287-.484.582-.486.3-.002.497.15.586.478.042.154.07.317.071.478.006 1.132.008 2.267-.002 3.403m1.481 12.437v-2.067c0-.268.187-.465.512-.541.293-.069.547.028.638.3.076.226.117.473.119.711.008 1.143-.003 2.285-.009 3.429 0 .04-.002.081-.007.12-.078.646-.573.861-1.089.459a.47.47 0 0 1-.157-.317c-.015-.699-.007-1.397-.007-2.094"/><circle fill="none" cx="-1" cy="158" r="20"/><path fill="none" d="M10.599 162.408c-.005-1.282-.093-2.559-.342-3.82-.235-1.197-1.077-2.124-2.276-2.296-1.144-.165-2.307-.229-3.463-.272-1.726-.063-3.454-.072-5.181-.104v.034H-2.27a83.874 83.874 0 0 0-6.439.244c-1.461.113-2.56.959-2.828 2.334a17.37 17.37 0 0 0-.303 2.529 55.208 55.208 0 0 0-.052 4.109c.035 1.188.156 2.376.293 3.557.121 1.035.639 1.84 1.591 2.325.513.263 1.076.304 1.631.333 1.796.096 3.593.195 5.392.234 1.653.035 3.31.023 4.963-.021a202.34 202.34 0 0 0 5.56-.257c1.305-.071 2.306-.819 2.62-2.084.221-.89.327-1.817.375-2.735.074-1.368.071-2.741.066-4.11zm-16.093-2.41h-1.625v8.646h-1.516v-8.646h-1.586v-1.43h4.727v1.43zm4.096 8.648h-1.333v-.777c-.21.186-.375.345-.556.484-.376.291-.783.485-1.282.375-.326-.072-.542-.264-.61-.586a3.942 3.942 0 0 1-.102-.793c-.008-2.013-.005-4.024-.004-6.037 0-.049.007-.097.014-.18.411 0 .799.003 1.188-.002.164-.002.153.104.153.212v5.503c0 .057-.003.113.001.17.015.176-.011.41.192.457a.764.764 0 0 0 .519-.104c.307-.194.497-.451.49-.874-.027-1.688-.011-3.376-.011-5.063v-.281h1.342l-.001 7.496zm5.175-1.662a3.947 3.947 0 0 1-.099.844c-.197.832-.954 1.18-1.708.771-.285-.154-.529-.386-.818-.602v.646H-.177c-.005-.084-.016-.17-.016-.254-.001-3.199 0-6.396-.005-9.594 0-.186.041-.26.241-.251.363.015.727.004 1.118.004v3.249c.233-.191.424-.377.64-.523a1.291 1.291 0 0 1 1.137-.182c.542.168.716.623.79 1.123.045.305.059.614.06.922.003 1.284.002 2.566-.011 3.847zm4.737 1.065c-.551.676-1.281.824-2.083.65-.803-.176-1.3-.7-1.475-1.504a4.509 4.509 0 0 1-.096-.891 88.636 88.636 0 0 1 .002-2.871c.007-.345.053-.697.143-1.029.247-.906 1.084-1.405 2.024-1.361.987.046 1.8.707 1.861 1.895.038.728.007 1.457.007 2.222H6.194c.026.616.024 1.213.085 1.805.039.382.323.569.681.546.331-.021.545-.252.567-.637.015-.266.003-.531.003-.814h1.403c.015.698.064 1.396-.419 1.989zm-13.362-13.502h-1.506c-.004-.097-.012-.189-.012-.283-.001-.893-.031-1.785.008-2.677.042-.938-.115-1.839-.41-2.72-.467-1.396-.941-2.789-1.412-4.184-.033-.099-.06-.199-.096-.318.509 0 .996-.006 1.481.009.057.002.14.112.16.187.326 1.178.645 2.357.965 3.537.017.063.039.121.078.245l.507-1.948c.16-.617.317-1.238.488-1.854.019-.067.113-.164.175-.166.453-.015.907-.008 1.399-.008-.062.219-.115.417-.174.612-.531 1.748-1.063 3.496-1.591 5.248-.039.129-.057.27-.058.403-.004 1.201-.002 2.402-.002 3.603v.314zm7.067-7.558h1.367v5.848c0 .081-.005.164.008.243.045.283.213.386.486.304.394-.116.706-.53.706-.934v-5.462h1.366v7.556h-1.36v-.782c-.271.229-.494.437-.739.614a1.399 1.399 0 0 1-1.058.265c-.344-.051-.595-.229-.674-.574a3.91 3.91 0 0 1-.111-.84c-.009-2.035-.005-4.072-.004-6.107 0-.034.006-.065.013-.131m-1.224 1.62c-.082-.793-.5-1.395-1.294-1.627-.788-.229-1.529-.127-2.126.502-.443.466-.547 1.06-.557 1.666a96.847 96.847 0 0 0 0 3.234c.009.536.1 1.066.432 1.518.477.648 1.317.91 2.182.684.74-.191 1.288-.828 1.367-1.679.065-.708.06-1.425.085-2.146-.026-.711-.015-1.435-.089-2.152m-1.315 3.862a1.855 1.855 0 0 1-.108.568c-.082.246-.274.377-.537.38-.263.004-.463-.124-.542-.37a2.42 2.42 0 0 1-.113-.665c-.016-.543-.005-1.087-.005-1.63s-.005-1.086.003-1.63c.002-.177.022-.356.065-.526.082-.324.287-.484.582-.486.3-.002.497.15.586.478.042.154.07.317.071.478.006 1.132.008 2.267-.002 3.403"/><path fill="none" d="M1.161 164.908v-2.067c0-.268.187-.465.512-.541.293-.069.547.028.638.3.076.226.117.473.119.711.008 1.143-.003 2.285-.009 3.429 0 .04-.002.081-.007.12-.078.646-.573.861-1.089.459a.47.47 0 0 1-.157-.317c-.015-.699-.007-1.397-.007-2.094m6.443-.915h-1.41c.027-.406.028-.802.087-1.188.052-.342.294-.52.604-.521.328-.002.574.171.63.521.061.381.06.77.089 1.188"/><circle fill="none" cx="-1" cy="158" r="20"/><path fill="none" d="M10.599 162.408c-.005-1.282-.093-2.559-.342-3.82-.235-1.197-1.077-2.124-2.276-2.296-1.144-.165-2.307-.229-3.463-.272-1.726-.063-3.454-.072-5.181-.104v.034H-2.27a83.874 83.874 0 0 0-6.439.244c-1.461.113-2.56.959-2.828 2.334a17.37 17.37 0 0 0-.303 2.529 55.208 55.208 0 0 0-.052 4.109c.035 1.188.156 2.376.293 3.557.121 1.035.639 1.84 1.591 2.325.513.263 1.076.304 1.631.333 1.796.096 3.593.195 5.392.234 1.653.035 3.31.023 4.963-.021a202.34 202.34 0 0 0 5.56-.257c1.305-.071 2.306-.819 2.62-2.084.221-.89.327-1.817.375-2.735.074-1.368.071-2.741.066-4.11zm-16.093-2.41h-1.625v8.646h-1.516v-8.646h-1.586v-1.43h4.727v1.43zm4.096 8.648h-1.333v-.777c-.21.186-.375.345-.556.484-.376.291-.783.485-1.282.375-.326-.072-.542-.264-.61-.586a3.942 3.942 0 0 1-.102-.793c-.008-2.013-.005-4.024-.004-6.037 0-.049.007-.097.014-.18.411 0 .799.003 1.188-.002.164-.002.153.104.153.212v5.503c0 .057-.003.113.001.17.015.176-.011.41.192.457a.764.764 0 0 0 .519-.104c.307-.194.497-.451.49-.874-.027-1.688-.011-3.376-.011-5.063v-.281h1.342l-.001 7.496zm5.175-1.662a3.947 3.947 0 0 1-.099.844c-.197.832-.954 1.18-1.708.771-.285-.154-.529-.386-.818-.602v.646H-.177c-.005-.084-.016-.17-.016-.254-.001-3.199 0-6.396-.005-9.594 0-.186.041-.26.241-.251.363.015.727.004 1.118.004v3.249c.233-.191.424-.377.64-.523a1.291 1.291 0 0 1 1.137-.182c.542.168.716.623.79 1.123.045.305.059.614.06.922.003 1.284.002 2.566-.011 3.847zm4.737 1.065c-.551.676-1.281.824-2.083.65-.803-.176-1.3-.7-1.475-1.504a4.509 4.509 0 0 1-.096-.891 88.636 88.636 0 0 1 .002-2.871c.007-.345.053-.697.143-1.029.247-.906 1.084-1.405 2.024-1.361.987.046 1.8.707 1.861 1.895.038.728.007 1.457.007 2.222H6.194c.026.616.024 1.213.085 1.805.039.382.323.569.681.546.331-.021.545-.252.567-.637.015-.266.003-.531.003-.814h1.403c.015.698.064 1.396-.419 1.989zm-13.362-13.502h-1.506c-.004-.097-.012-.189-.012-.283-.001-.893-.031-1.785.008-2.677.042-.938-.115-1.839-.41-2.72-.467-1.396-.941-2.789-1.412-4.184-.033-.099-.06-.199-.096-.318.509 0 .996-.006 1.481.009.057.002.14.112.16.187.326 1.178.645 2.357.965 3.537.017.063.039.121.078.245l.507-1.948c.16-.617.317-1.238.488-1.854.019-.067.113-.164.175-.166.453-.015.907-.008 1.399-.008-.062.219-.115.417-.174.612-.531 1.748-1.063 3.496-1.591 5.248-.039.129-.057.27-.058.403-.004 1.201-.002 2.402-.002 3.603v.314zm7.067-7.558h1.367v5.848c0 .081-.005.164.008.243.045.283.213.386.486.304.394-.116.706-.53.706-.934v-5.462h1.366v7.556h-1.36v-.782c-.271.229-.494.437-.739.614a1.399 1.399 0 0 1-1.058.265c-.344-.051-.595-.229-.674-.574a3.91 3.91 0 0 1-.111-.84c-.009-2.035-.005-4.072-.004-6.107 0-.034.006-.065.013-.131m-1.224 1.62c-.082-.793-.5-1.395-1.294-1.627-.788-.229-1.529-.127-2.126.502-.443.466-.547 1.06-.557 1.666a96.847 96.847 0 0 0 0 3.234c.009.536.1 1.066.432 1.518.477.648 1.317.91 2.182.684.74-.191 1.288-.828 1.367-1.679.065-.708.06-1.425.085-2.146-.026-.711-.015-1.435-.089-2.152m-1.315 3.862a1.855 1.855 0 0 1-.108.568c-.082.246-.274.377-.537.38-.263.004-.463-.124-.542-.37a2.42 2.42 0 0 1-.113-.665c-.016-.543-.005-1.087-.005-1.63s-.005-1.086.003-1.63c.002-.177.022-.356.065-.526.082-.324.287-.484.582-.486.3-.002.497.15.586.478.042.154.07.317.071.478.006 1.132.008 2.267-.002 3.403"/><path fill="none" d="M1.161 164.908v-2.067c0-.268.187-.465.512-.541.293-.069.547.028.638.3.076.226.117.473.119.711.008 1.143-.003 2.285-.009 3.429 0 .04-.002.081-.007.12-.078.646-.573.861-1.089.459a.47.47 0 0 1-.157-.317c-.015-.699-.007-1.397-.007-2.094m6.443-.915h-1.41c.027-.406.028-.802.087-1.188.052-.342.294-.52.604-.521.328-.002.574.171.63.521.061.381.06.77.089 1.188"/><defs><path id="a" d="M0 0h40v40H0z"/></defs><clipPath id="b"><use xlink:href="#a" overflow="visible"/></clipPath><g clip-path="url(#b)"><defs><circle id="c" cx="20" cy="20" r="20"/></defs><use xlink:href="#c" overflow="visible" fill-rule="evenodd" clip-rule="evenodd" fill="#41ABE1"/><clipPath id="d"><use xlink:href="#c" overflow="visible"/></clipPath><g clip-path="url(#d)"><defs><path id="e" d="M0 0h40v40H0z"/></defs><use xlink:href="#e" overflow="visible" fill="#41ABE1"/><clipPath id="f"><use xlink:href="#e" overflow="visible"/></clipPath><path clip-path="url(#f)" fill="#41ABE1" d="M-5-5h50v50H-5z"/></g></g><g clip-path="url(#b)"><defs><path id="g" d="M37 13.001a11.917 11.917 0 0 1-2.771 2.937c-.163.123-.233.247-.229.455.076 4.469-1.333 8.425-4.12 11.904-2.626 3.279-6.032 5.235-10.147 5.975-3.202.574-6.351.346-9.419-.758A14.952 14.952 0 0 1 7 31.84c1.604.109 3.186.006 4.737-.423 1.555-.43 2.957-1.155 4.269-2.174-2.824-.242-4.725-1.655-5.771-4.31.934.099 1.811.129 2.713-.117-3.05-.932-4.686-2.932-4.893-6.138.485.188.907.387 1.35.513.438.125.896.177 1.354.236-2.699-2.296-3.324-5.024-1.838-8.313 3.394 3.988 7.622 6.167 12.799 6.523-.041-.464-.1-.887-.112-1.311-.108-3.649 3.04-6.618 6.68-6.306 1.469.126 2.747.683 3.795 1.727.179.179.34.203.565.149 1.159-.273 2.269-.674 3.306-1.267.076-.043.157-.076.274-.132-.228.729-.539 1.376-1.019 1.907-.474.526-1.017.989-1.503 1.453 1.098-.119 2.204-.443 3.294-.856"/></defs><use xlink:href="#g" overflow="visible" fill-rule="evenodd" clip-rule="evenodd" fill="#F9F9F9"/><clipPath id="h"><use xlink:href="#g" overflow="visible"/></clipPath><g clip-path="url(#h)"><defs><path id="i" d="M0 0h40v40H0z"/></defs><use xlink:href="#i" overflow="visible" fill="#F9F9F9"/><clipPath id="j"><use xlink:href="#i" overflow="visible"/></clipPath><path clip-path="url(#j)" fill="#F9F9F9" d="M2 5h40v34.576H2z"/></g></g></svg>