<svg xmlns="http://www.w3.org/2000/svg" xmlns:xlink="http://www.w3.org/1999/xlink" width="40" height="40" viewBox="0 0 40 40"><defs><path id="a" d="M0 0h40v40H0z"/></defs><clipPath id="b"><use xlink:href="#a" overflow="visible"/></clipPath><g clip-path="url(#b)"><defs><circle id="c" cx="20" cy="20" r="20"/></defs><clipPath id="d"><use xlink:href="#c" overflow="visible"/></clipPath><g clip-path="url(#d)"><defs><path id="e" d="M0 0h40v40H0z"/></defs><clipPath id="f"><use xlink:href="#e" overflow="visible"/></clipPath><path clip-path="url(#f)" fill="#FFF" d="M-5-5h50v50H-5z"/></g></g><g clip-path="url(#b)"><defs><path id="g" d="M37 13.001a11.917 11.917 0 0 1-2.771 2.937c-.163.123-.233.247-.229.455.076 4.469-1.333 8.425-4.12 11.904-2.626 3.279-6.032 5.235-10.147 5.975-3.202.574-6.351.346-9.419-.758A14.952 14.952 0 0 1 7 31.84c1.604.109 3.186.006 4.737-.423 1.555-.43 2.957-1.155 4.269-2.174-2.824-.242-4.725-1.655-5.771-4.31.934.099 1.811.129 2.713-.117-3.05-.932-4.686-2.932-4.893-6.138.485.188.907.387 1.35.513.438.125.896.177 1.354.236-2.699-2.296-3.324-5.024-1.838-8.313 3.394 3.988 7.622 6.167 12.799 6.523-.041-.464-.1-.887-.112-1.311-.108-3.649 3.04-6.618 6.68-6.306 1.469.126 2.747.683 3.795 1.727.179.179.34.203.565.149 1.159-.273 2.269-.674 3.306-1.267.076-.043.157-.076.274-.132-.228.729-.539 1.376-1.019 1.907-.474.526-1.017.989-1.503 1.453 1.098-.119 2.204-.443 3.294-.856"/></defs><clipPath id="h"><use xlink:href="#g" overflow="visible"/></clipPath><g clip-path="url(#h)"><defs><path id="i" d="M0 0h40v40H0z"/></defs><clipPath id="j"><use xlink:href="#i" overflow="visible"/></clipPath><path clip-path="url(#j)" fill="#ADADAD" d="M2 5h40v34.576H2z"/></g></g></svg>