<svg xmlns="http://www.w3.org/2000/svg" xmlns:xlink="http://www.w3.org/1999/xlink" width="40" height="40" viewBox="0 0 40 40"><circle fill-rule="evenodd" clip-rule="evenodd" fill="#FFF" cx="20" cy="20" r="20"/><defs><path id="a" d="M-483-211.864H541v469H-483z"/></defs><clipPath id="b"><use xlink:href="#a" overflow="visible"/></clipPath><g clip-path="url(#b)"><defs><path id="c" d="M118 135.136h40v40h-40z"/></defs><clipPath id="d"><use xlink:href="#c" overflow="visible"/></clipPath><g clip-path="url(#d)"><defs><circle id="e" cx="138" cy="155.136" r="20"/></defs><clipPath id="f"><use xlink:href="#e" overflow="visible"/></clipPath><g clip-path="url(#f)"><defs><path id="g" d="M118 135.136h40v40h-40z"/></defs><clipPath id="h"><use xlink:href="#g" overflow="visible"/></clipPath><path clip-path="url(#h)" fill="#FFF" d="M113 130.136h50v50h-50z"/></g></g><g clip-path="url(#d)"><defs><path id="i" d="M138.075 147.266c-3.955-.08-7.211 3.25-7.242 7.136-.033 4.007 3.267 7.277 7.181 7.299 3.988.023 7.274-3.282 7.271-7.237-.003-3.947-3.293-7.265-7.21-7.198m-.021 11.903a4.677 4.677 0 0 1-4.688-4.723 4.67 4.67 0 0 1 4.711-4.664 4.67 4.67 0 0 1 4.674 4.702 4.677 4.677 0 0 1-4.697 4.685"/></defs><clipPath id="j"><use xlink:href="#i" overflow="visible"/></clipPath><g clip-path="url(#j)"><defs><path id="k" d="M118 135.136h40v40h-40z"/></defs><clipPath id="l"><use xlink:href="#k" overflow="visible"/></clipPath><path clip-path="url(#l)" fill="#ADADAD" d="M125.832 142.264h24.453v24.438h-24.453z"/></g></g><g clip-path="url(#d)"><defs><path id="m" d="M145.598 145.281a1.677 1.677 0 0 0-1.701 1.646c-.007.956.713 1.692 1.665 1.703a1.67 1.67 0 0 0 1.692-1.681c.002-.896-.75-1.653-1.656-1.668"/></defs><clipPath id="n"><use xlink:href="#m" overflow="visible"/></clipPath><g clip-path="url(#n)"><defs><path id="o" d="M118 135.136h40v40h-40z"/></defs><clipPath id="p"><use xlink:href="#o" overflow="visible"/></clipPath><path clip-path="url(#p)" fill="#ADADAD" d="M138.896 140.28h13.357v13.351h-13.357z"/></g></g><g clip-path="url(#d)"><defs><path id="q" d="M124 140.417h28.125v28.152H124z"/></defs><clipPath id="r"><use xlink:href="#q" overflow="visible"/></clipPath><g clip-path="url(#r)"><defs><path id="s" d="M118 135.136h40v40h-40z"/></defs><clipPath id="t"><use xlink:href="#s" overflow="visible"/></clipPath><g clip-path="url(#t)"><defs><path id="u" d="M124 140.136h29v29h-29z"/></defs><clipPath id="v"><use xlink:href="#u" overflow="visible"/></clipPath><g clip-path="url(#v)"><defs><path id="w" d="M152.084 150.421c-.021-1.139-.076-2.288-.257-3.41-.582-3.605-2.951-5.863-6.595-6.355-1.339-.182-2.704-.218-4.059-.23-2.598-.023-5.196.013-7.794.033-1.144.009-2.281.088-3.397.359-1.436.349-2.707.992-3.736 2.067-1.293 1.35-1.904 3.014-2.069 4.83-.131 1.437-.162 2.885-.172 4.328-.017 2.383.013 4.767.037 7.149.015 1.468.136 2.924.647 4.317.689 1.875 1.919 3.256 3.745 4.094 1.348.618 2.781.823 4.24.868 1.786.056 3.573.067 5.36.098l.001-.06c1.367 0 2.734.011 4.102-.004 1.239-.014 2.476-.051 3.698-.304 3.396-.703 5.405-2.97 6.005-6.226.263-1.429.257-2.876.271-4.318.025-2.411.017-4.824-.027-7.236m-2.487 8.078c-.012 1.159-.052 2.322-.325 3.46-.505 2.096-1.828 3.34-3.925 3.775-1.25.26-2.521.271-3.789.291-1.162.019-2.325.004-3.488.004v.03c-1.816-.032-3.633-.047-5.448-.104-.996-.03-1.995-.139-2.921-.534-1.61-.688-2.557-1.929-2.899-3.64-.246-1.231-.282-2.481-.29-3.729a468.6 468.6 0 0 1 .009-7.592c.012-1.169.049-2.343.328-3.489.51-2.093 1.841-3.327 3.938-3.758 1.222-.251 2.463-.279 3.7-.287 2.531-.015 5.062-.018 7.593.009 1.168.012 2.341.052 3.488.33 2.084.507 3.313 1.832 3.75 3.912.258 1.229.282 2.48.289 3.729a480.44 480.44 0 0 1-.01 7.593"/></defs><clipPath id="x"><use xlink:href="#w" overflow="visible"/></clipPath><g clip-path="url(#x)"><defs><path id="y" d="M124 140.136h29v29h-29z"/></defs><clipPath id="z"><use xlink:href="#y" overflow="visible"/></clipPath><path clip-path="url(#z)" fill="#ADADAD" d="M119 135.417h38.125v38.152H119z"/></g></g></g></g></g></g><defs><circle id="A" cx="-1" cy="155" r="20"/></defs><clipPath id="B"><use xlink:href="#A" overflow="visible"/></clipPath><g clip-path="url(#B)"><defs><path id="C" d="M-483-212H541v469H-483z"/></defs><clipPath id="D"><use xlink:href="#C" overflow="visible"/></clipPath><path clip-path="url(#D)" fill="#FFF" d="M-26 130h50v50h-50z"/></g><defs><path id="E" d="M10.599 159.408c-.005-1.282-.093-2.559-.342-3.82-.235-1.198-1.077-2.124-2.276-2.296-1.144-.165-2.307-.229-3.463-.272-1.726-.064-3.454-.073-5.181-.105v.034H-2.27a83.37 83.37 0 0 0-6.439.245c-1.461.113-2.56.959-2.828 2.333a17.367 17.367 0 0 0-.303 2.53 55.208 55.208 0 0 0-.052 4.109c.035 1.188.156 2.376.293 3.557.121 1.035.639 1.839 1.591 2.325.513.262 1.076.304 1.631.333 1.796.096 3.593.195 5.392.234 1.653.035 3.31.024 4.963-.021 1.854-.052 3.708-.155 5.56-.257 1.305-.072 2.306-.82 2.62-2.084.221-.889.327-1.818.375-2.735.074-1.368.071-2.74.066-4.11zm-16.093-2.41h-1.625v8.646h-1.516v-8.646h-1.586v-1.429h4.727v1.429zm4.096 8.648h-1.333v-.777c-.21.185-.375.345-.556.484-.376.291-.783.486-1.282.375-.326-.072-.542-.263-.61-.585a3.951 3.951 0 0 1-.102-.793c-.008-2.013-.005-4.025-.004-6.038 0-.048.007-.096.014-.179.411 0 .799.003 1.188-.002.164-.002.153.103.153.212v5.503c0 .057-.003.113.001.17.015.176-.011.41.192.456a.758.758 0 0 0 .519-.103c.307-.194.497-.451.49-.874-.027-1.688-.011-3.376-.011-5.064v-.28h1.342v7.495zm5.175-1.661a3.93 3.93 0 0 1-.099.843c-.197.832-.954 1.18-1.708.772-.285-.154-.529-.386-.818-.602v.646H-.177c-.005-.084-.016-.169-.016-.254-.001-3.198 0-6.395-.005-9.593 0-.186.041-.26.241-.251.363.015.727.004 1.118.004v3.249c.233-.192.424-.377.64-.523a1.288 1.288 0 0 1 1.137-.182c.542.168.716.623.79 1.123.045.304.059.614.06.922.003 1.282.002 2.564-.011 3.846zm4.737 1.064c-.551.676-1.281.824-2.083.65-.803-.175-1.3-.7-1.475-1.503a4.519 4.519 0 0 1-.096-.892 88.575 88.575 0 0 1 .002-2.87c.007-.345.053-.697.143-1.029.247-.907 1.084-1.406 2.024-1.362.987.046 1.8.707 1.861 1.895.038.727.007 1.456.007 2.221H6.194c.026.616.024 1.213.085 1.805.039.382.323.569.681.546.331-.021.545-.252.567-.637.015-.265.003-.531.003-.815h1.403c.015.7.064 1.398-.419 1.991z"/></defs><clipPath id="F"><use xlink:href="#E" overflow="visible"/></clipPath><g clip-path="url(#F)"><defs><path id="G" d="M-483-212H541v469H-483z"/></defs><clipPath id="H"><use xlink:href="#G" overflow="visible"/></clipPath><path clip-path="url(#H)" fill="#ADADAD" d="M-16.909 147.914h32.51v25.723h-32.51z"/></g><defs><path id="I" d="M-4.848 151.547h-1.506c-.004-.097-.012-.189-.012-.283-.001-.893-.031-1.786.008-2.677.042-.939-.115-1.839-.41-2.72-.467-1.396-.941-2.789-1.412-4.184-.033-.098-.06-.198-.096-.318.509 0 .996-.006 1.481.009.057.002.14.112.16.187.326 1.178.645 2.357.965 3.537.017.062.039.121.078.245l.507-1.948c.16-.618.317-1.239.488-1.855.019-.068.113-.164.175-.166.453-.015.907-.008 1.399-.008-.062.219-.115.417-.174.612-.531 1.749-1.063 3.497-1.591 5.248-.039.129-.057.27-.058.404-.004 1.201-.002 2.402-.002 3.603v.314z"/></defs><clipPath id="J"><use xlink:href="#I" overflow="visible"/></clipPath><g clip-path="url(#J)"><defs><path id="K" d="M-483-212H541v469H-483z"/></defs><clipPath id="L"><use xlink:href="#K" overflow="visible"/></clipPath><path clip-path="url(#L)" fill="#ADADAD" d="M-13.276 136.364H1.977v20.183h-15.253z"/></g><defs><path id="M" d="M2.219 143.989h1.367v5.848c0 .081-.005.164.008.243.045.283.213.386.486.304.394-.117.706-.53.706-.934v-5.461h1.366v7.555h-1.36v-.782c-.271.228-.494.436-.739.614a1.399 1.399 0 0 1-1.058.265c-.344-.051-.595-.229-.674-.574a3.918 3.918 0 0 1-.111-.84c-.009-2.036-.005-4.072-.004-6.108 0-.033.006-.065.013-.13"/></defs><clipPath id="N"><use xlink:href="#M" overflow="visible"/></clipPath><g clip-path="url(#N)"><defs><path id="O" d="M-483-212H541v469H-483z"/></defs><clipPath id="P"><use xlink:href="#O" overflow="visible"/></clipPath><path clip-path="url(#P)" fill="#ADADAD" d="M-2.796 138.989h13.948v17.668H-2.796z"/></g><defs><path id="Q" d="M.995 145.61c-.082-.794-.5-1.395-1.294-1.627-.788-.23-1.529-.127-2.126.501-.443.466-.547 1.06-.557 1.666a96.907 96.907 0 0 0 0 3.235c.009.536.1 1.066.432 1.517.477.649 1.317.91 2.182.684.74-.192 1.288-.828 1.367-1.679.065-.708.06-1.424.085-2.145-.026-.712-.015-1.436-.089-2.152m-1.315 3.86c-.001.19-.047.387-.108.569-.082.246-.274.377-.537.38-.263.004-.463-.124-.542-.37a2.427 2.427 0 0 1-.113-.665c-.016-.543-.005-1.087-.005-1.63s-.005-1.086.003-1.63c.002-.177.022-.356.065-.527.082-.324.287-.484.582-.485.3-.002.497.149.586.477.042.154.07.317.071.478a241.28 241.28 0 0 1-.002 3.403"/></defs><clipPath id="R"><use xlink:href="#Q" overflow="visible"/></clipPath><g clip-path="url(#R)"><defs><path id="S" d="M-483-212H541v469H-483z"/></defs><clipPath id="T"><use xlink:href="#S" overflow="visible"/></clipPath><path clip-path="url(#T)" fill="#ADADAD" d="M-7.996 138.871H6.083v17.795H-7.996z"/></g><defs><circle id="U" cx="-13" cy="151" r="20"/></defs><clipPath id="V"><use xlink:href="#U" overflow="visible"/></clipPath><g clip-path="url(#V)"><defs><path id="W" d="M-495-216H529v469H-495z"/></defs><clipPath id="X"><use xlink:href="#W" overflow="visible"/></clipPath><path clip-path="url(#X)" fill="#FFF" d="M-38 126h50v50h-50z"/></g><defs><path id="Y" d="M-1.401 155.408c-.005-1.282-.093-2.559-.342-3.82-.235-1.198-1.077-2.124-2.276-2.296-1.144-.165-2.307-.229-3.463-.272-1.726-.064-3.454-.073-5.181-.105v.034h-1.606a83.37 83.37 0 0 0-6.439.245c-1.461.113-2.56.959-2.828 2.333a17.367 17.367 0 0 0-.303 2.53 55.208 55.208 0 0 0-.052 4.109c.035 1.188.156 2.376.293 3.557.121 1.035.639 1.839 1.591 2.325.513.262 1.076.304 1.631.333 1.796.096 3.593.195 5.392.234 1.653.035 3.31.024 4.963-.021 1.854-.052 3.708-.155 5.56-.257 1.305-.072 2.306-.82 2.62-2.084.221-.889.327-1.818.375-2.735.073-1.368.07-2.74.065-4.11zm-16.093-2.41h-1.625v8.646h-1.516v-8.646h-1.586v-1.429h4.727v1.429zm4.096 8.648h-1.333v-.777c-.21.185-.375.345-.556.484-.376.291-.783.486-1.282.375-.326-.072-.542-.263-.61-.585a3.951 3.951 0 0 1-.102-.793c-.008-2.013-.005-4.025-.004-6.038 0-.048.007-.096.014-.179.411 0 .799.003 1.188-.002.164-.002.153.103.153.212v5.503c0 .057-.003.113.001.17.015.176-.011.41.192.456a.758.758 0 0 0 .519-.103c.307-.194.497-.451.49-.874-.027-1.688-.011-3.376-.011-5.064v-.28h1.342v7.495zm5.175-1.661a3.93 3.93 0 0 1-.099.843c-.197.832-.954 1.18-1.708.772-.285-.154-.529-.386-.818-.602v.646h-1.329c-.005-.084-.016-.169-.016-.254-.001-3.198 0-6.395-.005-9.593 0-.186.041-.26.241-.251.363.015.727.004 1.118.004v3.249c.233-.192.424-.377.64-.523a1.288 1.288 0 0 1 1.137-.182c.542.168.716.623.79 1.123.045.304.059.614.06.922.003 1.282.002 2.564-.011 3.846zm4.737 1.064c-.551.676-1.281.824-2.083.65-.803-.175-1.3-.7-1.475-1.503a4.519 4.519 0 0 1-.096-.892 88.575 88.575 0 0 1 .002-2.87c.007-.345.053-.697.143-1.029.247-.907 1.084-1.406 2.024-1.362.987.046 1.8.707 1.861 1.895.038.727.007 1.456.007 2.221h-2.705c.026.616.024 1.213.085 1.805.039.382.323.569.681.546.331-.021.545-.252.567-.637.015-.265.003-.531.003-.815h1.403c.017.7.066 1.398-.417 1.991z"/></defs><clipPath id="Z"><use xlink:href="#Y" overflow="visible"/></clipPath><g clip-path="url(#Z)"><defs><path id="aa" d="M-495-216H529v469H-495z"/></defs><clipPath id="ab"><use xlink:href="#aa" overflow="visible"/></clipPath><path clip-path="url(#ab)" fill="#ADADAD" d="M-28.909 143.914h32.51v25.723h-32.51z"/></g><defs><path id="ac" d="M-16.848 147.547h-1.506c-.004-.097-.012-.189-.012-.283-.001-.893-.031-1.786.008-2.677.042-.939-.115-1.839-.41-2.72-.467-1.396-.941-2.789-1.412-4.184-.033-.098-.06-.198-.096-.318.509 0 .996-.006 1.481.009.057.002.14.112.16.187.326 1.178.645 2.357.965 3.537.017.062.039.121.078.245l.507-1.948c.16-.618.317-1.239.488-1.855.019-.068.113-.164.175-.166.453-.015.907-.008 1.399-.008-.062.219-.115.417-.174.612-.531 1.749-1.063 3.497-1.591 5.248-.039.129-.057.27-.058.404-.004 1.201-.002 2.402-.002 3.603v.314z"/></defs><clipPath id="ad"><use xlink:href="#ac" overflow="visible"/></clipPath><g clip-path="url(#ad)"><defs><path id="ae" d="M-495-216H529v469H-495z"/></defs><clipPath id="af"><use xlink:href="#ae" overflow="visible"/></clipPath><path clip-path="url(#af)" fill="#ADADAD" d="M-25.276 132.364h15.253v20.183h-15.253z"/></g><defs><path id="ag" d="M-9.781 139.989h1.367v5.848c0 .081-.005.164.008.243.045.283.213.386.486.304.394-.117.706-.53.706-.934v-5.461h1.366v7.555h-1.36v-.782c-.271.228-.494.436-.739.614a1.399 1.399 0 0 1-1.058.265c-.344-.051-.595-.229-.674-.574a3.918 3.918 0 0 1-.111-.84c-.009-2.036-.005-4.072-.004-6.108 0-.033.006-.065.013-.13"/></defs><clipPath id="ah"><use xlink:href="#ag" overflow="visible"/></clipPath><g clip-path="url(#ah)"><defs><path id="ai" d="M-495-216H529v469H-495z"/></defs><clipPath id="aj"><use xlink:href="#ai" overflow="visible"/></clipPath><path clip-path="url(#aj)" fill="#ADADAD" d="M-14.796 134.989H-.848v17.668h-13.948z"/></g><defs><path id="ak" d="M-11.005 141.61c-.082-.794-.5-1.395-1.294-1.627-.788-.23-1.529-.127-2.126.501-.443.466-.547 1.06-.557 1.666a96.907 96.907 0 0 0 0 3.235c.009.536.1 1.066.432 1.517.477.649 1.317.91 2.182.684.74-.192 1.288-.828 1.367-1.679.065-.708.06-1.424.085-2.145-.026-.712-.015-1.436-.089-2.152m-1.315 3.86c-.001.19-.047.387-.108.569-.082.246-.274.377-.537.38-.263.004-.463-.124-.542-.37a2.427 2.427 0 0 1-.113-.665c-.016-.543-.005-1.087-.005-1.63s-.005-1.086.003-1.63c.002-.177.022-.356.065-.527.082-.324.287-.484.582-.485.3-.002.497.149.586.477.042.154.07.317.071.478a241.28 241.28 0 0 1-.002 3.403"/></defs><clipPath id="al"><use xlink:href="#ak" overflow="visible"/></clipPath><g clip-path="url(#al)"><defs><path id="am" d="M-495-216H529v469H-495z"/></defs><clipPath id="an"><use xlink:href="#am" overflow="visible"/></clipPath><path clip-path="url(#an)" fill="#ADADAD" d="M-19.996 134.871h14.079v17.795h-14.079z"/></g><defs><path id="ao" d="M-10.839 157.908v-2.067c0-.268.187-.465.512-.541.293-.069.547.028.638.299.076.226.117.473.119.711.008 1.143-.003 2.285-.009 3.429 0 .04-.002.081-.007.121-.078.646-.573.86-1.089.458a.47.47 0 0 1-.157-.317c-.015-.698-.007-1.396-.007-2.093"/></defs><clipPath id="ap"><use xlink:href="#ao" overflow="visible"/></clipPath><g clip-path="url(#ap)"><defs><path id="aq" d="M-495-216H529v469H-495z"/></defs><clipPath id="ar"><use xlink:href="#aq" overflow="visible"/></clipPath><path clip-path="url(#ar)" fill="#ADADAD" d="M-15.841 150.278h11.273v15.243h-11.273z"/></g><defs><circle id="as" cx="-1" cy="158" r="20"/></defs><clipPath id="at"><use xlink:href="#as" overflow="visible"/></clipPath><g clip-path="url(#at)"><defs><path id="au" d="M-483-209H541v469H-483z"/></defs><clipPath id="av"><use xlink:href="#au" overflow="visible"/></clipPath><path clip-path="url(#av)" fill="#FFF" d="M-26 133h50v50h-50z"/></g><defs><path id="aw" d="M10.599 162.408c-.005-1.282-.093-2.559-.342-3.82-.235-1.198-1.077-2.124-2.276-2.296-1.144-.165-2.307-.229-3.463-.272-1.726-.064-3.454-.073-5.181-.105v.034H-2.27a83.37 83.37 0 0 0-6.439.245c-1.461.113-2.56.959-2.828 2.333a17.367 17.367 0 0 0-.303 2.53 55.208 55.208 0 0 0-.052 4.109c.035 1.188.156 2.376.293 3.557.121 1.035.639 1.839 1.591 2.325.513.262 1.076.304 1.631.333 1.796.096 3.593.195 5.392.234 1.653.035 3.31.024 4.963-.021 1.854-.052 3.708-.155 5.56-.257 1.305-.072 2.306-.82 2.62-2.084.221-.889.327-1.818.375-2.735.074-1.368.071-2.74.066-4.11zm-16.093-2.41h-1.625v8.646h-1.516v-8.646h-1.586v-1.429h4.727v1.429zm4.096 8.648h-1.333v-.777c-.21.185-.375.345-.556.484-.376.291-.783.486-1.282.375-.326-.072-.542-.263-.61-.585a3.951 3.951 0 0 1-.102-.793c-.008-2.013-.005-4.025-.004-6.038 0-.048.007-.096.014-.179.411 0 .799.003 1.188-.002.164-.002.153.103.153.212v5.503c0 .057-.003.113.001.17.015.176-.011.41.192.456a.758.758 0 0 0 .519-.103c.307-.194.497-.451.49-.874-.027-1.688-.011-3.376-.011-5.064v-.28h1.342v7.495zm5.175-1.661a3.93 3.93 0 0 1-.099.843c-.197.832-.954 1.18-1.708.772-.285-.154-.529-.386-.818-.602v.646H-.177c-.005-.084-.016-.169-.016-.254-.001-3.198 0-6.395-.005-9.593 0-.186.041-.26.241-.251.363.015.727.004 1.118.004v3.249c.233-.192.424-.377.64-.523a1.288 1.288 0 0 1 1.137-.182c.542.168.716.623.79 1.123.045.304.059.614.06.922.003 1.282.002 2.564-.011 3.846zm4.737 1.064c-.551.676-1.281.824-2.083.65-.803-.175-1.3-.7-1.475-1.503a4.519 4.519 0 0 1-.096-.892 88.575 88.575 0 0 1 .002-2.87c.007-.345.053-.697.143-1.029.247-.907 1.084-1.406 2.024-1.362.987.046 1.8.707 1.861 1.895.038.727.007 1.456.007 2.221H6.194c.026.616.024 1.213.085 1.805.039.382.323.569.681.546.331-.021.545-.252.567-.637.015-.265.003-.531.003-.815h1.403c.015.7.064 1.398-.419 1.991z"/></defs><clipPath id="ax"><use xlink:href="#aw" overflow="visible"/></clipPath><g clip-path="url(#ax)"><defs><path id="ay" d="M-483-209H541v469H-483z"/></defs><clipPath id="az"><use xlink:href="#ay" overflow="visible"/></clipPath><path clip-path="url(#az)" fill="#ADADAD" d="M-16.909 150.914h32.51v25.723h-32.51z"/></g><defs><path id="aA" d="M-4.848 154.547h-1.506c-.004-.097-.012-.189-.012-.283-.001-.893-.031-1.786.008-2.677.042-.939-.115-1.839-.41-2.72-.467-1.396-.941-2.789-1.412-4.184-.033-.098-.06-.198-.096-.318.509 0 .996-.006 1.481.009.057.002.14.112.16.187.326 1.178.645 2.357.965 3.537.017.062.039.121.078.245l.507-1.948c.16-.618.317-1.239.488-1.855.019-.068.113-.164.175-.166.453-.015.907-.008 1.399-.008-.062.219-.115.417-.174.612-.531 1.749-1.063 3.497-1.591 5.248-.039.129-.057.27-.058.404-.004 1.201-.002 2.402-.002 3.603v.314z"/></defs><clipPath id="aB"><use xlink:href="#aA" overflow="visible"/></clipPath><g clip-path="url(#aB)"><defs><path id="aC" d="M-483-209H541v469H-483z"/></defs><clipPath id="aD"><use xlink:href="#aC" overflow="visible"/></clipPath><path clip-path="url(#aD)" fill="#ADADAD" d="M-13.276 139.364H1.977v20.183h-15.253z"/></g><defs><path id="aE" d="M2.219 146.989h1.367v5.848c0 .081-.005.164.008.243.045.283.213.386.486.304.394-.117.706-.53.706-.934v-5.461h1.366v7.555h-1.36v-.782c-.271.228-.494.436-.739.614a1.399 1.399 0 0 1-1.058.265c-.344-.051-.595-.229-.674-.574a3.918 3.918 0 0 1-.111-.84c-.009-2.036-.005-4.072-.004-6.108 0-.033.006-.065.013-.13"/></defs><clipPath id="aF"><use xlink:href="#aE" overflow="visible"/></clipPath><g clip-path="url(#aF)"><defs><path id="aG" d="M-483-209H541v469H-483z"/></defs><clipPath id="aH"><use xlink:href="#aG" overflow="visible"/></clipPath><path clip-path="url(#aH)" fill="#ADADAD" d="M-2.796 141.989h13.948v17.668H-2.796z"/></g><defs><path id="aI" d="M.995 148.61c-.082-.794-.5-1.395-1.294-1.627-.788-.23-1.529-.127-2.126.501-.443.466-.547 1.06-.557 1.666a96.907 96.907 0 0 0 0 3.235c.009.536.1 1.066.432 1.517.477.649 1.317.91 2.182.684.74-.192 1.288-.828 1.367-1.679.065-.708.06-1.424.085-2.145-.026-.712-.015-1.436-.089-2.152m-1.315 3.86c-.001.19-.047.387-.108.569-.082.246-.274.377-.537.38-.263.004-.463-.124-.542-.37a2.427 2.427 0 0 1-.113-.665c-.016-.543-.005-1.087-.005-1.63s-.005-1.086.003-1.63c.002-.177.022-.356.065-.527.082-.324.287-.484.582-.485.3-.002.497.149.586.477.042.154.07.317.071.478a241.28 241.28 0 0 1-.002 3.403"/></defs><clipPath id="aJ"><use xlink:href="#aI" overflow="visible"/></clipPath><g clip-path="url(#aJ)"><defs><path id="aK" d="M-483-209H541v469H-483z"/></defs><clipPath id="aL"><use xlink:href="#aK" overflow="visible"/></clipPath><path clip-path="url(#aL)" fill="#ADADAD" d="M-7.996 141.871H6.083v17.795H-7.996z"/></g><defs><path id="aM" d="M1.161 164.908v-2.067c0-.268.187-.465.512-.541.293-.069.547.028.638.299.076.226.117.473.119.711.008 1.143-.003 2.285-.009 3.429 0 .04-.002.081-.007.121-.078.646-.573.86-1.089.458a.47.47 0 0 1-.157-.317c-.015-.698-.007-1.396-.007-2.093"/></defs><clipPath id="aN"><use xlink:href="#aM" overflow="visible"/></clipPath><g clip-path="url(#aN)"><defs><path id="aO" d="M-483-209H541v469H-483z"/></defs><clipPath id="aP"><use xlink:href="#aO" overflow="visible"/></clipPath><path clip-path="url(#aP)" fill="#ADADAD" d="M-3.841 157.278H7.432v15.243H-3.841z"/></g><defs><path id="aQ" d="M7.604 163.993h-1.41c.027-.406.028-.802.087-1.189.052-.341.294-.519.604-.521.328-.002.574.171.63.522.061.381.06.77.089 1.188"/></defs><clipPath id="aR"><use xlink:href="#aQ" overflow="visible"/></clipPath><g clip-path="url(#aR)"><defs><path id="aS" d="M-483-209H541v469H-483z"/></defs><clipPath id="aT"><use xlink:href="#aS" overflow="visible"/></clipPath><path clip-path="url(#aT)" fill="#ADADAD" d="M1.194 157.282h11.41v11.711H1.194z"/></g><defs><circle id="aU" cx="-1" cy="158" r="20"/></defs><clipPath id="aV"><use xlink:href="#aU" overflow="visible"/></clipPath><g clip-path="url(#aV)"><defs><path id="aW" d="M-483-209H541v469H-483z"/></defs><clipPath id="aX"><use xlink:href="#aW" overflow="visible"/></clipPath><path clip-path="url(#aX)" fill="#FFF" d="M-26 133h50v50h-50z"/></g><defs><path id="aY" d="M10.599 162.408c-.005-1.282-.093-2.559-.342-3.82-.235-1.198-1.077-2.124-2.276-2.296-1.144-.165-2.307-.229-3.463-.272-1.726-.064-3.454-.073-5.181-.105v.034H-2.27a83.37 83.37 0 0 0-6.439.245c-1.461.113-2.56.959-2.828 2.333a17.367 17.367 0 0 0-.303 2.53 55.208 55.208 0 0 0-.052 4.109c.035 1.188.156 2.376.293 3.557.121 1.035.639 1.839 1.591 2.325.513.262 1.076.304 1.631.333 1.796.096 3.593.195 5.392.234 1.653.035 3.31.024 4.963-.021 1.854-.052 3.708-.155 5.56-.257 1.305-.072 2.306-.82 2.62-2.084.221-.889.327-1.818.375-2.735.074-1.368.071-2.74.066-4.11zm-16.093-2.41h-1.625v8.646h-1.516v-8.646h-1.586v-1.429h4.727v1.429zm4.096 8.648h-1.333v-.777c-.21.185-.375.345-.556.484-.376.291-.783.486-1.282.375-.326-.072-.542-.263-.61-.585a3.951 3.951 0 0 1-.102-.793c-.008-2.013-.005-4.025-.004-6.038 0-.048.007-.096.014-.179.411 0 .799.003 1.188-.002.164-.002.153.103.153.212v5.503c0 .057-.003.113.001.17.015.176-.011.41.192.456a.758.758 0 0 0 .519-.103c.307-.194.497-.451.49-.874-.027-1.688-.011-3.376-.011-5.064v-.28h1.342v7.495zm5.175-1.661a3.93 3.93 0 0 1-.099.843c-.197.832-.954 1.18-1.708.772-.285-.154-.529-.386-.818-.602v.646H-.177c-.005-.084-.016-.169-.016-.254-.001-3.198 0-6.395-.005-9.593 0-.186.041-.26.241-.251.363.015.727.004 1.118.004v3.249c.233-.192.424-.377.64-.523a1.288 1.288 0 0 1 1.137-.182c.542.168.716.623.79 1.123.045.304.059.614.06.922.003 1.282.002 2.564-.011 3.846zm4.737 1.064c-.551.676-1.281.824-2.083.65-.803-.175-1.3-.7-1.475-1.503a4.519 4.519 0 0 1-.096-.892 88.575 88.575 0 0 1 .002-2.87c.007-.345.053-.697.143-1.029.247-.907 1.084-1.406 2.024-1.362.987.046 1.8.707 1.861 1.895.038.727.007 1.456.007 2.221H6.194c.026.616.024 1.213.085 1.805.039.382.323.569.681.546.331-.021.545-.252.567-.637.015-.265.003-.531.003-.815h1.403c.015.7.064 1.398-.419 1.991z"/></defs><clipPath id="aZ"><use xlink:href="#aY" overflow="visible"/></clipPath><g clip-path="url(#aZ)"><defs><path id="ba" d="M-483-209H541v469H-483z"/></defs><clipPath id="bb"><use xlink:href="#ba" overflow="visible"/></clipPath><path clip-path="url(#bb)" fill="#ADADAD" d="M-16.909 150.914h32.51v25.723h-32.51z"/></g><defs><path id="bc" d="M-4.848 154.547h-1.506c-.004-.097-.012-.189-.012-.283-.001-.893-.031-1.786.008-2.677.042-.939-.115-1.839-.41-2.72-.467-1.396-.941-2.789-1.412-4.184-.033-.098-.06-.198-.096-.318.509 0 .996-.006 1.481.009.057.002.14.112.16.187.326 1.178.645 2.357.965 3.537.017.062.039.121.078.245l.507-1.948c.16-.618.317-1.239.488-1.855.019-.068.113-.164.175-.166.453-.015.907-.008 1.399-.008-.062.219-.115.417-.174.612-.531 1.749-1.063 3.497-1.591 5.248-.039.129-.057.27-.058.404-.004 1.201-.002 2.402-.002 3.603v.314z"/></defs><clipPath id="bd"><use xlink:href="#bc" overflow="visible"/></clipPath><g clip-path="url(#bd)"><defs><path id="be" d="M-483-209H541v469H-483z"/></defs><clipPath id="bf"><use xlink:href="#be" overflow="visible"/></clipPath><path clip-path="url(#bf)" fill="#ADADAD" d="M-13.276 139.364H1.977v20.183h-15.253z"/></g><defs><path id="bg" d="M2.219 146.989h1.367v5.848c0 .081-.005.164.008.243.045.283.213.386.486.304.394-.117.706-.53.706-.934v-5.461h1.366v7.555h-1.36v-.782c-.271.228-.494.436-.739.614a1.399 1.399 0 0 1-1.058.265c-.344-.051-.595-.229-.674-.574a3.918 3.918 0 0 1-.111-.84c-.009-2.036-.005-4.072-.004-6.108 0-.033.006-.065.013-.13"/></defs><clipPath id="bh"><use xlink:href="#bg" overflow="visible"/></clipPath><g clip-path="url(#bh)"><defs><path id="bi" d="M-483-209H541v469H-483z"/></defs><clipPath id="bj"><use xlink:href="#bi" overflow="visible"/></clipPath><path clip-path="url(#bj)" fill="#ADADAD" d="M-2.796 141.989h13.948v17.668H-2.796z"/></g><defs><path id="bk" d="M.995 148.61c-.082-.794-.5-1.395-1.294-1.627-.788-.23-1.529-.127-2.126.501-.443.466-.547 1.06-.557 1.666a96.907 96.907 0 0 0 0 3.235c.009.536.1 1.066.432 1.517.477.649 1.317.91 2.182.684.74-.192 1.288-.828 1.367-1.679.065-.708.06-1.424.085-2.145-.026-.712-.015-1.436-.089-2.152m-1.315 3.86c-.001.19-.047.387-.108.569-.082.246-.274.377-.537.38-.263.004-.463-.124-.542-.37a2.427 2.427 0 0 1-.113-.665c-.016-.543-.005-1.087-.005-1.63s-.005-1.086.003-1.63c.002-.177.022-.356.065-.527.082-.324.287-.484.582-.485.3-.002.497.149.586.477.042.154.07.317.071.478a241.28 241.28 0 0 1-.002 3.403"/></defs><clipPath id="bl"><use xlink:href="#bk" overflow="visible"/></clipPath><g clip-path="url(#bl)"><defs><path id="bm" d="M-483-209H541v469H-483z"/></defs><clipPath id="bn"><use xlink:href="#bm" overflow="visible"/></clipPath><path clip-path="url(#bn)" fill="#ADADAD" d="M-7.996 141.871H6.083v17.795H-7.996z"/></g><defs><path id="bo" d="M1.161 164.908v-2.067c0-.268.187-.465.512-.541.293-.069.547.028.638.299.076.226.117.473.119.711.008 1.143-.003 2.285-.009 3.429 0 .04-.002.081-.007.121-.078.646-.573.86-1.089.458a.47.47 0 0 1-.157-.317c-.015-.698-.007-1.396-.007-2.093"/></defs><clipPath id="bp"><use xlink:href="#bo" overflow="visible"/></clipPath><g clip-path="url(#bp)"><defs><path id="bq" d="M-483-209H541v469H-483z"/></defs><clipPath id="br"><use xlink:href="#bq" overflow="visible"/></clipPath><path clip-path="url(#br)" fill="#ADADAD" d="M-3.841 157.278H7.432v15.243H-3.841z"/></g><defs><path id="bs" d="M7.604 163.993h-1.41c.027-.406.028-.802.087-1.189.052-.341.294-.519.604-.521.328-.002.574.171.63.522.061.381.06.77.089 1.188"/></defs><clipPath id="bt"><use xlink:href="#bs" overflow="visible"/></clipPath><g clip-path="url(#bt)"><defs><path id="bu" d="M-483-209H541v469H-483z"/></defs><clipPath id="bv"><use xlink:href="#bu" overflow="visible"/></clipPath><path clip-path="url(#bv)" fill="#ADADAD" d="M1.194 157.282h11.41v11.711H1.194z"/></g><defs><path id="bw" d="M-349-483.489H675v469H-349z"/></defs><clipPath id="bx"><use xlink:href="#bw" overflow="visible"/></clipPath><g clip-path="url(#bx)"><defs><path id="by" d="M252-136.489h40v40h-40z"/></defs><clipPath id="bz"><use xlink:href="#by" overflow="visible"/></clipPath><g clip-path="url(#bz)"><defs><circle id="bA" cx="272" cy="-116.489" r="20"/></defs><clipPath id="bB"><use xlink:href="#bA" overflow="visible"/></clipPath><g clip-path="url(#bB)"><defs><path id="bC" d="M252-136.489h40v40h-40z"/></defs><clipPath id="bD"><use xlink:href="#bC" overflow="visible"/></clipPath><path clip-path="url(#bD)" fill="#FFF" d="M247-141.489h50v50h-50z"/></g></g><g clip-path="url(#bz)"><defs><path id="bE" d="M272.075-124.359c-3.955-.08-7.211 3.25-7.242 7.136-.033 4.007 3.267 7.277 7.181 7.299 3.988.023 7.274-3.282 7.271-7.237-.003-3.947-3.293-7.265-7.21-7.198m-.021 11.903a4.677 4.677 0 0 1-4.688-4.723 4.67 4.67 0 0 1 4.711-4.664 4.67 4.67 0 0 1 4.674 4.702 4.677 4.677 0 0 1-4.697 4.685"/></defs><clipPath id="bF"><use xlink:href="#bE" overflow="visible"/></clipPath><g clip-path="url(#bF)"><defs><path id="bG" d="M252-136.489h40v40h-40z"/></defs><clipPath id="bH"><use xlink:href="#bG" overflow="visible"/></clipPath><path clip-path="url(#bH)" fill="#ADADAD" d="M259.832-129.361h24.453v24.438h-24.453z"/></g></g><g clip-path="url(#bz)"><defs><path id="bI" d="M279.598-126.344a1.677 1.677 0 0 0-1.701 1.646c-.007.956.713 1.692 1.665 1.703a1.67 1.67 0 0 0 1.692-1.681c.002-.896-.75-1.653-1.656-1.668"/></defs><clipPath id="bJ"><use xlink:href="#bI" overflow="visible"/></clipPath><g clip-path="url(#bJ)"><defs><path id="bK" d="M252-136.489h40v40h-40z"/></defs><clipPath id="bL"><use xlink:href="#bK" overflow="visible"/></clipPath><path clip-path="url(#bL)" fill="#ADADAD" d="M272.896-131.345h13.357v13.351h-13.357z"/></g></g><g clip-path="url(#bz)"><defs><path id="bM" d="M258-131.208h28.125v28.152H258z"/></defs><clipPath id="bN"><use xlink:href="#bM" overflow="visible"/></clipPath><g clip-path="url(#bN)"><defs><path id="bO" d="M252-136.489h40v40h-40z"/></defs><clipPath id="bP"><use xlink:href="#bO" overflow="visible"/></clipPath><g clip-path="url(#bP)"><defs><path id="bQ" d="M258-131.489h29v29h-29z"/></defs><clipPath id="bR"><use xlink:href="#bQ" overflow="visible"/></clipPath><g clip-path="url(#bR)"><defs><path id="bS" d="M286.084-121.204c-.021-1.139-.076-2.288-.257-3.41-.582-3.605-2.951-5.863-6.595-6.355-1.339-.182-2.704-.218-4.059-.23-2.598-.023-5.196.013-7.794.033-1.144.009-2.281.088-3.397.359-1.436.349-2.707.992-3.736 2.067-1.293 1.35-1.904 3.014-2.069 4.83-.131 1.437-.162 2.885-.172 4.328-.017 2.383.013 4.767.037 7.149.015 1.468.136 2.924.647 4.317.689 1.875 1.919 3.256 3.745 4.094 1.348.618 2.781.823 4.24.868 1.786.056 3.573.067 5.36.098l.001-.06c1.367 0 2.734.011 4.102-.004 1.239-.014 2.476-.051 3.698-.304 3.396-.703 5.405-2.97 6.005-6.226.263-1.429.257-2.876.271-4.318.025-2.411.017-4.824-.027-7.236m-2.487 8.078c-.012 1.159-.052 2.322-.325 3.46-.505 2.096-1.828 3.34-3.925 3.775-1.25.26-2.521.271-3.789.291-1.162.019-2.325.004-3.488.004v.03c-1.816-.032-3.633-.047-5.448-.104-.996-.03-1.995-.139-2.921-.534-1.61-.688-2.557-1.929-2.899-3.64-.246-1.231-.282-2.481-.29-3.729a468.6 468.6 0 0 1 .009-7.592c.012-1.169.049-2.343.328-3.489.51-2.093 1.841-3.327 3.938-3.758 1.222-.251 2.463-.279 3.7-.287 2.531-.015 5.062-.018 7.593.009 1.168.012 2.341.052 3.488.33 2.084.507 3.313 1.832 3.75 3.912.258 1.229.282 2.48.289 3.729.014 2.531.016 5.062-.01 7.593"/></defs><clipPath id="bT"><use xlink:href="#bS" overflow="visible"/></clipPath><g clip-path="url(#bT)"><defs><path id="bU" d="M258-131.489h29v29h-29z"/></defs><clipPath id="bV"><use xlink:href="#bU" overflow="visible"/></clipPath><path clip-path="url(#bV)" fill="#ADADAD" d="M253-136.208h38.125v38.152H253z"/></g></g></g></g></g></g><defs><path id="bW" d="M-389-483.489H635v469H-389z"/></defs><clipPath id="bX"><use xlink:href="#bW" overflow="visible"/></clipPath><g clip-path="url(#bX)"><defs><path id="bY" d="M144-136.489h40v40h-40z"/></defs><clipPath id="bZ"><use xlink:href="#bY" overflow="visible"/></clipPath><g clip-path="url(#bZ)"><defs><circle id="ca" cx="164" cy="-116.489" r="20"/></defs><clipPath id="cb"><use xlink:href="#ca" overflow="visible"/></clipPath><g clip-path="url(#cb)"><defs><path id="cc" d="M144-136.489h40v40h-40z"/></defs><clipPath id="cd"><use xlink:href="#cc" overflow="visible"/></clipPath><path clip-path="url(#cd)" fill="#FFF" d="M139-141.489h50v50h-50z"/></g></g><g clip-path="url(#bZ)"><defs><path id="ce" d="M181-123.488a11.917 11.917 0 0 1-2.771 2.937c-.163.123-.233.247-.229.455.076 4.469-1.333 8.425-4.12 11.904-2.626 3.279-6.032 5.235-10.147 5.975-3.202.574-6.351.346-9.419-.758a14.988 14.988 0 0 1-3.313-1.674c1.604.109 3.186.006 4.737-.423 1.555-.43 2.957-1.155 4.269-2.174-2.824-.242-4.725-1.655-5.771-4.31.934.099 1.811.129 2.713-.117-3.05-.932-4.686-2.932-4.893-6.138.485.188.907.387 1.35.513.438.125.896.177 1.354.236-2.699-2.296-3.324-5.024-1.838-8.313 3.394 3.988 7.622 6.167 12.799 6.523-.041-.464-.1-.887-.112-1.311-.108-3.649 3.04-6.618 6.68-6.306 1.469.126 2.747.683 3.795 1.727.179.179.34.203.565.149 1.159-.273 2.269-.674 3.306-1.267.076-.043.157-.076.274-.132-.228.729-.539 1.376-1.019 1.907-.474.526-1.017.989-1.503 1.453 1.097-.119 2.203-.443 3.293-.856"/></defs><clipPath id="cf"><use xlink:href="#ce" overflow="visible"/></clipPath><g clip-path="url(#cf)"><defs><path id="cg" d="M144-136.489h40v40h-40z"/></defs><clipPath id="ch"><use xlink:href="#cg" overflow="visible"/></clipPath><path clip-path="url(#ch)" fill="#ADADAD" d="M146-131.489h40v34.576h-40z"/></g></g></g><defs><path id="ci" d="M31.599 24.783c-.005-1.282-.093-2.559-.342-3.82-.235-1.198-1.077-2.124-2.276-2.296-1.144-.165-2.307-.229-3.463-.272-1.726-.064-3.454-.073-5.181-.105l-.001.034H18.73a83.37 83.37 0 0 0-6.439.245c-1.461.113-2.56.959-2.827 2.333a17.367 17.367 0 0 0-.303 2.53 55.208 55.208 0 0 0-.052 4.109c.034 1.188.155 2.376.293 3.557.12 1.035.639 1.839 1.591 2.325.513.262 1.076.304 1.631.333 1.796.096 3.593.195 5.392.234 1.653.035 3.31.024 4.963-.021 1.854-.052 3.708-.155 5.561-.257 1.305-.072 2.307-.82 2.62-2.084.221-.889.327-1.818.376-2.735.071-1.368.068-2.74.063-4.11zm-16.093-2.41h-1.624v8.646h-1.517v-8.646h-1.586v-1.429h4.727v1.429zm4.096 8.648h-1.334v-.777c-.209.185-.375.345-.555.484-.377.291-.783.486-1.283.375-.326-.072-.541-.263-.609-.585a3.951 3.951 0 0 1-.102-.793c-.008-2.013-.005-4.025-.004-6.038 0-.048.007-.096.014-.179.411 0 .799.003 1.188-.002.164-.002.153.103.152.212v5.503c0 .057-.004.113.002.17.015.176-.012.41.191.456a.762.762 0 0 0 .52-.103c.307-.194.496-.451.49-.874-.027-1.688-.012-3.376-.012-5.064v-.28h1.342v7.495zm5.175-1.661a3.869 3.869 0 0 1-.1.843c-.196.832-.953 1.18-1.708.772-.285-.154-.529-.386-.818-.602v.646h-1.329c-.006-.084-.016-.169-.016-.254-.001-3.198 0-6.395-.005-9.593 0-.186.04-.26.241-.251.363.015.727.004 1.118.004v3.249c.233-.192.424-.377.64-.523a1.289 1.289 0 0 1 1.137-.182c.543.168.717.623.79 1.123.045.304.06.614.06.922a290.04 290.04 0 0 1-.01 3.846zm4.737 1.064c-.551.676-1.28.824-2.082.65-.803-.175-1.3-.7-1.475-1.503a4.519 4.519 0 0 1-.096-.892 88.575 88.575 0 0 1 .002-2.87c.007-.345.053-.697.143-1.029.247-.907 1.085-1.406 2.025-1.362.986.046 1.8.707 1.86 1.895.038.727.007 1.456.007 2.221h-2.705c.026.616.025 1.213.086 1.805.039.382.322.569.681.546.331-.021.546-.252.567-.637.015-.265.002-.531.002-.815h1.404c.015.7.063 1.398-.419 1.991z"/></defs><clipPath id="cj"><use xlink:href="#ci" overflow="visible"/></clipPath><g clip-path="url(#cj)"><defs><path id="ck" d="M-462-346.625H562v469H-462z"/></defs><clipPath id="cl"><use xlink:href="#ck" overflow="visible"/></clipPath><path clip-path="url(#cl)" fill="#ADADAD" d="M4.091 13.289h32.511v25.723H4.091z"/></g><defs><path id="cm" d="M16.152 16.922h-1.506c-.004-.097-.012-.189-.012-.283-.002-.893-.031-1.786.008-2.677.041-.939-.115-1.839-.41-2.72-.467-1.396-.941-2.789-1.412-4.184-.033-.097-.06-.198-.095-.318.509 0 .995-.006 1.48.009.057.002.141.112.16.187.326 1.178.645 2.357.965 3.537.018.062.039.121.078.245l.508-1.948c.16-.618.316-1.239.487-1.855.019-.068.112-.164.175-.166.453-.015.907-.008 1.398-.008-.062.219-.115.417-.174.612-.531 1.749-1.063 3.497-1.591 5.248-.039.129-.057.27-.058.404-.004 1.201-.002 2.402-.002 3.603v.314z"/></defs><clipPath id="cn"><use xlink:href="#cm" overflow="visible"/></clipPath><g clip-path="url(#cn)"><defs><path id="co" d="M-462-346.625H562v469H-462z"/></defs><clipPath id="cp"><use xlink:href="#co" overflow="visible"/></clipPath><path clip-path="url(#cp)" fill="#ADADAD" d="M7.725 1.739h15.252v20.183H7.725z"/></g><defs><path id="cq" d="M23.219 9.364h1.367v5.848c0 .081-.006.164.008.243.045.283.213.386.486.304.394-.117.705-.53.705-.934l.001-5.16v-.301h1.366v7.555h-1.36v-.782c-.271.228-.494.436-.739.614a1.401 1.401 0 0 1-1.059.265c-.344-.051-.594-.229-.674-.574a3.855 3.855 0 0 1-.11-.84c-.009-2.036-.005-4.072-.004-6.108 0-.033.006-.065.013-.13"/></defs><clipPath id="cr"><use xlink:href="#cq" overflow="visible"/></clipPath><g clip-path="url(#cr)"><defs><path id="cs" d="M-462-346.625H562v469H-462z"/></defs><clipPath id="ct"><use xlink:href="#cs" overflow="visible"/></clipPath><path clip-path="url(#ct)" fill="#ADADAD" d="M18.204 4.364h13.948v17.668H18.204z"/></g><defs><path id="cu" d="M21.995 10.985c-.082-.794-.5-1.395-1.294-1.627-.787-.23-1.529-.127-2.126.501-.443.466-.547 1.06-.558 1.666a96.907 96.907 0 0 0 0 3.235c.01.536.101 1.066.432 1.517.478.649 1.318.91 2.182.684.74-.192 1.289-.828 1.367-1.679.064-.708.06-1.424.086-2.145-.026-.712-.015-1.436-.089-2.152m-1.315 3.86c0 .19-.047.387-.107.569-.082.246-.274.377-.537.38-.264.004-.463-.124-.542-.37a2.505 2.505 0 0 1-.113-.665c-.017-.543-.005-1.087-.005-1.63s-.006-1.086.002-1.63c.003-.177.022-.356.066-.527.081-.324.287-.484.582-.485.3-.002.496.149.586.477.043.154.07.317.07.478a241.28 241.28 0 0 1-.002 3.403"/></defs><clipPath id="cv"><use xlink:href="#cu" overflow="visible"/></clipPath><g clip-path="url(#cv)"><defs><path id="cw" d="M-462-346.625H562v469H-462z"/></defs><clipPath id="cx"><use xlink:href="#cw" overflow="visible"/></clipPath><path clip-path="url(#cx)" fill="#ADADAD" d="M13.004 4.246h14.08v17.795h-14.08z"/></g><defs><path id="cy" d="M22.16 27.283v-2.067c0-.268.188-.465.513-.541.293-.069.547.028.638.299.076.226.117.473.119.711.008 1.143-.004 2.285-.01 3.429 0 .04-.002.081-.006.121-.078.646-.574.86-1.09.458a.465.465 0 0 1-.156-.317c-.015-.698-.008-1.396-.008-2.093"/></defs><clipPath id="cz"><use xlink:href="#cy" overflow="visible"/></clipPath><g clip-path="url(#cz)"><defs><path id="cA" d="M-462-346.625H562v469H-462z"/></defs><clipPath id="cB"><use xlink:href="#cA" overflow="visible"/></clipPath><path clip-path="url(#cB)" fill="#ADADAD" d="M17.158 19.653h11.273v15.243H17.158z"/></g><defs><path id="cC" d="M28.604 26.368h-1.41c.027-.406.028-.802.088-1.189.053-.341.295-.519.604-.521.328-.002.574.171.63.522.06.381.059.77.088 1.188"/></defs><clipPath id="cD"><use xlink:href="#cC" overflow="visible"/></clipPath><g clip-path="url(#cD)"><defs><path id="cE" d="M-462-346.625H562v469H-462z"/></defs><clipPath id="cF"><use xlink:href="#cE" overflow="visible"/></clipPath><path clip-path="url(#cF)" fill="#ADADAD" d="M22.193 19.657h11.41v11.711h-11.41z"/></g></svg>