<svg xmlns="http://www.w3.org/2000/svg" width="40" height="40" viewBox="0 0 40 40"><circle fill="#E14E42" cx="20" cy="20" r="20"/><path fill="none" d="M-495-216H529v469H-495z"/><path fill="none" d="M-16.848 147.547h-1.506c-.004-.097-.012-.189-.012-.283-.001-.893-.031-1.785.008-2.677.042-.938-.115-1.839-.41-2.72-.467-1.396-.941-2.789-1.412-4.184-.033-.099-.06-.199-.096-.318.509 0 .996-.006 1.481.009.057.002.14.112.16.187.326 1.178.645 2.357.965 3.537.017.063.039.121.078.245l.507-1.948c.16-.617.317-1.238.488-1.854.019-.067.113-.164.175-.166.453-.015.907-.008 1.399-.008-.062.219-.115.417-.174.612-.531 1.748-1.063 3.496-1.591 5.248-.039.129-.057.27-.058.403-.004 1.201-.002 2.402-.002 3.603v.314zm7.067-7.558h1.367v5.848c0 .081-.005.164.008.243.045.283.213.386.486.304.394-.116.706-.53.706-.934v-5.462h1.366v7.556h-1.36v-.782c-.271.229-.494.437-.739.614a1.399 1.399 0 0 1-1.058.265c-.344-.051-.595-.229-.674-.574a3.91 3.91 0 0 1-.111-.84c-.009-2.035-.005-4.072-.004-6.107 0-.034.006-.065.013-.131m-1.224 1.62c-.082-.793-.5-1.395-1.294-1.627-.788-.229-1.529-.127-2.126.502-.443.466-.547 1.06-.557 1.666a96.847 96.847 0 0 0 0 3.234c.009.536.1 1.066.432 1.518.477.648 1.317.91 2.182.684.74-.191 1.288-.828 1.367-1.679.065-.708.06-1.425.085-2.146-.026-.711-.015-1.435-.089-2.152m-1.315 3.862a1.855 1.855 0 0 1-.108.568c-.082.246-.274.377-.537.38-.263.004-.463-.124-.542-.37a2.42 2.42 0 0 1-.113-.665c-.016-.543-.005-1.087-.005-1.63s-.005-1.086.003-1.63c.002-.177.022-.356.065-.526.082-.324.287-.484.582-.486.3-.002.497.15.586.478.042.154.07.317.071.478.006 1.132.008 2.267-.002 3.403m1.481 12.437v-2.067c0-.268.187-.465.512-.541.293-.069.547.028.638.3.076.226.117.473.119.711.008 1.143-.003 2.285-.009 3.429 0 .04-.002.081-.007.12-.078.646-.573.861-1.089.459a.47.47 0 0 1-.157-.317c-.015-.699-.007-1.397-.007-2.094"/><circle fill="none" cx="-1" cy="158" r="20"/><path fill="none" d="M10.599 162.408c-.005-1.282-.093-2.559-.342-3.82-.235-1.197-1.077-2.124-2.276-2.296-1.144-.165-2.307-.229-3.463-.272-1.726-.063-3.454-.072-5.181-.104v.034H-2.27a83.874 83.874 0 0 0-6.439.244c-1.461.113-2.56.959-2.828 2.334a17.37 17.37 0 0 0-.303 2.529 55.208 55.208 0 0 0-.052 4.109c.035 1.188.156 2.376.293 3.557.121 1.035.639 1.84 1.591 2.325.513.263 1.076.304 1.631.333 1.796.096 3.593.195 5.392.234 1.653.035 3.31.023 4.963-.021a202.34 202.34 0 0 0 5.56-.257c1.305-.071 2.306-.819 2.62-2.084.221-.89.327-1.817.375-2.735.074-1.368.071-2.741.066-4.11zm-16.093-2.41h-1.625v8.646h-1.516v-8.646h-1.586v-1.43h4.727v1.43zm4.096 8.648h-1.333v-.777c-.21.186-.375.345-.556.484-.376.291-.783.485-1.282.375-.326-.072-.542-.264-.61-.586a3.942 3.942 0 0 1-.102-.793c-.008-2.013-.005-4.024-.004-6.037 0-.049.007-.097.014-.18.411 0 .799.003 1.188-.002.164-.002.153.104.153.212v5.503c0 .057-.003.113.001.17.015.176-.011.41.192.457a.764.764 0 0 0 .519-.104c.307-.194.497-.451.49-.874-.027-1.688-.011-3.376-.011-5.063v-.281h1.342l-.001 7.496zm5.175-1.662a3.947 3.947 0 0 1-.099.844c-.197.832-.954 1.18-1.708.771-.285-.154-.529-.386-.818-.602v.646H-.177c-.005-.084-.016-.17-.016-.254-.001-3.199 0-6.396-.005-9.594 0-.186.041-.26.241-.251.363.015.727.004 1.118.004v3.249c.233-.191.424-.377.64-.523a1.291 1.291 0 0 1 1.137-.182c.542.168.716.623.79 1.123.045.305.059.614.06.922.003 1.284.002 2.566-.011 3.847zm4.737 1.065c-.551.676-1.281.824-2.083.65-.803-.176-1.3-.7-1.475-1.504a4.509 4.509 0 0 1-.096-.891 88.636 88.636 0 0 1 .002-2.871c.007-.345.053-.697.143-1.029.247-.906 1.084-1.405 2.024-1.361.987.046 1.8.707 1.861 1.895.038.728.007 1.457.007 2.222H6.194c.026.616.024 1.213.085 1.805.039.382.323.569.681.546.331-.021.545-.252.567-.637.015-.266.003-.531.003-.814h1.403c.015.698.064 1.396-.419 1.989zm-13.362-13.502h-1.506c-.004-.097-.012-.189-.012-.283-.001-.893-.031-1.785.008-2.677.042-.938-.115-1.839-.41-2.72-.467-1.396-.941-2.789-1.412-4.184-.033-.099-.06-.199-.096-.318.509 0 .996-.006 1.481.009.057.002.14.112.16.187.326 1.178.645 2.357.965 3.537.017.063.039.121.078.245l.507-1.948c.16-.617.317-1.238.488-1.854.019-.067.113-.164.175-.166.453-.015.907-.008 1.399-.008-.062.219-.115.417-.174.612-.531 1.748-1.063 3.496-1.591 5.248-.039.129-.057.27-.058.403-.004 1.201-.002 2.402-.002 3.603v.314zm7.067-7.558h1.367v5.848c0 .081-.005.164.008.243.045.283.213.386.486.304.394-.116.706-.53.706-.934v-5.462h1.366v7.556h-1.36v-.782c-.271.229-.494.437-.739.614a1.399 1.399 0 0 1-1.058.265c-.344-.051-.595-.229-.674-.574a3.91 3.91 0 0 1-.111-.84c-.009-2.035-.005-4.072-.004-6.107 0-.034.006-.065.013-.131m-1.224 1.62c-.082-.793-.5-1.395-1.294-1.627-.788-.229-1.529-.127-2.126.502-.443.466-.547 1.06-.557 1.666a96.847 96.847 0 0 0 0 3.234c.009.536.1 1.066.432 1.518.477.648 1.317.91 2.182.684.74-.191 1.288-.828 1.367-1.679.065-.708.06-1.425.085-2.146-.026-.711-.015-1.435-.089-2.152m-1.315 3.862a1.855 1.855 0 0 1-.108.568c-.082.246-.274.377-.537.38-.263.004-.463-.124-.542-.37a2.42 2.42 0 0 1-.113-.665c-.016-.543-.005-1.087-.005-1.63s-.005-1.086.003-1.63c.002-.177.022-.356.065-.526.082-.324.287-.484.582-.486.3-.002.497.15.586.478.042.154.07.317.071.478.006 1.132.008 2.267-.002 3.403"/><path fill="none" d="M1.161 164.908v-2.067c0-.268.187-.465.512-.541.293-.069.547.028.638.3.076.226.117.473.119.711.008 1.143-.003 2.285-.009 3.429 0 .04-.002.081-.007.12-.078.646-.573.861-1.089.459a.47.47 0 0 1-.157-.317c-.015-.699-.007-1.397-.007-2.094m6.443-.915h-1.41c.027-.406.028-.802.087-1.188.052-.342.294-.52.604-.521.328-.002.574.171.63.521.061.381.06.77.089 1.188"/><circle fill="none" cx="-1" cy="158" r="20"/><path fill="none" d="M10.599 162.408c-.005-1.282-.093-2.559-.342-3.82-.235-1.197-1.077-2.124-2.276-2.296-1.144-.165-2.307-.229-3.463-.272-1.726-.063-3.454-.072-5.181-.104v.034H-2.27a83.874 83.874 0 0 0-6.439.244c-1.461.113-2.56.959-2.828 2.334a17.37 17.37 0 0 0-.303 2.529 55.208 55.208 0 0 0-.052 4.109c.035 1.188.156 2.376.293 3.557.121 1.035.639 1.84 1.591 2.325.513.263 1.076.304 1.631.333 1.796.096 3.593.195 5.392.234 1.653.035 3.31.023 4.963-.021a202.34 202.34 0 0 0 5.56-.257c1.305-.071 2.306-.819 2.62-2.084.221-.89.327-1.817.375-2.735.074-1.368.071-2.741.066-4.11zm-16.093-2.41h-1.625v8.646h-1.516v-8.646h-1.586v-1.43h4.727v1.43zm4.096 8.648h-1.333v-.777c-.21.186-.375.345-.556.484-.376.291-.783.485-1.282.375-.326-.072-.542-.264-.61-.586a3.942 3.942 0 0 1-.102-.793c-.008-2.013-.005-4.024-.004-6.037 0-.049.007-.097.014-.18.411 0 .799.003 1.188-.002.164-.002.153.104.153.212v5.503c0 .057-.003.113.001.17.015.176-.011.41.192.457a.764.764 0 0 0 .519-.104c.307-.194.497-.451.49-.874-.027-1.688-.011-3.376-.011-5.063v-.281h1.342l-.001 7.496zm5.175-1.662a3.947 3.947 0 0 1-.099.844c-.197.832-.954 1.18-1.708.771-.285-.154-.529-.386-.818-.602v.646H-.177c-.005-.084-.016-.17-.016-.254-.001-3.199 0-6.396-.005-9.594 0-.186.041-.26.241-.251.363.015.727.004 1.118.004v3.249c.233-.191.424-.377.64-.523a1.291 1.291 0 0 1 1.137-.182c.542.168.716.623.79 1.123.045.305.059.614.06.922.003 1.284.002 2.566-.011 3.847zm4.737 1.065c-.551.676-1.281.824-2.083.65-.803-.176-1.3-.7-1.475-1.504a4.509 4.509 0 0 1-.096-.891 88.636 88.636 0 0 1 .002-2.871c.007-.345.053-.697.143-1.029.247-.906 1.084-1.405 2.024-1.361.987.046 1.8.707 1.861 1.895.038.728.007 1.457.007 2.222H6.194c.026.616.024 1.213.085 1.805.039.382.323.569.681.546.331-.021.545-.252.567-.637.015-.266.003-.531.003-.814h1.403c.015.698.064 1.396-.419 1.989zm-13.362-13.502h-1.506c-.004-.097-.012-.189-.012-.283-.001-.893-.031-1.785.008-2.677.042-.938-.115-1.839-.41-2.72-.467-1.396-.941-2.789-1.412-4.184-.033-.099-.06-.199-.096-.318.509 0 .996-.006 1.481.009.057.002.14.112.16.187.326 1.178.645 2.357.965 3.537.017.063.039.121.078.245l.507-1.948c.16-.617.317-1.238.488-1.854.019-.067.113-.164.175-.166.453-.015.907-.008 1.399-.008-.062.219-.115.417-.174.612-.531 1.748-1.063 3.496-1.591 5.248-.039.129-.057.27-.058.403-.004 1.201-.002 2.402-.002 3.603v.314zm7.067-7.558h1.367v5.848c0 .081-.005.164.008.243.045.283.213.386.486.304.394-.116.706-.53.706-.934v-5.462h1.366v7.556h-1.36v-.782c-.271.229-.494.437-.739.614a1.399 1.399 0 0 1-1.058.265c-.344-.051-.595-.229-.674-.574a3.91 3.91 0 0 1-.111-.84c-.009-2.035-.005-4.072-.004-6.107 0-.034.006-.065.013-.131m-1.224 1.62c-.082-.793-.5-1.395-1.294-1.627-.788-.229-1.529-.127-2.126.502-.443.466-.547 1.06-.557 1.666a96.847 96.847 0 0 0 0 3.234c.009.536.1 1.066.432 1.518.477.648 1.317.91 2.182.684.74-.191 1.288-.828 1.367-1.679.065-.708.06-1.425.085-2.146-.026-.711-.015-1.435-.089-2.152m-1.315 3.862a1.855 1.855 0 0 1-.108.568c-.082.246-.274.377-.537.38-.263.004-.463-.124-.542-.37a2.42 2.42 0 0 1-.113-.665c-.016-.543-.005-1.087-.005-1.63s-.005-1.086.003-1.63c.002-.177.022-.356.065-.526.082-.324.287-.484.582-.486.3-.002.497.15.586.478.042.154.07.317.071.478.006 1.132.008 2.267-.002 3.403"/><path fill="none" d="M1.161 164.908v-2.067c0-.268.187-.465.512-.541.293-.069.547.028.638.3.076.226.117.473.119.711.008 1.143-.003 2.285-.009 3.429 0 .04-.002.081-.007.12-.078.646-.573.861-1.089.459a.47.47 0 0 1-.157-.317c-.015-.699-.007-1.397-.007-2.094m6.443-.915h-1.41c.027-.406.028-.802.087-1.188.052-.342.294-.52.604-.521.328-.002.574.171.63.521.061.381.06.77.089 1.188M-349-483.489H675v469H-349z"/><path fill="none" d="M-389-483.489H635v469H-389z"/><path fill="#FCFAFA" d="M31.6 24.783c-.006-1.282-.094-2.559-.343-3.82-.235-1.198-1.077-2.124-2.276-2.296-1.144-.165-2.307-.229-3.463-.272-1.726-.064-3.453-.073-5.181-.105l-.001.034H18.73a83.37 83.37 0 0 0-6.439.245c-1.461.113-2.56.959-2.827 2.333a17.37 17.37 0 0 0-.303 2.529 55.242 55.242 0 0 0-.052 4.11c.034 1.188.155 2.376.293 3.557.12 1.035.639 1.84 1.591 2.325.513.263 1.076.304 1.631.333 1.796.096 3.593.195 5.392.234a103.9 103.9 0 0 0 4.962-.021c1.854-.052 3.709-.154 5.562-.257 1.306-.071 2.308-.819 2.62-2.084.221-.889.326-1.817.376-2.735.071-1.368.068-2.741.064-4.11zm-16.094-2.41h-1.624v8.646h-1.517v-8.646h-1.586v-1.43h4.727v1.43zm4.096 8.648h-1.334v-.777c-.209.186-.375.345-.555.484-.377.291-.783.485-1.283.375-.326-.072-.541-.264-.609-.586a3.942 3.942 0 0 1-.102-.793c-.008-2.013-.005-4.024-.004-6.037 0-.049.007-.097.014-.18.411 0 .799.003 1.188-.002.164-.002.153.104.152.212v5.503c0 .057-.004.113.002.17.015.176-.012.41.191.457a.768.768 0 0 0 .52-.104c.307-.194.496-.451.49-.874-.027-1.688-.012-3.376-.012-5.063v-.281h1.342v7.496zm5.175-1.662a3.887 3.887 0 0 1-.101.844c-.196.832-.952 1.18-1.708.771-.285-.154-.529-.386-.818-.602v.646h-1.328c-.006-.084-.016-.17-.016-.254-.002-3.199 0-6.396-.006-9.594 0-.186.04-.26.241-.251.362.015.728.004 1.118.004v3.249c.232-.191.424-.377.64-.523a1.294 1.294 0 0 1 1.138-.182c.543.168.717.623.789 1.123.045.305.061.614.061.922.004 1.284.003 2.566-.01 3.847zm4.737 1.065c-.551.676-1.279.824-2.082.65-.803-.176-1.3-.7-1.475-1.504a4.509 4.509 0 0 1-.096-.891 85.867 85.867 0 0 1 .002-2.871c.007-.345.053-.697.143-1.029.247-.906 1.085-1.405 2.025-1.361.986.046 1.8.707 1.859 1.895.039.728.008 1.457.008 2.222h-2.705c.025.616.024 1.213.086 1.805.039.382.322.569.681.546.331-.021.546-.252.567-.637.015-.266.002-.531.002-.814h1.404c.015.698.063 1.396-.419 1.989zM16.152 16.922h-1.506c-.004-.097-.012-.189-.012-.283-.002-.893-.031-1.786.008-2.677.041-.939-.115-1.839-.41-2.72-.467-1.396-.941-2.789-1.412-4.184-.033-.097-.06-.198-.095-.318.509 0 .995-.006 1.48.009.057.002.141.112.16.187.326 1.178.645 2.357.965 3.537.018.062.039.121.078.245l.508-1.948c.16-.618.316-1.239.487-1.855.019-.068.112-.164.175-.166.453-.015.907-.008 1.398-.008-.062.219-.115.417-.174.612-.531 1.749-1.063 3.497-1.591 5.248-.039.129-.057.27-.058.404-.004 1.201-.002 2.402-.002 3.603l.001.314zm7.067-7.558h1.367v5.848c0 .081-.006.164.008.243.045.283.213.386.486.304.395-.117.705-.53.705-.934l.001-5.16v-.301h1.366v7.555h-1.36v-.782c-.271.228-.494.436-.739.614a1.401 1.401 0 0 1-1.059.265c-.344-.051-.594-.229-.674-.574a3.855 3.855 0 0 1-.11-.84c-.009-2.036-.005-4.072-.004-6.108 0-.033.006-.065.013-.13m-1.224 1.621c-.082-.794-.5-1.395-1.294-1.627-.787-.23-1.529-.127-2.126.501-.443.466-.547 1.06-.558 1.666a96.907 96.907 0 0 0 0 3.235c.01.536.101 1.066.432 1.517.478.649 1.318.91 2.182.684.74-.192 1.289-.828 1.367-1.679.064-.708.061-1.424.086-2.145-.025-.712-.016-1.436-.089-2.152m-1.315 3.86c0 .19-.047.387-.106.569-.082.246-.274.377-.537.38-.264.004-.463-.124-.542-.37a2.505 2.505 0 0 1-.113-.665c-.017-.543-.005-1.087-.005-1.63s-.006-1.086.002-1.63c.003-.177.022-.356.066-.527.081-.324.287-.484.582-.485.3-.002.496.149.585.477.043.154.07.317.07.478.006 1.133.007 2.268-.002 3.403"/><path fill="#F9F7F7" d="M22.16 27.283v-2.067c0-.268.188-.465.513-.541.293-.069.548.028.638.3.076.226.117.473.119.711.008 1.143-.004 2.285-.01 3.429 0 .04-.002.081-.006.12-.078.646-.574.861-1.09.459a.46.46 0 0 1-.156-.317c-.016-.699-.008-1.397-.008-2.094"/><path fill="#FFF" d="M28.604 26.368h-1.41c.027-.406.029-.802.089-1.188.053-.342.295-.52.604-.521.327-.002.573.171.629.521.06.381.059.77.088 1.188"/></svg>