<?xml version="1.0" encoding="utf-8"?>
<!-- Generator: Adobe Illustrator 16.0.0, SVG Export Plug-In . SVG Version: 6.00 Build 0)  -->
<!DOCTYPE svg PUBLIC "-//W3C//DTD SVG 1.1//EN" "http://www.w3.org/Graphics/SVG/1.1/DTD/svg11.dtd">
<svg version="1.1" id="圖層_1" xmlns="http://www.w3.org/2000/svg" xmlns:xlink="http://www.w3.org/1999/xlink" x="0px" y="0px"
	 width="202.5px" height="62.855px" viewBox="0 0 202.5 62.855" enable-background="new 0 0 202.5 62.855" xml:space="preserve">
<g>
	<defs>
		<path id="SVGID_1_" d="M59.551,56.511v1.427h1.427v2.736c-0.468,0.261-0.947,0.521-1.427,0.753
			c0.323,0.454,0.647,0.946,0.973,1.479c0.44-0.519,0.868-1.024,1.309-1.531c0.571,0.481,1.142,0.805,1.726,0.961
			c0.817,0.208,1.905,0.312,3.267,0.312H70.6c0.156-0.61,0.378-1.155,0.662-1.673c-0.855,0.181-1.88,0.26-3.074,0.26
			c-2.087,0-3.397-0.039-3.917-0.144c-0.711-0.053-1.335-0.271-1.88-0.676v-3.903H59.551z M62.391,56.511L62.391,56.511
			L62.391,56.511z M59.551,54.333c0.546,0.389,1.064,0.868,1.57,1.426l0.972-1.219c-0.48-0.467-0.997-0.87-1.569-1.22L59.551,54.333
			z M64.778,57.17h1.362v0.365h-1.362V57.17z M67.513,57.17h1.311v0.365h-1.311V57.17z M64.778,55.758h1.362v0.351h-1.362V55.758z
			 M67.513,55.758h1.311v0.351h-1.311V55.758z M64.065,52.619h2.075v0.507h-2.075V52.619z M67.513,52.619h2.18v0.507h-2.18V52.619z
			 M60.368,52.204c0.52,0.391,1.025,0.869,1.519,1.427l0.856-1.09v1.039h0.92v0.714h2.478v0.35h-2.685v4.009h2.685v0.507h-3.14
			v1.153h3.14v0.713h1.374v-0.713h3.191v-1.153h-3.191v-0.507h2.634v-4.008h-2.634v-0.35h2.374v-0.714h1.114v-2.179h-8.261v0.905
			c-0.429-0.415-0.895-0.778-1.413-1.114L60.368,52.204z"/>
	</defs>
	<clipPath id="SVGID_2_">
		<use xlink:href="#SVGID_1_"  overflow="visible"/>
	</clipPath>
	<rect x="54.551" y="46.193" clip-path="url(#SVGID_2_)" fill="#555555" width="21.711" height="21.713"/>
</g>
<g>
	<defs>
		<path id="SVGID_3_" d="M74.083,57.483h1.115v0.351h-1.115V57.483z M76.574,57.483h1.062v0.351h-1.062V57.483z M74.083,55.955
			h1.115v0.363h-1.115V55.955z M76.574,55.954h1.062v0.363h-1.062V55.954z M72.568,51.609l0.454,1.207
			c0.739-0.039,1.467-0.093,2.179-0.157v0.468h-2.684v1.257h2.684v0.312h-2.478v4.411h2.478v0.402h-2.478v1.218h2.478v0.469
			c-0.817,0.038-1.698,0.063-2.633,0.09l0.261,1.412c2.23-0.141,4.252-0.311,6.069-0.504l-0.038-0.247l0.803,0.805
			c0.765-0.753,1.349-1.7,1.737-2.841c0.429-1.297,0.675-2.971,0.728-5.021h0.621c-0.012,1.973-0.078,3.813-0.207,5.525
			c-0.052,0.505-0.105,0.804-0.17,0.909c-0.077,0.143-0.168,0.207-0.271,0.207c-0.312,0-0.702-0.078-1.169-0.247l0.144,1.413
			c0.388,0.104,0.726,0.155,1.024,0.155c0.401,0,0.765-0.115,1.076-0.335c0.286-0.249,0.48-0.571,0.557-0.974
			c0.274-1.79,0.417-4.462,0.441-8.016h-2.035v-2.335h-1.517v2.335h-1.207v1.361h1.193c-0.064,1.765-0.248,3.14-0.559,4.125
			c-0.296,0.985-0.725,1.804-1.271,2.465L78.7,61.024c-0.647,0.039-1.347,0.078-2.126,0.116v-0.414h2.179v-1.218h-2.179v-0.402
			h2.425v-4.411h-2.425v-0.312h2.581v-1.257h-2.581v-0.585c0.894-0.078,1.751-0.181,2.581-0.284l-0.608-1.168
			C76.718,51.323,74.721,51.492,72.568,51.609"/>
	</defs>
	<clipPath id="SVGID_4_">
		<use xlink:href="#SVGID_3_"  overflow="visible"/>
	</clipPath>
	<rect x="67.518" y="46.089" clip-path="url(#SVGID_4_)" fill="#555555" width="21.656" height="21.763"/>
</g>
<g>
	<defs>
		<path id="SVGID_5_" d="M94.141,55.954V54.19H95.1v2.321h-0.974C94.126,56.329,94.141,56.148,94.141,55.954 M86.011,52.84
			c-0.195,0.493-0.416,0.985-0.676,1.453l1.116,0.855c0.285-0.467,0.533-0.973,0.738-1.519h0.365v1.622h-2.075v1.362h2.075v3.658
			h-0.558v-2.996h-1.312V62.4h1.312v-0.766h3.578c-0.077,0.077-0.155,0.167-0.233,0.259l1.22,0.961
			c0.727-0.728,1.336-1.636,1.802-2.775c0.169-0.403,0.312-0.83,0.429-1.297c0.234,0.776,0.532,1.452,0.881,2.021
			c0.546,0.909,1.193,1.598,1.958,2.052l0.752-1.481c-0.675-0.361-1.22-0.893-1.635-1.594c-0.336-0.531-0.608-1.168-0.79-1.895
			h2.322v-1.374h-0.751v-3.749h-2.387v-1.568h-1.466v1.568h-1.413v1.428h1.413v1.764c0,0.182-0.013,0.376-0.013,0.558h-1.66v1.374
			h1.465c-0.078,0.402-0.194,0.805-0.336,1.193c-0.311,0.83-0.752,1.596-1.336,2.295v-4.097h-1.309v2.996h-0.56v-3.658h1.921v-1.363
			h-1.921V53.63h1.725v-1.373H87.67c0.051-0.194,0.116-0.415,0.193-0.648l-1.32-0.468C86.413,51.687,86.245,52.257,86.011,52.84"/>
	</defs>
	<clipPath id="SVGID_6_">
		<use xlink:href="#SVGID_5_"  overflow="visible"/>
	</clipPath>
	<rect x="80.336" y="46.141" clip-path="url(#SVGID_6_)" fill="#555555" width="22.048" height="21.714"/>
</g>
<rect x="98.855" y="55.862" fill="#555555" width="10.792" height="1.519"/>
<g>
	<defs>
		<path id="SVGID_7_" d="M120.677,53.982h0.868v5.979h-0.868V53.982z M119.315,52.62v9.676h1.36v-0.96h0.869v0.752h1.362V52.62
			H119.315z M117.693,54.54c-0.028,1.971-0.092,3.813-0.209,5.511c-0.051,0.507-0.115,0.818-0.181,0.923
			c-0.065,0.143-0.155,0.206-0.272,0.206c-0.285,0-0.634-0.063-1.025-0.193c0.234-0.52,0.429-1.089,0.598-1.711
			c0.26-0.987,0.469-2.558,0.598-4.735H117.693 M112.919,53.424h0.559v5.979h-0.559V53.424z M115.917,51.14
			c-0.028,0.727-0.053,1.399-0.079,2.036h-0.83v1.361h0.766c-0.117,1.843-0.284,3.193-0.492,4.021
			c-0.117,0.455-0.259,0.896-0.431,1.324v-7.82h-3.292v9.31h1.36v-0.595h1.531c-0.208,0.413-0.453,0.789-0.714,1.152l1.168,0.974
			c0.286-0.403,0.559-0.844,0.817-1.336l0.089,0.869c0.468,0.129,0.869,0.206,1.221,0.206c0.402,0,0.752-0.116,1.051-0.337
			c0.286-0.258,0.467-0.583,0.544-0.998c0.26-1.815,0.404-4.525,0.428-8.132h-1.79c0.026-0.622,0.04-1.31,0.065-2.036H115.917z"/>
	</defs>
	<clipPath id="SVGID_8_">
		<use xlink:href="#SVGID_7_"  overflow="visible"/>
	</clipPath>
	<rect x="106.559" y="46.139" clip-path="url(#SVGID_8_)" fill="#555555" width="21.349" height="21.765"/>
</g>
<g>
	<defs>
		<path id="SVGID_9_" d="M129.27,55.72v1.855h0.946c-0.311,0.414-0.662,0.685-1.051,0.842l0.494,0.842
			c1.062-0.544,1.594-1.296,1.596-2.243V55.72H129.27z"/>
	</defs>
	<clipPath id="SVGID_10_">
		<use xlink:href="#SVGID_9_"  overflow="visible"/>
	</clipPath>
	<rect x="124.166" y="50.72" clip-path="url(#SVGID_10_)" fill="#555555" width="12.09" height="13.539"/>
</g>
<g>
	<defs>
		<path id="SVGID_11_" d="M144.229,56.823l1.154,0.401c0.206-1.037,0.338-2.205,0.416-3.488l-1.271-0.209
			C144.475,54.748,144.372,55.848,144.229,56.823 M140.519,51.855l0.468,1.271c0.298-0.039,0.596-0.091,0.906-0.143v1.311h-1.011
			v1.361h0.959c-0.194,0.609-0.428,1.182-0.688,1.713c-0.4,0.855-0.777,1.517-1.142,1.983l0.87,1.064
			c0.376-0.57,0.713-1.194,1.011-1.894v4.383h1.31V58.12c0.233,0.286,0.469,0.598,0.715,0.934l0.817-1.167
			c-0.44-0.467-0.96-0.932-1.53-1.414v-0.816h1.024v-1.361h-1.024v-1.558c0.454-0.091,0.895-0.194,1.323-0.324l-0.61-1.218
			C142.879,51.48,141.737,51.699,140.519,51.855 M145.942,51.195v3.022c-0.027,2.177-0.235,3.853-0.599,4.992
			c-0.361,1.116-0.869,2.024-1.529,2.724l0.972,0.973c0.765-0.778,1.337-1.726,1.727-2.893c0.012-0.052,0.026-0.104,0.052-0.168
			c0.064,0.311,0.143,0.583,0.221,0.829c0.232,0.805,0.582,1.529,1.036,2.23l1.22-1.166c-0.688-0.831-1.179-1.777-1.465-2.854
			c-0.183-0.57-0.324-1.246-0.454-1.998c0.012-0.103,0.024-0.22,0.039-0.35l0.959,0.532c0.375-0.909,0.687-1.998,0.921-3.281
			l-1.22-0.416c-0.155,0.845-0.362,1.621-0.597,2.334c0.014-0.414,0.025-0.842,0.038-1.31v-3.201H145.942z M138.445,51.194v2.178
			h-0.959v1.427h0.96v2.205c-0.378,0.117-0.768,0.221-1.168,0.324l0.506,1.466c0.22-0.077,0.44-0.155,0.662-0.247v2.128
			c0,0.284-0.027,0.505-0.053,0.648c-0.04,0.104-0.104,0.156-0.194,0.156c-0.298,0-0.583-0.04-0.869-0.144l0.259,1.466
			c0.246,0.065,0.52,0.104,0.805,0.104c0.57,0,0.959-0.155,1.192-0.441c0.182-0.26,0.286-0.739,0.286-1.44v-3.088
			c0.297-0.128,0.596-0.282,0.907-0.452l-0.208-1.22c-0.232,0.105-0.466,0.195-0.7,0.273v-1.738h0.855v-1.427h-0.855v-2.178H138.445
			z M147.263,51.195L147.263,51.195L147.263,51.195z"/>
	</defs>
	<clipPath id="SVGID_12_">
		<use xlink:href="#SVGID_11_"  overflow="visible"/>
	</clipPath>
	<rect x="132.278" y="46.193" clip-path="url(#SVGID_12_)" fill="#555555" width="21.763" height="21.713"/>
</g>
<g>
	<defs>
		<path id="SVGID_13_" d="M151.626,55.976c-0.283,0.612-0.634,1.194-1.023,1.754l1.167,0.866c0.39-0.505,0.739-1.048,1.052-1.646
			c0.31,0.311,0.623,0.662,0.921,1.038l1.115-1.22c-0.428-0.441-0.883-0.843-1.375-1.231c0.13-0.312,0.26-0.688,0.415-1.103
			l-1.479-0.508C152.236,54.604,151.965,55.278,151.626,55.976 M158.307,55.55c-0.259,0.493-0.568,0.96-0.921,1.426l1.169,0.857
			c0.271-0.337,0.518-0.688,0.75-1.076c0.443,0.336,0.857,0.738,1.272,1.18l1.063-1.168c-0.519-0.479-1.063-0.921-1.646-1.336
			c0.13-0.322,0.286-0.687,0.44-1.101l-1.427-0.455C158.839,54.422,158.606,54.98,158.307,55.55 M155.468,51.194v1.063v0.001v-0.001
			h-4.67v1.427h4.67V56.9c-0.571,0.727-1.22,1.4-1.959,2.023c-0.921,0.829-2.023,1.53-3.319,2.102l0.764,1.321
			c0.894-0.375,1.868-0.982,2.918-1.84c0.572-0.467,1.104-0.985,1.597-1.568v3.917h1.464v-3.866c0.571,0.7,1.143,1.26,1.715,1.674
			c0.854,0.647,1.736,1.14,2.645,1.529l0.803-1.518c-1.231-0.441-2.296-1.051-3.204-1.814c-0.764-0.638-1.412-1.324-1.958-2.051
			v-3.125h4.515v-1.427h-4.515v-1.063H155.468z"/>
	</defs>
	<clipPath id="SVGID_14_">
		<use xlink:href="#SVGID_13_"  overflow="visible"/>
	</clipPath>
	<rect x="145.189" y="46.194" clip-path="url(#SVGID_14_)" fill="#555555" width="21.905" height="21.661"/>
</g>
<g>
	<defs>
		<path id="SVGID_15_" d="M170.349,55.915h1.063v1.309h-1.063V55.915z M165.189,52.917h1.619v1.83h-1.619V52.917z M168.689,53.086
			c-0.131,0.247-0.285,0.494-0.467,0.753v-2.283h-4.462v4.553h1.778v4.654c-0.155,0.026-0.299,0.055-0.455,0.079V57.17h-1.414v3.892
			c-0.155,0.026-0.31,0.039-0.466,0.066l0.506,1.465c1.791-0.326,3.412-0.701,4.864-1.116l-0.195-1.258
			c-0.467,0.105-0.934,0.194-1.427,0.286v-1.814h1.218v-1.364h-1.218v-1.218h1.271V55.46l0.352,0.35
			c0.103-0.104,0.207-0.205,0.311-0.337v5.656c0,0.855,0.414,1.31,1.258,1.36c0.181,0.104,0.752,0.156,1.725,0.156
			c0.922,0,1.596-0.039,2.023-0.091c0.389-0.065,0.648-0.221,0.779-0.454c0.195-0.39,0.323-0.791,0.389-1.232l-1.466-0.648
			c-0.078,0.52-0.183,0.816-0.312,0.909c-0.104,0.064-0.246,0.103-0.441,0.116c-0.182,0.025-0.505,0.038-0.973,0.038
			c-0.465,0-0.844-0.038-1.142-0.13c-0.259-0.053-0.376-0.208-0.376-0.481v-2.074h2.529v-4.061h-3.295
			c0.13-0.206,0.259-0.427,0.389-0.66c0.026-0.038,0.054-0.09,0.078-0.144h3.438c-0.039,2.697-0.091,4.24-0.155,4.606
			c-0.052,0.311-0.155,0.452-0.298,0.452c-0.351,0-0.766-0.025-1.258-0.102l0.298,1.426c0.428,0.039,0.804,0.052,1.115,0.052
			c0.597,0,1.011-0.245,1.26-0.765c0.31-0.415,0.465-2.75,0.465-6.992h-4.254c0.103-0.259,0.207-0.519,0.297-0.803l-1.412-0.415
			C169.313,51.855,169.026,52.491,168.689,53.086"/>
	</defs>
	<clipPath id="SVGID_16_">
		<use xlink:href="#SVGID_15_"  overflow="visible"/>
	</clipPath>
	<rect x="158.204" y="46.194" clip-path="url(#SVGID_16_)" fill="#555555" width="21.854" height="21.452"/>
</g>
<g>
	<defs>
		<path id="SVGID_17_" d="M185.493,53.982h0.868v5.979h-0.868V53.982z M184.13,52.62v9.676h1.361v-0.96h0.868v0.752h1.362V52.62
			H184.13z M182.507,54.54c-0.026,1.971-0.09,3.813-0.208,5.511c-0.051,0.507-0.117,0.818-0.181,0.923
			c-0.065,0.143-0.156,0.206-0.272,0.206c-0.285,0-0.635-0.063-1.023-0.193c0.232-0.52,0.428-1.089,0.596-1.711
			c0.26-0.987,0.467-2.558,0.597-4.735H182.507 M177.735,53.424h0.558v5.979h-0.558V53.424z M180.732,51.14
			c-0.028,0.727-0.055,1.399-0.078,2.036h-0.83v1.361h0.765c-0.118,1.843-0.286,3.193-0.494,4.021
			c-0.116,0.455-0.259,0.896-0.427,1.324v-7.82h-3.294v9.31h1.361v-0.595h1.529c-0.208,0.413-0.454,0.789-0.714,1.152l1.168,0.974
			c0.286-0.403,0.559-0.844,0.817-1.336l0.09,0.869c0.467,0.129,0.87,0.206,1.22,0.206c0.402,0,0.752-0.116,1.051-0.337
			c0.285-0.258,0.468-0.583,0.545-0.998c0.26-1.815,0.402-4.525,0.429-8.132h-1.789c0.024-0.622,0.037-1.31,0.063-2.036H180.732z"/>
	</defs>
	<clipPath id="SVGID_18_">
		<use xlink:href="#SVGID_17_"  overflow="visible"/>
	</clipPath>
	<rect x="171.373" y="46.139" clip-path="url(#SVGID_18_)" fill="#555555" width="21.348" height="21.765"/>
</g>
<g>
	<defs>
		<path id="SVGID_19_" d="M198.456,53.982h0.868v5.979h-0.868V53.982z M197.093,52.62v9.676h1.36v-0.96h0.869v0.752h1.362V52.62
			H197.093z M195.471,54.54c-0.027,1.971-0.091,3.813-0.209,5.511c-0.05,0.507-0.115,0.818-0.18,0.923
			c-0.066,0.143-0.157,0.206-0.273,0.206c-0.284,0-0.635-0.063-1.024-0.193c0.232-0.52,0.43-1.089,0.598-1.711
			c0.259-0.987,0.466-2.558,0.596-4.735H195.471 M190.697,53.424h0.559v5.979h-0.559V53.424z M193.694,51.14
			c-0.027,0.727-0.054,1.399-0.077,2.036h-0.831v1.361h0.765c-0.118,1.843-0.285,3.193-0.492,4.021
			c-0.116,0.455-0.259,0.896-0.429,1.324v-7.82h-3.293v9.31h1.36v-0.595h1.53c-0.209,0.413-0.452,0.789-0.714,1.152l1.168,0.974
			c0.286-0.403,0.559-0.844,0.817-1.336l0.09,0.869c0.468,0.129,0.869,0.206,1.22,0.206c0.403,0,0.752-0.116,1.052-0.337
			c0.286-0.258,0.467-0.583,0.545-0.998c0.259-1.815,0.401-4.525,0.428-8.132h-1.79c0.025-0.622,0.039-1.31,0.063-2.036H193.694z"/>
	</defs>
	<clipPath id="SVGID_20_">
		<use xlink:href="#SVGID_19_"  overflow="visible"/>
	</clipPath>
	<rect x="184.336" y="46.139" clip-path="url(#SVGID_20_)" fill="#555555" width="21.348" height="21.765"/>
</g>
<g>
	<defs>
		<rect id="SVGID_21_" x="-4.375" y="-8.334" width="208" height="80"/>
	</defs>
	<clipPath id="SVGID_22_">
		<use xlink:href="#SVGID_21_"  overflow="visible"/>
	</clipPath>
	<path clip-path="url(#SVGID_22_)" fill="#72C4B3" d="M137.937,16.023c-0.168,0.48-0.408,0.96-0.744,1.44
		c-0.359,0.432-0.744,0.816-1.151,1.104c-0.097,0.048-0.145,0.096-0.192,0.12c0.048,0.144,0.072,0.288,0.12,0.432
		c0.096,1.153,0.144,2.137,0.191,3.001c0,0.24,0.024,0.432,0.024,0.6c0.024,0,0.048,0,0.072-0.024
		c0.72-0.432,1.368-1.008,1.92-1.776h0.288c0.24,0,0.432,0.12,0.576,0.336c0.048,0.12,0.071,0.24,0.119,0.336
		c0,0.288-0.119,0.528-0.336,0.696c-0.432,0.624-1.128,1.272-2.136,1.944c-0.168,0.096-0.312,0.168-0.456,0.216
		c0.048,1.008,0.096,1.872,0.12,2.592c0,0.432,0,0.816,0.024,1.104c0.768-0.408,1.487-0.864,2.159-1.368
		c0.097,0,0.217-0.024,0.313-0.024c0.24,0,0.432,0.12,0.576,0.312c0.048,0.12,0.072,0.24,0.096,0.36c0,0.288-0.12,0.528-0.312,0.672
		c-1.009,0.96-2.688,1.968-5.04,3.025c-0.864,0.288-1.681,0.48-2.4,0.576c-0.336,0-0.576-0.12-0.768-0.336
		c-0.217-0.216-0.336-0.457-0.336-0.745c0-0.432,0.168-0.672,0.552-0.72l0.792-0.144v-0.12c0-0.336,0-0.696,0.023-1.104v-0.84
		c0-1.08-0.12-1.92-0.336-2.544c-0.144-0.336-0.216-0.576-0.216-0.744c0-0.336,0.096-0.6,0.288-0.768
		c0.096-0.096,0.288-0.168,0.528-0.192c0.191,0,0.384,0.072,0.527,0.192c0.168,0.144,0.313,0.36,0.456,0.6
		c0.265,0.816,0.408,1.824,0.408,3.024c0,0.48-0.048,0.984-0.12,1.512c-0.048,0.216-0.071,0.408-0.096,0.576
		c0.096,0,0.168-0.024,0.264-0.072c0.48-0.144,0.912-0.312,1.345-0.504c-0.024-0.216-0.049-0.456-0.049-0.744
		c-0.048-1.176-0.144-2.424-0.239-3.72c-0.072-0.912-0.217-2.472-0.433-4.632v-0.048c-0.191,0.12-0.384,0.216-0.576,0.288
		c-0.119,0.288-0.312,0.432-0.6,0.432c-0.432,0-0.672-0.216-0.696-0.648c-0.048-0.673-0.216-1.537-0.456-2.569
		c-0.407-1.488-0.768-2.736-1.056-3.72c0.024-0.192,0.12-0.36,0.264-0.528c0.145-0.192,0.313-0.312,0.528-0.312
		c0.192,0,0.336,0.024,0.48,0.048c0.239,0.12,0.407,0.288,0.504,0.528c0.048,0.192,0.12,0.384,0.168,0.6
		c0.384-0.144,1.008-0.24,1.872-0.264c0.863,0.024,1.607,0.168,2.208,0.456c0.72,0.36,1.104,0.768,1.104,1.248
		C138.104,15.423,138.032,15.687,137.937,16.023 M134.289,17.775c0.479-0.24,0.936-0.504,1.367-0.768
		c0.097-0.144,0.217-0.288,0.336-0.432c0.288-0.432,0.456-0.696,0.456-0.792c-0.312-0.336-0.84-0.504-1.584-0.504
		c-0.479,0-0.983,0.048-1.56,0.096c0.048,0.216,0.072,0.432,0.12,0.648c0.144,0.816,0.264,1.488,0.336,2.016
		C133.977,17.943,134.145,17.847,134.289,17.775 M146.098,21.928c0,0.096-0.024,0.192-0.024,0.288
		c-0.071,0.168-0.168,0.288-0.312,0.36c-0.336,0.432-0.816,0.84-1.393,1.224c-0.815,0.504-1.56,0.864-2.28,1.104
		c-0.097,0.84-0.145,1.584-0.145,2.232c0.048,1.608,0.745,2.784,2.041,3.6c0.96,0.553,2.088,0.865,3.384,0.913
		c1.608,0,2.736-0.24,3.385-0.697c0.527-0.48,0.912-1.104,1.128-1.824c0.096-0.384,0.144-0.792,0.144-1.224
		c-0.096-1.344-0.216-2.568-0.359-3.72c0-0.384,0.168-0.576,0.504-0.624c0.432,0,0.695,0.216,0.84,0.624
		c0.336,1.032,0.504,2.328,0.504,3.864c0,1.2-0.216,2.136-0.624,2.856c-0.624,0.889-1.536,1.561-2.736,1.993
		c-0.96,0.288-1.943,0.432-3,0.456c-1.2,0-2.328-0.24-3.359-0.672c-1.2-0.601-2.138-1.464-2.81-2.569
		c-0.432-0.816-0.647-1.728-0.647-2.688c0-1.512,0.071-3.12,0.264-4.824c0.072-1.056,0.168-1.896,0.312-2.52
		c-0.168,0-0.287-0.072-0.384-0.168c-0.191-0.144-0.288-0.36-0.312-0.649c0-0.36,0.168-0.624,0.527-0.768
		c0.192-0.072,0.433-0.144,0.721-0.192c0.552-0.144,1.177-0.216,1.873-0.216c0.96,0,1.68,0.096,2.16,0.288
		c0.695,0.312,1.056,0.864,1.056,1.633c-0.072,0.624-0.288,1.2-0.648,1.728C146.002,21.808,146.073,21.88,146.098,21.928
		 M146.722,24.448c-0.288-0.024-0.432-0.216-0.432-0.576c0-0.096,0.096-0.312,0.287-0.624c0.192-0.504,0.408-1.056,0.648-1.68
		c0.696-2.281,1.176-4.273,1.416-5.977c0.096-0.864,0.144-1.56,0.168-2.088c-1.968,0.864-3.528,1.296-4.704,1.296
		c-0.216,0-0.432,0-0.624-0.024c-0.6-0.096-1.032-0.456-1.32-1.08c-0.24-0.528-0.36-1.248-0.36-2.112c0-0.336,0.096-0.6,0.337-0.768
		c0.144-0.192,0.36-0.288,0.672-0.288c0.144,0,0.288,0.024,0.408,0.048c0.216,0.168,0.336,0.384,0.336,0.624
		c-0.024,0.672-0.024,1.2-0.024,1.536c0.024,0.312,0.24,0.456,0.648,0.456c0.384,0,0.983-0.144,1.775-0.432
		c1.272-0.528,2.137-0.888,2.616-1.056c0.36-0.096,0.769-0.168,1.225-0.168c0.527,0.048,0.792,0.432,0.792,1.2
		c0,1.44-0.145,2.832-0.408,4.2c-0.456,2.472-1.272,4.825-2.424,7.033C147.514,24.304,147.178,24.448,146.722,24.448
		 M142.617,19.888c0,0.216-0.023,0.432-0.023,0.672c-0.096,0.576-0.168,1.248-0.264,2.016c-0.049,0.24-0.072,0.48-0.072,0.696
		c0.336-0.144,0.792-0.336,1.319-0.6c0.744-1.104,1.129-1.944,1.129-2.544c-0.049-0.264-0.456-0.408-1.248-0.408
		c-0.217,0-0.48,0.024-0.769,0.072h-0.096L142.617,19.888z M162.32,20.704c-0.12,0.528-0.288,1.056-0.527,1.536
		c0.119,0.048,0.216,0.144,0.288,0.24c0.023,0.072,0.048,0.144,0.048,0.24c-0.024,0.192-0.097,0.384-0.24,0.576
		c-0.528,0.576-1.224,1.104-2.04,1.632c-0.96,0.648-1.872,1.128-2.736,1.464c-0.168,0.072-0.288,0.096-0.359,0.096
		c-0.192,0-0.36-0.096-0.504-0.336c-0.145-0.168-0.217-0.432-0.217-0.768c0-0.264,0.145-0.456,0.433-0.576
		c-0.048-0.672-0.168-1.464-0.336-2.4c-0.336-1.56-0.602-2.856-0.842-3.889c0.024-0.144,0.12-0.312,0.265-0.48
		c0.145-0.192,0.313-0.312,0.505-0.312s0.36,0.024,0.479,0.048c0.24,0.12,0.408,0.288,0.505,0.504
		c0.504-0.12,1.296-0.192,2.399-0.216c0.792,0.024,1.464,0.168,2.017,0.408c0.647,0.336,0.983,0.744,0.983,1.201
		C162.44,19.96,162.393,20.32,162.32,20.704 M157.977,24.16c0.48-0.216,0.912-0.432,1.344-0.672c0.048-0.024,0.097-0.072,0.145-0.12
		c0.288-0.384,0.6-0.984,0.888-1.752c0.24-0.72,0.384-1.152,0.384-1.296c-0.239-0.408-0.647-0.624-1.224-0.624
		c-0.672,0-1.393,0.024-2.185,0.048c0.049,0.456,0.12,0.984,0.217,1.56c0.191,1.296,0.288,2.256,0.336,2.904
		C157.904,24.208,157.929,24.184,157.977,24.16 M162.488,17.487c-0.144-0.168-0.216-0.336-0.216-0.504
		c0-0.432,0.192-0.744,0.576-0.888c0.216-0.072,0.72-0.216,1.488-0.408c0.071,0,0.144-0.024,0.216-0.048
		c0.072-0.864,0.12-1.752,0.168-2.688v-0.72c0-0.6,0.336-0.912,1.008-0.912c0.576,0,0.864,0.264,0.912,0.768v0.768
		c-0.024,0.792-0.072,1.56-0.144,2.328c1.2-0.24,1.944-0.36,2.232-0.36c0.792,0,1.224,0.456,1.32,1.344v0.768
		c-0.024,0.912-0.072,1.944-0.168,3.097c-0.145,1.44-0.313,2.832-0.528,4.176c-0.288,1.488-0.647,3.024-1.032,4.608
		c-0.504,1.872-0.912,2.977-1.225,3.361c-0.192,0.168-0.384,0.264-0.624,0.264c-0.336-0.024-0.648-0.144-0.96-0.36
		c-1.008-0.816-1.488-1.705-1.488-2.665c0-0.144,0-0.336,0.048-0.528c0.072-0.288,0.217-0.432,0.456-0.48
		c0.145,0,0.336,0.12,0.553,0.336c0.455,0.384,0.911,1.008,1.367,1.824c0.049-0.192,0.168-0.552,0.313-1.032
		c0.408-1.632,0.816-3.792,1.201-6.504c0.216-1.44,0.359-3.048,0.456-4.873c0.023-0.48,0.048-0.96,0.048-1.392
		c0-0.168-0.12-0.264-0.313-0.264c-0.624,0.144-1.225,0.312-1.849,0.456c-0.313,2.208-0.816,4.441-1.488,6.697
		c-0.768,2.304-1.775,4.632-3.023,7.032c-0.433,0.793-0.816,1.393-1.128,1.801c-0.288,0.216-0.528,0.336-0.744,0.36
		c-0.24,0-0.36-0.168-0.36-0.48c0-0.192,0.096-0.48,0.336-0.84c0.288-0.865,0.672-1.753,1.104-2.713
		c0.84-1.92,1.655-4.176,2.424-6.768c0.384-1.44,0.695-2.953,0.936-4.561c-0.24,0.072-0.456,0.144-0.647,0.192
		c-0.288,0.072-0.456,0.096-0.528,0.096C162.944,17.775,162.705,17.679,162.488,17.487 M177.706,20.656
		c-0.12,0.768-0.313,1.536-0.576,2.256c-0.048,0.144-0.097,0.264-0.145,0.36c0.072-0.024,0.145-0.048,0.192-0.048
		c0.191,0.024,0.336,0.12,0.456,0.288c0.023,0.072,0.048,0.168,0.048,0.264c-0.024,0.192-0.096,0.384-0.24,0.552
		c-0.576,0.576-1.296,1.104-2.136,1.632c-1.032,0.672-2.016,1.152-2.928,1.464c-0.168,0.072-0.288,0.096-0.36,0.096
		c-0.216,0-0.384-0.096-0.528-0.336c-0.12-0.168-0.168-0.432-0.168-0.768c0-0.24,0.145-0.432,0.433-0.576
		c0.048,0,0.096-0.024,0.144-0.048c-0.048-0.864-0.191-1.848-0.384-3c-0.336-1.968-0.624-3.601-0.888-4.873
		c0.023-0.192,0.119-0.36,0.264-0.528c0.144-0.192,0.336-0.288,0.552-0.288c0.168,0,0.313,0.024,0.456,0.048
		c0.24,0.096,0.433,0.288,0.528,0.528c0,0.096,0.023,0.168,0.048,0.24c0.648-0.096,1.56-0.168,2.712-0.192
		c0.696,0.024,1.272,0.168,1.752,0.456c0.576,0.36,0.864,0.768,0.864,1.249C177.802,19.792,177.754,20.2,177.706,20.656
		 M173.313,25.192c0.648-0.264,1.248-0.552,1.824-0.864c0.048-0.12,0.12-0.216,0.24-0.312c0.144-0.504,0.312-1.248,0.504-2.256
		c0.144-0.912,0.216-1.464,0.216-1.68c-0.192-0.456-0.456-0.697-0.84-0.697c-0.792,0-1.632,0.024-2.544,0.024
		c0.071,0.601,0.144,1.297,0.239,2.065c0.192,1.68,0.288,2.904,0.337,3.72H173.313z M187.041,20.704
		c-0.12,0.528-0.288,1.056-0.528,1.536c0.12,0.048,0.216,0.144,0.288,0.24c0.023,0.072,0.048,0.144,0.048,0.24
		c-0.024,0.192-0.096,0.384-0.24,0.576c-0.527,0.576-1.224,1.104-2.04,1.632c-0.96,0.648-1.872,1.128-2.735,1.464
		c-0.168,0.072-0.288,0.096-0.36,0.096c-0.192,0-0.36-0.096-0.504-0.336c-0.145-0.168-0.216-0.432-0.216-0.768
		c0-0.264,0.144-0.456,0.432-0.576c-0.048-0.672-0.168-1.464-0.336-2.4c-0.337-1.56-0.601-2.856-0.841-3.889
		c0.023-0.144,0.12-0.312,0.264-0.48c0.145-0.192,0.313-0.312,0.505-0.312s0.36,0.024,0.48,0.048c0.24,0.12,0.408,0.288,0.504,0.504
		c0.504-0.12,1.296-0.192,2.399-0.216c0.792,0.024,1.465,0.168,2.017,0.408c0.647,0.336,0.983,0.744,0.983,1.201
		C187.16,19.96,187.112,20.32,187.041,20.704 M182.696,24.16c0.48-0.216,0.912-0.432,1.345-0.672
		c0.048-0.024,0.096-0.072,0.144-0.12c0.288-0.384,0.6-0.984,0.888-1.752c0.24-0.72,0.385-1.152,0.385-1.296
		c-0.24-0.408-0.648-0.624-1.225-0.624c-0.672,0-1.392,0.024-2.184,0.048c0.048,0.456,0.12,0.984,0.216,1.56
		c0.192,1.296,0.288,2.256,0.336,2.904C182.625,24.208,182.648,24.184,182.696,24.16 M187.209,17.487
		c-0.145-0.168-0.217-0.336-0.217-0.504c0-0.432,0.192-0.744,0.576-0.888c0.216-0.072,0.721-0.216,1.488-0.408
		c0.072,0,0.144-0.024,0.216-0.048c0.072-0.864,0.12-1.752,0.168-2.688v-0.72c0-0.6,0.336-0.912,1.008-0.912
		c0.576,0,0.864,0.264,0.912,0.768v0.768c-0.023,0.792-0.071,1.56-0.144,2.328c1.201-0.24,1.944-0.36,2.232-0.36
		c0.792,0,1.225,0.456,1.32,1.344v0.768c-0.024,0.912-0.072,1.944-0.168,3.097c-0.144,1.44-0.312,2.832-0.528,4.176
		c-0.288,1.488-0.647,3.024-1.031,4.608c-0.505,1.872-0.913,2.977-1.226,3.361c-0.191,0.168-0.384,0.264-0.624,0.264
		c-0.336-0.024-0.647-0.144-0.96-0.36c-1.008-0.816-1.488-1.705-1.488-2.665c0-0.144,0-0.336,0.049-0.528
		c0.071-0.288,0.216-0.432,0.456-0.48c0.144,0,0.336,0.12,0.552,0.336c0.456,0.384,0.912,1.008,1.368,1.824
		c0.048-0.192,0.168-0.552,0.312-1.032c0.408-1.632,0.817-3.792,1.201-6.504c0.216-1.44,0.36-3.048,0.456-4.873
		c0.023-0.48,0.048-0.96,0.048-1.392c0-0.168-0.12-0.264-0.312-0.264c-0.625,0.144-1.226,0.312-1.85,0.456
		c-0.312,2.208-0.815,4.441-1.488,6.697c-0.768,2.304-1.775,4.632-3.023,7.032c-0.432,0.793-0.816,1.393-1.128,1.801
		c-0.288,0.216-0.528,0.336-0.744,0.36c-0.24,0-0.36-0.168-0.36-0.48c0-0.192,0.097-0.48,0.336-0.84
		c0.288-0.865,0.673-1.753,1.104-2.713c0.84-1.92,1.656-4.176,2.424-6.768c0.384-1.44,0.696-2.953,0.937-4.561
		c-0.24,0.072-0.456,0.144-0.648,0.192c-0.288,0.072-0.456,0.096-0.528,0.096C187.665,17.775,187.425,17.679,187.209,17.487
		 M202.426,20.656c-0.12,0.768-0.313,1.536-0.576,2.256c-0.048,0.144-0.096,0.264-0.144,0.36c0.071-0.024,0.144-0.048,0.191-0.048
		c0.192,0.024,0.336,0.12,0.456,0.288c0.024,0.072,0.048,0.168,0.048,0.264c-0.023,0.192-0.096,0.384-0.24,0.552
		c-0.575,0.576-1.296,1.104-2.136,1.632c-1.032,0.672-2.016,1.152-2.928,1.464c-0.168,0.072-0.288,0.096-0.36,0.096
		c-0.216,0-0.384-0.096-0.527-0.336c-0.12-0.168-0.168-0.432-0.168-0.768c0-0.24,0.144-0.432,0.432-0.576
		c0.048,0,0.096-0.024,0.144-0.048c-0.048-0.864-0.191-1.848-0.384-3c-0.336-1.968-0.624-3.601-0.888-4.873
		c0.023-0.192,0.12-0.36,0.264-0.528c0.145-0.192,0.336-0.288,0.552-0.288c0.169,0,0.313,0.024,0.456,0.048
		c0.24,0.096,0.433,0.288,0.528,0.528c0,0.096,0.024,0.168,0.048,0.24c0.648-0.096,1.561-0.168,2.712-0.192
		c0.696,0.024,1.272,0.168,1.752,0.456c0.576,0.36,0.864,0.768,0.864,1.249C202.521,19.792,202.474,20.2,202.426,20.656
		 M198.033,25.192c0.648-0.264,1.248-0.552,1.824-0.864c0.048-0.12,0.12-0.216,0.24-0.312c0.144-0.504,0.312-1.248,0.504-2.256
		c0.144-0.912,0.216-1.464,0.216-1.68c-0.191-0.456-0.456-0.697-0.84-0.697c-0.792,0-1.632,0.024-2.544,0.024
		c0.072,0.601,0.144,1.297,0.24,2.065c0.191,1.68,0.288,2.904,0.336,3.72H198.033z"/>
	<path clip-path="url(#SVGID_22_)" fill="#81637C" d="M0.226,7.421c0-0.984,0.202-1.843,0.606-2.575
		c0.405-0.733,0.973-1.357,1.706-1.872C3.27,2.458,4.149,2.033,5.174,1.699C6.2,1.365,7.328,1.105,8.558,0.917
		c1.231-0.187,2.549-0.316,3.955-0.387c1.406-0.07,2.859-0.105,4.359-0.105c2.04,0,4.175,0.082,6.408,0.246
		c2.232,0.164,4.561,0.463,6.987,0.896c0.563,0.118,0.958,0.329,1.187,0.633c0.228,0.305,0.342,0.645,0.342,1.02
		c0,0.234-0.052,0.463-0.158,0.685c-0.105,0.223-0.246,0.428-0.422,0.616c-0.176,0.187-0.381,0.337-0.615,0.448
		c-0.234,0.111-0.48,0.167-0.738,0.167c-0.903,0-1.843-0.047-2.822-0.141c-0.978-0.094-1.998-0.199-3.058-0.316
		c-1.061-0.117-2.153-0.235-3.278-0.352c-1.125-0.117-2.286-0.205-3.481-0.263c-0.211,1.312-0.48,2.724-0.809,4.236
		c-0.328,1.512-0.688,3.056-1.081,4.632c-0.392,1.576-0.802,3.146-1.23,4.711c-0.428,1.564-0.841,3.058-1.239,4.482
		c-0.399,1.424-0.771,2.739-1.117,3.946c-0.345,1.207-0.629,2.245-0.852,3.112c-0.094,0.398-0.237,0.764-0.431,1.098
		c-0.193,0.334-0.41,0.624-0.65,0.87c-0.24,0.247-0.489,0.437-0.747,0.572c-0.258,0.135-0.498,0.202-0.721,0.202
		c-0.668,0-1.219-0.158-1.652-0.475c-0.434-0.316-0.651-0.826-0.651-1.529c0-0.223,0.036-0.469,0.106-0.738
		c0.152-1.067,0.354-2.116,0.606-3.147c0.252-1.031,0.548-2.106,0.888-3.225s0.727-2.306,1.16-3.56
		c0.434-1.254,0.914-2.634,1.442-4.14c0.527-1.505,1.098-3.167,1.713-4.983c0.616-1.816,1.281-3.838,1.996-6.064
		c-0.622,0.046-1.251,0.099-1.89,0.158c-0.639,0.058-1.26,0.137-1.863,0.237c-0.604,0.1-1.166,0.226-1.688,0.378
		c-0.521,0.152-0.978,0.346-1.371,0.58S6.44,5.934,6.211,6.261c-0.228,0.328-0.342,0.715-0.342,1.16
		c0,0.023-0.015,0.152-0.044,0.387c-0.03,0.234-0.132,0.489-0.308,0.764C5.341,8.849,5.063,9.101,4.682,9.329
		C4.301,9.558,3.759,9.671,3.056,9.671S1.808,9.554,1.421,9.319C1.035,9.085,0.753,8.828,0.578,8.546
		C0.367,8.218,0.249,7.843,0.226,7.421"/>
	<path clip-path="url(#SVGID_22_)" fill="#81637C" d="M25.978,27.126c0-0.516,0.029-1.116,0.088-1.802
		c0.058-0.685,0.138-1.409,0.237-2.171c0.1-0.761,0.217-1.538,0.352-2.329c0.135-0.791,0.278-1.544,0.43-2.259
		c0.153-0.714,0.305-1.371,0.457-1.968c0.153-0.598,0.305-1.09,0.457-1.477c0.094-0.258,0.188-0.463,0.282-0.615
		c0.093-0.152,0.202-0.273,0.325-0.36c0.123-0.088,0.275-0.147,0.457-0.176c0.182-0.03,0.407-0.044,0.677-0.044
		c0.304,0,0.542,0.014,0.712,0.044c0.17,0.029,0.296,0.099,0.378,0.211c0.082,0.111,0.131,0.272,0.149,0.483
		s0.026,0.498,0.026,0.861v1.574c0,0.615,0.012,1.221,0.035,1.819h0.194c0.234-0.469,0.498-0.993,0.791-1.573
		c0.293-0.58,0.633-1.122,1.019-1.626c0.387-0.504,0.827-0.929,1.319-1.275c0.492-0.345,1.06-0.518,1.705-0.518
		c0.223,0,0.439,0.038,0.65,0.114c0.211,0.076,0.396,0.185,0.554,0.325c0.158,0.141,0.284,0.314,0.378,0.519
		c0.094,0.205,0.141,0.436,0.141,0.694c0,0.199-0.03,0.478-0.088,0.835c-0.059,0.358-0.123,0.733-0.194,1.125
		c-0.07,0.393-0.135,0.774-0.193,1.143c-0.059,0.369-0.088,0.676-0.088,0.923c0,0.421,0.041,0.773,0.123,1.054
		c0.082,0.282,0.19,0.507,0.325,0.677c0.135,0.17,0.287,0.29,0.457,0.36c0.17,0.071,0.349,0.106,0.536,0.106
		c0.528,0,1.073-0.117,1.635-0.352c0.563-0.234,1.078-0.498,1.547-0.791c0.551-0.34,1.09-0.726,1.617-1.16l-0.263,4.113
		c-0.305,0.2-0.651,0.422-1.038,0.668c-0.386,0.246-0.799,0.478-1.239,0.695c-0.439,0.216-0.896,0.398-1.371,0.545
		c-0.475,0.146-0.958,0.219-1.45,0.219c-0.879,0-1.588-0.178-2.127-0.536c-0.539-0.357-0.967-0.826-1.283-1.406
		c-0.317-0.58-0.551-1.231-0.703-1.951c-0.153-0.721-0.276-1.45-0.37-2.189h-0.281l-3.146,8.772
		c-0.164,0.457-0.32,0.835-0.466,1.134c-0.147,0.298-0.296,0.542-0.448,0.729c-0.153,0.188-0.317,0.319-0.492,0.396
		c-0.176,0.076-0.37,0.114-0.581,0.114c-0.48,0-0.867-0.103-1.16-0.308c-0.293-0.205-0.518-0.48-0.676-0.826
		c-0.159-0.346-0.264-0.738-0.317-1.178C26.004,28.049,25.978,27.595,25.978,27.126"/>
	<path clip-path="url(#SVGID_22_)" fill="#81637C" d="M51.853,27.056c-0.421,0.387-0.946,0.8-1.573,1.24
		c-0.627,0.439-1.304,0.843-2.03,1.212c-0.727,0.37-1.468,0.677-2.224,0.923c-0.756,0.246-1.473,0.369-2.153,0.369
		c-0.609,0-1.122-0.085-1.538-0.254c-0.416-0.17-0.753-0.408-1.011-0.712c-0.258-0.305-0.442-0.677-0.554-1.117
		c-0.111-0.439-0.167-0.922-0.167-1.45c0-0.738,0.085-1.596,0.255-2.575c0.17-0.978,0.378-1.992,0.624-3.041
		c0.246-1.049,0.507-2.095,0.783-3.138c0.275-1.043,0.518-2.004,0.729-2.882c0.082-0.305,0.246-0.566,0.492-0.783
		c0.246-0.216,0.525-0.392,0.835-0.527c0.311-0.135,0.633-0.234,0.967-0.299c0.334-0.064,0.636-0.097,0.905-0.097
		c0.492,0,0.826,0.091,1.002,0.273c0.176,0.182,0.264,0.425,0.264,0.729c0,0.258-0.059,0.63-0.176,1.117
		c-0.117,0.486-0.264,1.037-0.439,1.652c-0.176,0.615-0.364,1.277-0.563,1.986c-0.199,0.709-0.387,1.418-0.562,2.127
		c-0.176,0.709-0.323,1.401-0.44,2.074c-0.117,0.674-0.176,1.281-0.176,1.82c0,0.527,0.059,0.946,0.176,1.257
		c0.117,0.31,0.358,0.465,0.721,0.465c0.422,0,0.891-0.146,1.406-0.439c0.516-0.293,1.037-0.647,1.565-1.063
		c0.527-0.416,1.043-0.847,1.546-1.292c0.504-0.446,0.95-0.827,1.336-1.143V27.056z M43.996,8.986c0-0.27,0.059-0.574,0.176-0.914
		c0.117-0.34,0.307-0.659,0.571-0.958s0.615-0.551,1.055-0.756c0.439-0.205,0.987-0.308,1.643-0.308c0.41,0,0.797,0.047,1.16,0.141
		c0.364,0.094,0.68,0.237,0.95,0.431c0.269,0.193,0.483,0.448,0.641,0.764c0.158,0.317,0.238,0.692,0.238,1.125
		c0,0.399-0.065,0.786-0.194,1.161c-0.129,0.375-0.334,0.709-0.615,1.001c-0.281,0.293-0.636,0.531-1.063,0.712
		c-0.428,0.182-0.941,0.273-1.539,0.273c-1.031,0-1.793-0.243-2.285-0.73C44.242,10.442,43.996,9.795,43.996,8.986"/>
	<path clip-path="url(#SVGID_22_)" fill="#81637C" d="M68.992,26.494c-0.27,0.375-0.63,0.814-1.081,1.318
		c-0.452,0.504-0.958,0.984-1.521,1.441c-0.562,0.457-1.166,0.844-1.81,1.161c-0.645,0.316-1.289,0.474-1.934,0.474
		c-0.773,0-1.418-0.249-1.934-0.747c-0.515-0.498-0.961-1.222-1.336-2.171c-0.281,0.328-0.626,0.662-1.037,1.002
		c-0.41,0.34-0.858,0.648-1.344,0.923c-0.487,0.275-0.994,0.501-1.521,0.677c-0.527,0.176-1.055,0.263-1.582,0.263
		c-0.562,0-1.11-0.114-1.643-0.342c-0.534-0.229-1.005-0.557-1.415-0.985c-0.411-0.427-0.739-0.949-0.985-1.564
		c-0.246-0.615-0.369-1.31-0.369-2.083c0-0.879,0.123-1.781,0.369-2.707c0.246-0.926,0.586-1.831,1.02-2.716
		c0.433-0.885,0.946-1.72,1.538-2.505c0.592-0.785,1.239-1.471,1.942-2.057c0.703-0.585,1.444-1.051,2.224-1.397
		c0.779-0.346,1.573-0.519,2.382-0.519c0.269,0,0.48,0.053,0.632,0.159c0.153,0.105,0.279,0.225,0.378,0.36
		c0.1,0.135,0.197,0.267,0.29,0.396c0.094,0.128,0.211,0.222,0.352,0.281c0.141,0.058,0.284,0.096,0.431,0.114
		c0.146,0.018,0.296,0.026,0.448,0.026c0.129,0,0.261-0.003,0.395-0.008c0.135-0.006,0.267-0.009,0.396-0.009
		c0.176,0,0.34,0.017,0.492,0.053c0.152,0.035,0.287,0.111,0.404,0.228c0.118,0.117,0.208,0.281,0.273,0.492
		c0.064,0.211,0.097,0.498,0.097,0.862c0,0.562-0.059,1.186-0.176,1.872c-0.117,0.685-0.246,1.388-0.387,2.109
		s-0.27,1.441-0.387,2.162c-0.117,0.721-0.175,1.403-0.175,2.048c0,0.551,0.049,0.981,0.149,1.292s0.313,0.466,0.642,0.466
		c0.246,0,0.503-0.062,0.773-0.185c0.269-0.123,0.542-0.284,0.817-0.483c0.276-0.199,0.551-0.425,0.827-0.677
		c0.275-0.252,0.536-0.513,0.782-0.782c0.574-0.633,1.154-1.348,1.74-2.145L68.992,26.494z M53.98,25.105
		c0,0.293,0.021,0.577,0.062,0.853c0.041,0.275,0.114,0.521,0.219,0.738c0.106,0.217,0.246,0.392,0.422,0.527
		c0.176,0.135,0.399,0.202,0.668,0.202c0.434,0,0.826-0.187,1.178-0.562c0.351-0.375,0.656-0.826,0.914-1.354
		c0.258-0.527,0.466-1.072,0.624-1.634c0.158-0.563,0.261-1.032,0.308-1.407l1.072-5.168c-0.481,0-0.949,0.12-1.406,0.361
		c-0.457,0.24-0.888,0.565-1.292,0.975c-0.405,0.41-0.777,0.879-1.117,1.407c-0.34,0.527-0.632,1.081-0.879,1.661
		c-0.246,0.58-0.436,1.163-0.571,1.749C54.047,24.039,53.98,24.589,53.98,25.105"/>
	<path clip-path="url(#SVGID_22_)" fill="#81637C" d="M66.917,27.126c0-0.773,0.047-1.667,0.141-2.681
		c0.093-1.013,0.211-2.045,0.351-3.093c0.141-1.049,0.299-2.06,0.475-3.033c0.176-0.972,0.345-1.804,0.51-2.496
		c0.128-0.539,0.377-0.99,0.747-1.353c0.369-0.364,0.87-0.545,1.503-0.545c0.632,0,1.072,0.193,1.318,0.58
		c0.246,0.387,0.369,0.902,0.369,1.547c0,0.176-0.018,0.413-0.053,0.712c-0.035,0.299-0.079,0.627-0.132,0.984
		c-0.052,0.357-0.108,0.727-0.167,1.107c-0.058,0.381-0.114,0.733-0.166,1.055c-0.053,0.322-0.097,0.604-0.132,0.844
		c-0.035,0.24-0.053,0.401-0.053,0.483h0.351c0.071-0.129,0.182-0.337,0.334-0.624c0.153-0.287,0.329-0.618,0.528-0.993
		c0.199-0.375,0.413-0.77,0.641-1.186c0.229-0.416,0.443-0.815,0.642-1.196c0.199-0.381,0.381-0.717,0.545-1.01
		s0.287-0.51,0.369-0.651c0.375-0.633,0.803-1.066,1.283-1.301c0.481-0.234,1.014-0.351,1.6-0.351s1.052,0.246,1.397,0.738
		c0.346,0.492,0.519,1.172,0.519,2.039c0,0.129-0.026,0.346-0.079,0.651c-0.053,0.304-0.12,0.668-0.202,1.089
		c-0.082,0.422-0.173,0.885-0.273,1.389c-0.099,0.504-0.19,1.02-0.272,1.547c-0.082,0.527-0.15,1.049-0.202,1.564
		c-0.053,0.516-0.079,0.991-0.079,1.424c0,0.727,0.09,1.324,0.272,1.793c0.182,0.469,0.466,0.703,0.853,0.703
		c0.175,0,0.377-0.052,0.606-0.158c0.228-0.105,0.475-0.243,0.738-0.413c0.264-0.17,0.533-0.366,0.809-0.589
		c0.275-0.222,0.548-0.451,0.817-0.685c0.621-0.551,1.272-1.172,1.951-1.864l0.299,3.938l-0.879,0.668
		c-0.48,0.363-0.969,0.726-1.467,1.09c-0.499,0.363-1.017,0.688-1.556,0.975c-0.539,0.287-1.102,0.522-1.688,0.703
		c-0.586,0.182-1.201,0.273-1.845,0.273c-0.645,0-1.187-0.466-1.626-1.398c-0.44-0.931-0.659-2.294-0.659-4.087
		c0-0.703,0.046-1.461,0.14-2.276c0.094-0.814,0.211-1.69,0.352-2.628h-0.282l-4.605,9.141c-0.234,0.48-0.498,0.808-0.791,0.984
		c-0.293,0.176-0.633,0.264-1.02,0.264c-0.48,0-0.867-0.103-1.16-0.308c-0.293-0.205-0.518-0.48-0.676-0.826
		c-0.159-0.346-0.264-0.738-0.317-1.178C66.943,28.049,66.917,27.595,66.917,27.126"/>
	<path clip-path="url(#SVGID_22_)" fill="#81637C" d="M90.472,28.955c-0.633,0.562-1.292,1.016-1.978,1.362
		c-0.685,0.346-1.35,0.518-1.995,0.518c-0.562,0-1.11-0.114-1.643-0.342c-0.534-0.229-1.005-0.557-1.415-0.985
		c-0.411-0.427-0.739-0.949-0.985-1.564c-0.246-0.615-0.369-1.31-0.369-2.083c0-0.879,0.123-1.781,0.369-2.707
		c0.246-0.926,0.586-1.831,1.02-2.716c0.433-0.885,0.946-1.72,1.538-2.505c0.592-0.785,1.239-1.471,1.942-2.057
		c0.703-0.585,1.444-1.051,2.224-1.397c0.779-0.346,1.573-0.519,2.382-0.519c0.269,0,0.48,0.053,0.632,0.159
		c0.153,0.105,0.279,0.225,0.378,0.36c0.1,0.135,0.197,0.267,0.29,0.396c0.094,0.128,0.211,0.222,0.352,0.281
		c0.141,0.058,0.284,0.096,0.431,0.114c0.146,0.018,0.296,0.026,0.448,0.026c0.129,0,0.261-0.003,0.395-0.008
		c0.135-0.006,0.267-0.009,0.396-0.009c0.176,0,0.34,0.017,0.492,0.053c0.152,0.035,0.287,0.111,0.404,0.228
		c0.118,0.117,0.208,0.281,0.273,0.492c0.064,0.211,0.097,0.498,0.097,0.862c0,0.304-0.024,0.714-0.071,1.23
		c-0.047,0.516-0.111,1.09-0.193,1.723c-0.082,0.633-0.173,1.303-0.273,2.012c-0.099,0.709-0.202,1.404-0.307,2.083
		c-0.246,1.618-0.528,3.346-0.844,5.186c0.352-0.199,0.732-0.445,1.143-0.738c0.41-0.293,0.867-0.686,1.371-1.178
		c0.504-0.492,1.066-1.11,1.687-1.855c0.621-0.744,1.319-1.672,2.091-2.786l0.844,3.903c-0.211,0.363-0.483,0.735-0.817,1.116
		c-0.334,0.381-0.703,0.762-1.106,1.142c-0.404,0.381-0.826,0.75-1.267,1.108c-0.439,0.357-0.87,0.694-1.292,1.011
		c-0.996,0.75-2.068,1.476-3.217,2.179c-0.222,1.254-0.486,2.476-0.791,3.665c-0.304,1.189-0.665,2.303-1.081,3.34
		s-0.89,1.989-1.423,2.856c-0.534,0.867-1.137,1.611-1.811,2.232s-1.427,1.105-2.259,1.45c-0.832,0.346-1.752,0.519-2.76,0.519
		c-0.398,0-0.829-0.041-1.291-0.123c-0.463-0.082-0.891-0.246-1.284-0.492c-0.392-0.246-0.717-0.598-0.975-1.055
		c-0.258-0.457-0.387-1.066-0.387-1.828c0-0.527,0.135-1.122,0.404-1.784c0.27-0.662,0.639-1.359,1.108-2.092
		c0.468-0.732,1.025-1.494,1.67-2.285c0.644-0.791,1.344-1.578,2.1-2.364c0.756-0.785,1.547-1.559,2.373-2.32
		c0.826-0.762,1.661-1.488,2.505-2.18L90.472,28.955z M83.985,43.738c0.493,0,0.958-0.144,1.398-0.431
		c0.439-0.287,0.844-0.665,1.213-1.134c0.369-0.469,0.706-1.002,1.011-1.6c0.304-0.598,0.574-1.21,0.808-1.837
		c0.235-0.627,0.434-1.239,0.598-1.837c0.164-0.598,0.293-1.131,0.387-1.6c-0.458,0.305-0.923,0.668-1.398,1.09
		s-0.937,0.876-1.389,1.362c-0.451,0.486-0.879,0.987-1.283,1.503c-0.404,0.516-0.759,1.011-1.063,1.485
		c-0.305,0.475-0.545,0.917-0.721,1.327s-0.264,0.75-0.264,1.02C83.282,43.521,83.518,43.738,83.985,43.738 M86.587,25.105
		c0,0.293,0.021,0.577,0.062,0.853c0.041,0.275,0.114,0.521,0.219,0.738c0.106,0.217,0.246,0.392,0.422,0.527
		c0.176,0.135,0.399,0.202,0.668,0.202c0.434,0,0.826-0.187,1.178-0.562c0.351-0.375,0.656-0.826,0.914-1.354
		c0.258-0.527,0.466-1.072,0.624-1.634c0.158-0.563,0.261-1.032,0.308-1.407l1.072-5.168c-0.481,0-0.949,0.12-1.406,0.361
		c-0.457,0.24-0.888,0.565-1.292,0.975c-0.405,0.41-0.777,0.879-1.117,1.407c-0.34,0.527-0.632,1.081-0.879,1.661
		c-0.246,0.58-0.436,1.163-0.571,1.749C86.654,24.039,86.587,24.589,86.587,25.105"/>
	<path clip-path="url(#SVGID_22_)" fill="#81637C" d="M110.317,17.634c0.339,0.68,0.595,1.397,0.765,2.153
		c0.17,0.756,0.255,1.48,0.255,2.171c0,0.692-0.076,1.389-0.229,2.092s-0.372,1.383-0.66,2.039
		c-0.286,0.656-0.638,1.272-1.054,1.846c-0.416,0.574-0.891,1.072-1.424,1.494c-0.533,0.422-1.116,0.756-1.749,1.002
		c-0.633,0.246-1.307,0.369-2.022,0.369c-1.03,0-1.912-0.226-2.645-0.677c-0.732-0.451-1.333-1.04-1.801-1.766
		c-0.469-0.727-0.812-1.547-1.029-2.461c-0.216-0.914-0.325-1.84-0.325-2.778c0-1.289,0.194-2.493,0.58-3.612
		c0.387-1.119,0.941-2.092,1.661-2.918c0.721-0.826,1.603-1.476,2.646-1.951s2.215-0.712,3.516-0.712
		c1.113,0,2.156,0.173,3.129,0.519c0.973,0.345,1.884,0.808,2.733,1.388c0.85,0.58,1.641,1.245,2.373,1.995s1.415,1.524,2.048,2.321
		l-0.334,2.478c-0.316-0.422-0.744-0.879-1.283-1.371s-1.11-0.973-1.714-1.441c-0.604-0.469-1.198-0.911-1.784-1.327
		s-1.09-0.765-1.512-1.046L110.317,17.634z M104.886,27.425c0.397,0,0.785-0.202,1.16-0.606c0.375-0.405,0.703-0.915,0.984-1.53
		c0.281-0.615,0.507-1.295,0.677-2.039c0.17-0.744,0.255-1.456,0.255-2.136c0-0.539-0.041-1.04-0.123-1.502
		c-0.082-0.463-0.205-0.865-0.369-1.205c-0.164-0.339-0.375-0.609-0.633-0.808c-0.258-0.199-0.568-0.299-0.932-0.299
		c-0.48,0-0.938,0.205-1.372,0.615c-0.433,0.41-0.813,0.935-1.142,1.573c-0.328,0.639-0.586,1.345-0.773,2.119
		c-0.188,0.773-0.281,1.517-0.281,2.232c0,0.492,0.047,0.955,0.141,1.389c0.094,0.433,0.24,0.811,0.439,1.134
		c0.198,0.322,0.463,0.58,0.791,0.773S104.429,27.425,104.886,27.425"/>
</g>
</svg>
