<?xml version="1.0" encoding="UTF-8" standalone="no"?>
<svg width="75px" height="75px" viewBox="0 0 75 75" version="1.1" xmlns="http://www.w3.org/2000/svg" xmlns:xlink="http://www.w3.org/1999/xlink">
    <!-- Generator: Sketch 39.1 (31720) - http://www.bohemiancoding.com/sketch -->
    <title>logo</title>
    <desc>Created with Sketch.</desc>
    <defs></defs>
    <g id="Page-1" stroke="none" stroke-width="1" fill="none" fill-rule="evenodd">
        <g id="首頁" transform="translate(-25.000000, -23.000000)">
            <g id="header01">
                <g id="Group-24" transform="translate(25.000000, 21.000000)">
                    <g id="Logo" transform="translate(0.000000, 2.000000)">
                        <g id="logo">
                            <path d="M66.7308833,33.5561798 L68.241495,27.9382022 C65.0064763,27.8812422 56.6653402,26.7709114 57.2458645,16.7451623 C57.7109082,8.73018102 54.1411517,5.35471286 49.8543227,5.35471286 L41.4671504,7.60190387 L40.5136548,7.85783396 C40.1188358,8.02715356 39.7474251,8.27059925 39.4243914,8.59285268 C38.0659332,9.95131086 38.0659332,12.1555868 39.4243914,13.5156055 L60.9342228,35.0246567 C62.292681,36.3831149 64.4969569,36.3831149 65.8554151,35.0246567 C66.2798845,34.6001873 66.5717072,34.0945693 66.7308833,33.5561798 Z M49.5546973,12.4653558 C48.5262953,11.4361735 48.5262953,9.76794632 49.5554775,8.73954432 C50.5846598,7.7088015 52.252887,7.7088015 53.281289,8.73954432 C54.309691,9.76872659 54.309691,11.4369538 53.281289,12.4661361 C52.252887,13.4929775 50.5854401,13.4929775 49.5546973,12.4653558 Z M74.2275281,5.67275281 L74.4436642,4.86672909 C74.6543383,3.58083645 74.2681024,2.21535581 73.2763733,1.22284644 C72.2830836,0.231117353 70.917603,-0.154338327 69.6317104,0.0555555556 L68.8280275,0.271691635 L54.8696941,4.01154806 C57.7606117,5.32553059 60.562578,9.16526217 60.1888265,15.6181336 C59.7089576,23.892166 64.5006242,25.5205993 68.8904494,25.5205993 L74.2275281,5.67275281 Z M63.6883583,21.6161049 C62.659176,20.5884831 62.659176,18.9186954 63.6883583,17.8902934 C64.7167603,16.8611111 66.3857678,16.8611111 67.4149501,17.8902934 C68.4433521,18.9186954 68.4433521,20.5884831 67.4149501,21.6161049 C66.3865481,22.6452871 64.7167603,22.6452871 63.6883583,21.6161049 Z" id="Combined-Shape" fill="#86D1DD"></path>
                            <path d="M46.7604557,70.5196629 L49.6864856,73.4456929 C51.3227216,75.0834894 53.7844881,74.8923221 55.4207241,73.2560861 C55.9263421,72.7504682 56.2735643,72.1496567 56.4678527,71.511392 L56.4959426,71.4037141 L57.190387,68.8093009 C53.7922909,67.1769663 49.6029963,67.7465668 46.7604557,70.5196629 Z M30.6608146,54.1940543 C39.6230493,46.0893414 52.0910581,44.0036673 62.8572878,47.9354713 L63.5134988,45.4838483 C51.7274501,41.516932 38.6586298,43.6213327 28.7741105,52.1473939 C28.7741105,52.1466136 29.8727372,53.4051966 30.6608146,54.1940543 Z M63.5519663,43.2793383 C63.4263421,42.911829 63.2265918,42.5770911 62.9449126,42.2938514 L62.2855805,41.6352996 L51.4046504,30.7551498 C50.0446317,29.3966916 47.8419164,29.3974719 46.4818976,30.7551498 L29.5241885,47.7144195 L29.1059613,48.133427 C28.6229713,48.704588 28.3568976,49.3951311 28.2999376,50.0997191 C38.3451935,41.4831461 51.579432,39.3303683 63.5519663,43.2793383 Z M62.6490325,48.7115325 C61.6331149,48.3471442 60.6008115,48.0389357 59.5591448,47.7845662 L56.7517166,67.6058833 C56.8710986,67.6558208 57.3985643,67.8407459 57.5163858,67.8945849 L62.6490325,48.7115325 Z M40.4706617,49.0079588 L50.1320225,67.5410424 C50.5377653,67.400593 50.9513109,67.2905743 51.3687578,67.2039638 L46.0090512,47.4247815 C44.1285893,47.781367 42.2738764,48.3103933 40.4706617,49.0079588 Z M46.9506086,47.2615481 L52.3134363,67.053995 C52.7402466,67.0087391 53.1678371,66.9931336 53.5946473,67.0032772 L52.5522004,46.8745318 C50.6803215,46.8370787 48.8045412,46.9666042 46.9506086,47.2615481 Z M53.605025,46.9163546 L54.6490325,67.07397 C55.0664794,67.127809 55.4808052,67.2136392 55.8912297,67.3205368 L58.2749688,47.4984395 C56.7315855,47.1871099 55.1710362,46.9990637 53.605025,46.9163546 Z M31.1142322,54.6459114 L46.3631398,69.8979401 C46.4934457,69.7684145 46.8344257,69.44304 46.9694132,69.3228777 L33.4620787,52.8317728 C32.6700999,53.4115169 31.6658864,54.1637016 31.1142322,54.6459114 Z M35.022862,51.7465668 C34.8831929,51.8331773 34.7450843,51.9229089 34.6069757,52.0110799 L47.9137797,68.6402934 C48.3148408,68.3742197 48.7307272,68.1401373 49.1583177,67.940387 L39.4969569,49.4049625 C37.9582553,50.0588327 36.4616885,50.8383271 35.022862,51.7465668 Z" id="Combined-Shape" fill="#E22F80"></path>
                            <path d="M37.3704744,29.9628589 C36.8898252,30.2874532 36.3420724,30.5137328 35.8224095,30.7782459 C35.6811798,30.8500312 35.5844257,30.7977528 35.5118602,30.653402 C35.1396692,29.9121411 34.7596754,29.1724407 34.3867041,28.4296192 C34.3453496,28.3469101 34.3305243,28.2501561 34.2946317,28.1299938 C34.3445693,28.0761548 34.3882647,28.0090512 34.4491261,27.9676966 C34.6387328,27.8467541 34.8392634,27.7460986 35.0273096,27.6204744 C35.9113608,27.0274657 36.3358302,26.0076467 36.1025281,24.9683208 C36.05103,24.7389201 35.9183833,24.514201 35.7771536,24.3214732 C35.5922285,24.0694444 35.3659488,23.8478464 35.1490325,23.6223471 C35.05696,23.5248127 35.0280899,23.4327403 35.0905119,23.3117978 C35.5188826,22.4831461 35.9441323,21.6537141 36.3748439,20.8258427 C36.4450687,20.6900749 36.5558677,20.6229713 36.7072409,20.7111423 C37.4500624,21.1387328 38.156211,21.6209426 38.6922597,22.2974407 C39.2790262,23.0402622 39.7011548,23.8837391 40.0156055,24.7724719 C40.230181,25.3818664 40.0522784,25.9889201 39.8774969,26.5780275 C39.6878901,27.2178527 39.3734395,27.7968165 38.9505306,28.3141386 C38.4667603,28.906367 38.0079588,29.5352684 37.3704744,29.9628589 M34.3297441,31.2432896 C33.8007179,31.420412 33.26701,31.5803683 32.7356429,31.7473471 C32.7161361,31.7520287 32.6950687,31.7504682 32.6139201,31.7574906 C32.5702247,31.7122347 32.4719101,31.6513733 32.4399189,31.5655431 C32.238608,31.0162297 32.0326155,30.4669164 31.8710986,29.9058989 C31.8110175,29.6983458 31.7400125,29.5212235 31.6143883,29.3480025 C31.4840824,29.1661985 31.5394819,29.0577403 31.7657615,28.9984395 C32.0552434,28.9235331 32.3478464,28.85799 32.6349875,28.7729401 C32.7691948,28.7331461 32.8979401,28.667603 33.0196629,28.5958177 C33.2295568,28.4740949 33.3442572,28.5162297 33.4386704,28.7362672 C33.7593633,29.4720662 34.0847378,30.2055243 34.4140137,30.9389825 C34.4740949,31.0731898 34.4748752,31.1949126 34.3297441,31.2432896 M30.9472534,32.2662297 C30.4822097,32.3224095 30.0156055,32.3723471 29.5490012,32.4113608 C29.3242821,32.4300874 29.1853933,32.2826155 29.1588639,32.0102996 C29.0956617,31.3548689 29.042603,30.6970974 28.9762797,30.0424469 C28.9669164,29.9581773 28.9255618,29.8614232 28.8654806,29.8013421 C28.7624844,29.6983458 28.7336142,29.5797441 28.7975968,29.4697253 C28.8397316,29.3979401 28.9481898,29.332397 29.0324594,29.323814 C29.2681024,29.3019663 29.5076467,29.3167915 29.7456305,29.3082085 C29.9141698,29.3019663 30.0827091,29.2629526 30.2481273,29.2730961 C30.3480025,29.2785581 30.4954744,29.3206929 30.5344881,29.3924782 C30.7857366,29.855181 30.9519351,30.3490949 31.0166979,30.875 C31.0221598,30.9155743 31.0166979,30.9561486 31.0159176,31.0146692 C30.9737828,31.1598002 31.0245006,31.2729401 31.1087703,31.4282147 C31.2133271,31.6217228 31.156367,31.9088639 31.1438826,32.1538702 C31.1407615,32.196005 31.0190387,32.2576467 30.9472534,32.2662297 M27.6599563,32.4862672 C27.3533084,32.4815855 27.0466604,32.4948502 26.7400125,32.4878277 C26.6128277,32.4823658 26.4825218,32.4612984 26.3631398,32.4168227 C26.2250312,32.3684457 26.1587079,32.2599875 26.1688514,32.0961298 C26.1867978,31.7965044 26.1867978,31.4968789 26.1946005,31.1972534 C26.1867978,31.1956929 26.1782147,31.1956929 26.1711923,31.1956929 C26.1899189,30.9101124 26.1899189,30.6214107 26.2382959,30.3397316 C26.2788702,30.10799 26.2804307,29.8809301 26.2734082,29.647628 C26.2648252,29.3425406 26.3568976,29.2777778 26.6588639,29.2972846 C26.985799,29.3199126 27.3135144,29.3331773 27.6373283,29.3706305 C27.7098939,29.3792135 27.8175718,29.4611423 27.8300562,29.5243446 C27.9611423,30.1555868 28.1429463,30.7798065 28.0578964,31.4383583 C28.0422909,31.5577403 28.1000312,31.6888265 28.1406055,31.8121099 C28.2997815,32.2716916 28.1413858,32.4925094 27.6599563,32.4862672 M24.7487516,32.3926342 C24.3094569,32.2794944 23.8787453,32.1351436 23.4425718,32.0087391 C23.3411361,31.9775281 23.235799,31.960362 23.1320225,31.9353933 C23.1109551,31.9307116 23.0883271,31.9252497 23.0672597,31.9213483 C23.1031523,31.7028714 23.1187578,31.4804931 23.1811798,31.2705993 C23.3590824,30.6697878 23.5229401,30.068196 23.5377653,29.4338327 C23.5440075,29.1685393 23.7453184,28.9711298 24.0082709,28.9797129 C24.3679775,28.9945381 24.7269039,29.0265293 25.0842697,29.0647628 C25.2426654,29.0819288 25.3612672,29.1529338 25.3456617,29.3558052 C25.2965044,30.0120162 25.2746567,30.6736891 25.2036517,31.3291199 C25.1786829,31.5553995 25.1443508,31.7660737 25.1849251,31.9954744 C25.2309613,32.2771536 25.0241885,32.4620787 24.7487516,32.3926342 M21.3740637,31.6248439 C20.7116105,31.4477216 20.0967541,31.2932272 19.4904806,31.1153246 C19.2368914,31.0411985 19.1775905,30.8071161 19.326623,30.5722534 C19.7760612,29.8661049 20.230181,29.1622971 20.6796192,28.4561486 C20.7279963,28.3828027 20.7662297,28.303995 20.7958801,28.2212859 C20.8458177,28.0816167 20.9316479,28.0223159 21.0775593,28.0714732 C21.3927903,28.1791511 21.7072409,28.2907303 22.0248127,28.3890449 C22.1441948,28.4272784 22.2721598,28.454588 22.3985643,28.463171 C22.5530587,28.4740949 22.6318664,28.5185705 22.5803683,28.690231 C22.4087079,29.2629526 22.2518727,29.8419164 22.0646067,30.4099563 C21.946005,30.7696629 21.795412,31.1207865 21.6338951,31.4625468 C21.5948814,31.5444757 21.4528714,31.5780275 21.3740637,31.6248439 M22.1793071,26.6303059 C22.3377029,26.4524032 22.5039014,26.2807428 22.6529338,26.0950375 C22.7621723,25.9584894 22.8893571,25.9046504 23.0610175,25.9264981 C23.2092697,25.9475655 23.3598627,25.9514669 23.5088951,25.9616105 L23.5088951,25.9530275 C23.6782147,25.9662921 23.8498752,25.9717541 24.0184145,25.9920412 C24.2439139,26.0193508 24.3032147,26.1496567 24.1580836,26.3259988 C23.8412921,26.7075531 23.5127965,27.0805243 23.1889825,27.4566167 C23.1445069,27.5081149 23.0844257,27.5525905 23.0563358,27.6118914 C22.9377341,27.8623596 22.7379838,27.8748439 22.5062422,27.8139825 C22.2565543,27.7460986 22.0045256,27.687578 21.755618,27.6189139 C21.5332397,27.5588327 21.4879838,27.4519351 21.6338951,27.2646692 C21.803995,27.0438514 21.9959426,26.8394195 22.1793071,26.6303059 M22.8035268,25.227372 C22.5475968,24.9019975 22.2994694,24.571161 22.0365169,24.2270599 C22.4360175,24.0561798 22.8144507,23.8899813 23.1967853,23.7339263 C23.3138265,23.6855493 23.4121411,23.7183208 23.4815855,23.8486267 C23.6774345,24.2223783 23.8857678,24.5891074 24.09098,24.9566167 C24.2205056,25.1906991 24.1830524,25.2648252 23.9216604,25.2718477 C23.6025281,25.2796504 23.2833958,25.2858926 22.9642634,25.2843321 C22.9088639,25.2851124 22.8331773,25.2656055 22.8035268,25.227372 M21.7563983,23.5427591 C21.636236,23.5911361 21.5550874,23.57397 21.4926654,23.4452247 C21.0229401,22.4862672 20.5485331,21.5280899 20.0616417,20.5410424 C20.7404806,20.2882335 21.4193196,20.036985 22.1168851,19.7771536 C22.5101436,20.8274032 22.9018414,21.8706305 23.2990012,22.931804 C22.7676342,23.1432584 22.2620162,23.3422285 21.7563983,23.5427591 M13.9474095,29.9043383 C13.4300874,29.8169476 12.9135456,29.7256554 12.3985643,29.6312422 C12.2120787,29.5969101 12.1519975,29.4907928 12.198814,29.3027466 C12.4032459,28.4764357 12.6068976,27.6516854 12.8136704,26.8253745 C12.8784332,26.5678839 12.9322722,26.5421348 13.3270911,26.5873908 C13.7359551,26.6521536 14.2002185,26.7278402 14.6637016,26.8019663 C14.7776217,26.8199126 14.8361423,26.8714107 14.8127341,26.9954744 C14.6402934,27.8842072 14.4694132,28.7721598 14.2969725,29.6608926 C14.2478152,29.90902 14.1986579,29.9456929 13.9474095,29.9043383 M10.9995318,29.4549001 C10.7943196,29.4104245 10.5898876,29.355025 10.3893571,29.292603 C10.0678839,29.1927278 9.96332709,29.0421348 10.0382335,28.7112984 C10.1115793,28.3867041 10.2317416,28.0761548 10.3347378,27.7593633 C10.4666042,27.3520599 10.6101748,26.9478777 10.7342385,26.539794 C10.8489388,26.1605805 10.8957553,26.1215668 11.4130774,26.1621411 C11.5324594,26.1878901 11.7673221,26.2237828 11.9967228,26.286985 C12.1379526,26.3259988 12.1949126,26.4211923 12.1395131,26.5873908 C11.9499064,27.1530899 11.7673221,27.7219101 11.5980025,28.2938514 C11.5082709,28.5934769 11.4520911,28.9016854 11.3771848,29.2059925 C11.30696,29.4876717 11.2780899,29.5110799 10.9995318,29.4549001 M8.75858302,28.8845194 C8.35830212,28.738608 7.94553683,28.6168851 7.63420724,28.2907303 C7.53433208,28.184613 7.53511236,28.1206305 7.61470037,28.0176342 C7.93539326,27.6033084 8.26154806,27.1921036 8.56585518,26.7660737 C8.72503121,26.5421348 8.85221598,26.2940075 8.9809613,26.0497815 C9.07303371,25.875 9.153402,25.7009988 9.37421973,25.724407 C9.55446317,25.7571785 9.7167603,25.7790262 9.87515605,25.81804 C10.0280899,25.8562734 10.0866105,26.0731898 10.0070225,26.2924469 C9.81663546,26.815231 9.62234707,27.3395755 9.4303995,27.8623596 C9.32818352,28.1370162 9.22830836,28.4108926 9.12687266,28.6863296 C9.06210986,28.85799 8.93024345,28.9485019 8.75858302,28.8845194 M9.22986891,24.8013421 C9.03480025,24.7365793 8.91151685,24.6000312 8.82412609,24.4229089 C8.72034956,24.2075531 8.78433208,24.1186017 9.02231586,24.1373283 C9.06367041,24.1388889 9.10346442,24.1427903 9.1440387,24.1451311 C9.64575531,24.0975343 9.87593633,24.4385144 10.0811486,24.8052434 C10.1154806,24.8668851 10.0959738,24.957397 10.1014357,25.0354245 C10.0273096,25.0377653 9.9446005,25.0635144 9.87905743,25.0416667 C9.65901998,24.9691011 9.44756554,24.8770287 9.22986891,24.8013421 M6.61750936,27.6493446 C5.96285893,27.0992509 5.6187578,26.3478464 5.28480025,25.5948814 C5.18882647,25.3795256 5.16541823,25.122035 5.15761548,24.8809301 C5.14903246,24.5898876 5.19272784,24.2965044 5.21379526,24.0046816 C5.1661985,22.940387 5.46114232,21.9564607 5.95895755,21.0302747 C6.07209738,20.81804 6.22971286,20.622191 6.39279026,20.4435081 C6.72830836,20.076779 7.08879526,19.7318976 7.42587391,19.3667291 C7.6724407,19.0959738 8.00561798,19.0280899 8.33177278,18.9336767 C8.45271536,18.8985643 8.52606117,18.9695693 8.55415106,19.0850499 C8.62047441,19.3620474 8.68133583,19.6406055 8.75156055,19.9183833 C8.89044944,20.4653558 9.03480025,21.0115481 9.17759051,21.55696 C9.27356429,21.9307116 9.17837079,22.1811798 8.82724719,22.3200687 C8.44413233,22.4691011 8.3528402,22.8116417 8.28027466,23.1284332 C8.1928839,23.5115481 8.19210362,23.9188514 8.18430087,24.3175718 C8.17961923,24.5610175 8.29822097,24.7709114 8.46129838,24.9605181 C8.69694132,25.232834 8.67119226,25.4325843 8.40277778,25.6799313 C8.32865169,25.7485955 8.26076779,25.8281835 8.20380774,25.9108926 C7.81835206,26.4703496 7.43679775,27.0344881 7.05134207,27.5970662 C6.8812422,27.8483146 6.83988764,27.8373908 6.61750936,27.6493446 M9.55134207,18.7011548 C10.0179463,18.730025 10.4845506,18.769819 10.9495943,18.8150749 C11.0916042,18.8283396 11.1313983,18.9211923 11.1196941,19.0616417 C11.0845818,19.4556804 11.0611735,19.8504994 11.0330836,20.2437578 C11.0424469,20.2445381 11.05103,20.2453184 11.0611735,20.2468789 C11.028402,20.7134831 10.9925094,21.1808677 10.9636392,21.6482522 C10.9550562,21.7941635 10.8700062,21.863608 10.7475031,21.872191 C10.536829,21.8870162 10.323814,21.8893571 10.1139201,21.872191 C10.0593009,21.8675094 9.97815231,21.7777778 9.96644819,21.7176966 C9.78620474,20.7618602 9.61376404,19.8029026 9.44834582,18.8447253 C9.44132335,18.8018102 9.51779026,18.6972534 9.55134207,18.7011548 M9.5411985,23.2517166 C9.42961923,23.2283084 9.3133583,23.2173845 9.20724095,23.1807116 C9.04884519,23.1253121 9.02153558,22.9950062 9.14950062,22.8896692 C9.4335206,22.6571473 9.75655431,22.4917291 10.1264045,22.4753433 C10.2309613,22.4714419 10.3597066,22.5658552 10.4385144,22.6509051 C10.4681648,22.6821161 10.3995006,22.8256866 10.3511236,22.9037141 C10.1654182,23.2088015 9.88451935,23.2977528 9.5411985,23.2517166 M12.2924469,18.897784 C12.5436954,18.9578652 12.7957241,19.0163858 13.0446317,19.0811486 C13.329432,19.1537141 13.4191635,19.2801186 13.4019975,19.5750624 C13.3926342,19.7381398 13.3801498,19.900437 13.3676654,20.0635144 C13.3739076,20.0666355 13.3817104,20.068196 13.386392,20.0705368 C13.2693508,20.5730337 13.1499688,21.0747503 13.0352684,21.5788077 C13.0048377,21.7114544 12.9993758,21.8487828 12.9728464,21.9814295 C12.9377341,22.1593321 12.8394195,22.2615481 12.64201,22.2287765 C12.6092385,22.2225343 12.5741261,22.2225343 12.5405743,22.2201935 C11.7961923,22.1577715 11.6877341,22.0235643 11.7634207,21.2862047 C11.8375468,20.5691323 11.9046504,19.8497191 11.9725343,19.1310861 C11.9951623,18.9016854 12.0700687,18.8447253 12.2924469,18.897784 M14.4483458,19.4400749 C14.468633,19.443196 14.4912609,19.4416355 14.5092072,19.4502185 C14.9305556,19.6320225 15.3511236,19.815387 15.7724719,19.9964107 C15.9519351,20.0736579 16.1329588,20.1470037 16.3467541,20.2367353 C16.289794,20.4614544 16.2164482,20.7064607 16.1696317,20.9561486 C16.1274969,21.1808677 16.1290574,21.4126092 16.0838015,21.6342072 C16.0385456,21.8511236 15.9597378,22.062578 15.8926342,22.2748127 C15.8700062,22.3458177 15.8309925,22.4121411 15.8099251,22.4839263 C15.7420412,22.7195693 15.6757179,22.7827715 15.4322722,22.7421973 C14.9235331,22.6579276 14.4179151,22.5525905 13.8849875,22.4511548 C13.9778402,21.6849251 14.065231,20.9561486 14.1526217,20.2265918 C14.1775905,20.0252809 14.2088015,19.8224095 14.2228464,19.6195381 C14.2322097,19.4627029 14.3094569,19.4190075 14.4483458,19.4400749 M13.014201,23.9726904 C12.9759675,23.9633271 12.9299313,23.8572097 12.9408552,23.8080524 C13.0157615,23.4897004 13.3754682,23.0293383 13.8186642,23.0566479 C14.0207553,23.0675718 14.2267478,23.0948814 14.4194757,23.1541823 C14.7011548,23.2423533 14.7362672,23.4928215 14.5131086,23.6832085 C14.3952871,23.7846442 14.2844881,23.8985643 14.1541823,23.9843945 C14.0332397,24.062422 13.8912297,24.1092385 13.7578027,24.1724407 C13.7492197,24.1544944 13.741417,24.1357678 13.7320537,24.1162609 C13.4925094,24.071005 13.2498439,24.0319913 13.014201,23.9726904 M11.4754994,23.6785268 C11.0697566,23.6145443 11.0174782,23.5224719 11.227372,23.1822722 C11.3077403,23.0504057 11.4060549,22.9240012 11.5152934,22.8155431 C11.7189451,22.6103308 12.2003745,22.6524657 12.3603308,22.8881086 C12.4414794,23.0059301 12.4578652,23.1416979 12.3158552,23.2478152 C12.1738452,23.3539326 12.0474407,23.4850187 11.8937266,23.5677278 C11.7704432,23.6340512 11.6167291,23.6426342 11.4754994,23.6785268 M11.2913546,24.4775281 C11.4076155,24.5095194 11.5714732,24.5617978 11.6097066,24.6499688 C11.7056804,24.8746879 11.747035,25.1251561 11.7977528,25.3686017 C11.8024345,25.3888889 11.715824,25.4497503 11.6658864,25.4559925 C11.5948814,25.4684769 11.5191948,25.4497503 11.4435081,25.4435081 C11.1360799,25.5012484 11.0588327,25.2765293 10.9792447,25.0603933 C10.9511548,24.9839263 10.9410112,24.9027778 10.9246255,24.8224095 C10.8583021,24.4978152 10.9691011,24.3870162 11.2913546,24.4775281 M13.900593,25.1891386 C13.9200999,25.3849875 13.9856429,25.5480649 14.0886392,25.7150437 C14.2041199,25.9015293 14.1479401,25.9826779 13.931804,25.9616105 C13.7289326,25.9413233 13.528402,25.8945069 13.3255306,25.8695381 C13.2318976,25.8570537 13.133583,25.8648564 12.9892322,25.8625156 C12.9065231,25.6682272 12.801186,25.4552122 12.7231586,25.2304931 C12.6388889,24.9870474 12.7691948,24.8231898 13.0282459,24.8419164 C13.2654494,24.8583021 13.5049938,24.8824906 13.7336142,24.9417915 C13.8085206,24.9612984 13.8927903,25.0978464 13.900593,25.1891386 M23.4394507,19.3573658 C24.1143883,19.1974095 24.7916667,19.0491573 25.4697253,18.897784 C25.48299,18.8946629 25.497035,18.8962235 25.5547753,18.8946629 C25.5719413,18.9250936 25.6187578,18.9711298 25.6234395,19.0210674 C25.7194132,19.997191 25.8099251,20.9733146 25.9027778,21.9494382 C25.9152622,22.0797441 25.8606429,22.1601124 25.7404806,22.1967853 C25.2855805,22.3356742 24.8291199,22.474563 24.375,22.616573 C24.2563983,22.6532459 24.1978777,22.6126717 24.1666667,22.4964107 C23.8966916,21.5046816 23.6228152,20.5137328 23.3583021,19.5212235 C23.3450375,19.474407 23.3996567,19.3667291 23.4394507,19.3573658 M29.0355805,18.707397 C28.9216604,19.7599875 28.8108614,20.7915106 28.696161,21.849563 C28.4519351,21.8480025 28.227216,21.8331773 28.0032772,21.8456617 C27.7059925,21.8628277 27.4087079,21.8932584 27.1129838,21.9330524 C26.9709738,21.9533396 26.8796816,21.9486579 26.852372,21.7777778 C26.6892946,20.7649813 26.6120474,19.7506242 26.7439139,18.7284644 C26.7462547,18.7097378 26.7595194,18.6917915 26.7751248,18.6551186 C27.5148252,18.6715044 28.2615481,18.6886704 29.0355805,18.707397 M30.6047129,18.7604557 C31.0752185,18.8611111 31.5433833,18.977372 32.0060861,19.1084582 C32.2823034,19.1880462 32.3377029,19.4728464 32.21598,19.8005618 C32.0021848,20.3732834 31.8110175,20.9522472 31.6190699,21.531211 C31.5660112,21.6911673 31.5410424,21.8628277 31.5059301,22.0290262 C31.4817416,22.1437266 31.4161985,22.1803995 31.2999376,22.1624532 C30.8824906,22.1008115 30.4634831,22.0469725 30.0468165,21.9868914 C29.8790574,21.9634831 29.7705993,21.8690699 29.7682584,21.6888265 C29.7651373,21.4391386 29.769819,21.1878901 29.7721598,20.9366417 C29.7581149,20.9327403 29.7456305,20.9272784 29.7323658,20.9225968 C29.835362,20.5098315 29.9414794,20.0978464 30.0382335,19.6843009 C30.0819288,19.4993758 30.1139201,19.3113296 30.1388889,19.1240637 C30.1786829,18.826779 30.3175718,18.6972534 30.6047129,18.7604557 M31.4466292,26.0365169 C31.8828027,26.0294944 32.318196,26.0404182 32.752809,26.0404182 C32.8659488,26.0404182 32.9049625,26.0942572 32.8831149,26.1925718 C32.8682896,26.2635768 32.84098,26.335362 32.8035268,26.397784 C32.6232834,26.6942884 32.4266542,26.9806492 32.2596754,27.2849563 C32.1605805,27.4644195 32.105181,27.6680712 32.0279338,27.8615793 C32.0131086,27.8974719 31.9998439,27.9442884 31.9709738,27.9606742 C31.542603,28.1970974 31.1072097,28.4210362 30.5992509,28.406211 C30.5906679,28.383583 30.5828652,28.3609551 30.5750624,28.3391074 C30.451779,28.383583 30.3308365,28.4444444 30.204432,28.4733146 C30.1287453,28.4897004 30.0241885,28.4795568 29.9656679,28.4366417 C29.9274345,28.4077715 29.9196317,28.2821473 29.9500624,28.2275281 C30.1583958,27.8600187 30.3784332,27.5018727 30.5984707,27.142166 C30.8052434,26.8050874 31.0120162,26.468789 31.2320537,26.1418539 C31.2718477,26.0825531 31.3732834,26.0380774 31.4466292,26.0365169 M31.4934457,25.2578027 C31.303839,25.2593633 31.1626092,25.1836767 31.045568,25.0245006 C30.585206,24.3909176 30.1123596,23.7674782 29.6457553,23.1377965 C29.6129838,23.0941011 29.5778714,23.0519663 29.5560237,23.0020287 C29.5357366,22.9567728 29.5068664,22.8904494 29.525593,22.8576779 C29.5435393,22.8264669 29.6176654,22.8147628 29.6660424,22.8171036 C29.9180712,22.8288077 30.1685393,22.8506554 30.4197878,22.8686017 C30.4197878,22.8732834 30.4197878,22.8787453 30.4190075,22.883427 C30.7030275,22.9193196 31.0260612,22.8803059 31.258583,23.0090512 C31.4840824,23.1323346 31.6143883,23.4264981 31.7860487,23.6473159 C32.1161049,24.0717853 32.4485019,24.4946941 32.7723159,24.9230649 C32.8183521,24.9847066 32.8526841,25.0861423 32.8347378,25.1524657 C32.8222534,25.1969413 32.7067728,25.232834 32.6365481,25.2359551 C32.255774,25.2507803 31.875,25.2539014 31.4934457,25.2578027 M28.8412921,26.0443196 C29.1596442,26.0162297 29.4795568,26.0131086 29.8002497,26.0115481 C29.8650125,26.0115481 29.9742509,26.0435393 29.9867353,26.0825531 C30.0124844,26.1691635 30.0249688,26.2924469 29.9812734,26.3650125 C29.579432,27.0274657 29.1377965,27.6657303 28.7695069,28.3453496 C28.6485643,28.5685081 28.5479089,28.6215668 28.3317728,28.6028402 C28.156211,28.5856742 27.9775281,28.5958177 27.801186,28.5950375 C27.8004057,28.5919164 27.8004057,28.5911361 27.801186,28.5887953 C27.5834894,28.5848939 27.3642322,28.5919164 27.1480961,28.5731898 C27.0638265,28.5661673 26.9491261,28.51701 26.9155743,28.4514669 C26.8820225,28.3859238 26.9038702,28.2563983 26.9530275,28.193196 C27.4695693,27.5190387 27.991573,26.8464419 28.5260612,26.1839888 C28.5916042,26.1044007 28.7312734,26.0536829 28.8412921,26.0443196 M28.4917291,25.272628 C28.4823658,25.2874532 28.4722222,25.3022784 28.4612984,25.3171036 C28.3473783,25.2304931 28.2022472,25.1672909 28.125,25.0572722 C27.6864856,24.4338327 27.2643571,23.7994694 26.8391074,23.1658864 C26.6682272,22.914638 26.710362,22.8233458 27.0076467,22.7921348 C27.3049313,22.7617041 27.6014357,22.7226904 27.9010612,22.7086454 C27.9845506,22.7063046 28.102372,22.7554619 28.1523096,22.8194444 C28.6969413,23.5263733 29.2314295,24.2395443 29.7635768,24.9542759 C29.8111735,25.0190387 29.8213171,25.1118914 29.849407,25.1922597 C29.7651373,25.2203496 29.6800874,25.272628 29.5950375,25.2734082 C29.2275281,25.2819913 28.8600187,25.2741885 28.4917291,25.272628 M26.2437578,25.3350499 C25.7521848,25.4559925 25.4939139,25.170412 25.2473471,24.8060237 C24.9836142,24.4182272 24.676186,24.0600811 24.3898252,23.6855493 C24.1978777,23.4358614 24.2361111,23.3328652 24.5450999,23.281367 C24.8595506,23.2275281 25.1747815,23.1768102 25.491573,23.1479401 C25.5641386,23.1401373 25.6694757,23.210362 25.7194132,23.2743446 C26.1462235,23.8236579 26.5660112,24.3776529 26.9787765,24.9363296 C27.0349563,25.0096754 27.0942572,25.1470037 27.0614856,25.2008427 C27.0193508,25.2757491 26.8906055,25.3241261 26.7946317,25.3342697 C26.613608,25.3545568 26.4279026,25.3373908 26.2437578,25.3350499 M25.9285268,25.9951623 C26.0744382,26.0240325 26.2265918,26.0209114 26.3756242,26.0310549 L26.3756242,26.0224719 C26.559769,26.0365169 26.7431336,26.0450999 26.9257179,26.0630462 C27.1122035,26.0817728 27.1629213,26.1754057 27.0724095,26.3330212 C26.747035,26.8987203 26.4177591,27.4605181 26.0900437,28.025437 C25.8879526,28.375 25.6195381,28.5724095 25.1880462,28.4623908 C24.9321161,28.3968477 24.667603,28.3632959 24.4046504,28.3219413 C24.2704432,28.3032147 24.224407,28.2189451 24.2579588,28.1073658 C24.3164794,27.923221 24.3656367,27.7211298 24.4733146,27.5658552 C24.8041511,27.0922285 25.1607366,26.6381086 25.5087391,26.1754057 C25.6140762,26.034176 25.7389201,25.9569288 25.9285268,25.9951623 M35.0491573,26.0450999 C35.1154806,26.0513421 35.2262797,26.0864544 35.2325218,26.1239076 C35.2481273,26.2136392 35.2473471,26.3377029 35.1958489,26.4032459 C34.9009051,26.7715356 34.5591448,27.093789 34.1377965,27.315387 C33.8974719,27.440231 33.647784,27.5494694 33.394975,27.647784 C33.329432,27.6743134 33.2389201,27.6376404 33.1608926,27.630618 C33.1882022,27.5619538 33.2030275,27.480025 33.2482834,27.4238452 C33.6134519,26.9736267 34.0831773,26.5975343 34.2431336,25.9842385 C34.5349563,26.0053059 34.7932272,26.0185705 35.0491573,26.0450999 M34.951623,25.2406367 C34.8252185,25.2710674 34.7003745,25.2968165 34.5731898,25.3249064 C34.5536829,25.3280275 34.5326155,25.3280275 34.5131086,25.329588 C34.502965,25.3412921 34.494382,25.3553371 34.4842385,25.3678215 C34.3625156,25.2819913 34.1916355,25.2211298 34.1284332,25.1033084 C33.883427,24.642166 33.5307428,24.2832397 33.1452871,23.9438202 C33.0594569,23.8673533 33.0391698,23.71598 32.9884519,23.5981586 C33.1093945,23.5981586 33.2482834,23.5575843 33.3473783,23.6028402 C33.7780899,23.7986891 34.2205056,23.9875156 34.613764,24.2457865 C34.8322409,24.3901373 34.982834,24.6546504 35.1287453,24.8871723 C35.2379838,25.0627341 35.1544944,25.1938202 34.951623,25.2406367 M33.5978464,19.5290262 C33.9731586,19.6593321 34.3071161,19.7763733 34.6410737,19.8910737 C34.8470662,19.9620787 35.0530587,20.0362047 35.261392,20.0978464 C35.3979401,20.1384207 35.4556804,20.2234707 35.4275905,20.3561174 C35.394819,20.5074906 35.3682896,20.6682272 35.3019663,20.8055556 C34.9898564,21.4555243 34.6652622,22.1015918 34.3422285,22.7453184 C34.1885144,23.0519663 34.1565231,23.0418227 33.8490949,22.9076155 C33.5580524,22.7819913 33.2482834,22.687578 32.9400749,22.6150125 C32.6630774,22.55103 32.5788077,22.440231 32.6599563,22.1764981 C32.8144507,21.6833645 32.9447566,21.1839888 33.1117353,20.6947566 C33.227216,20.3553371 33.3895131,20.0362047 33.4152622,19.6679151 C33.4191635,19.6156367 33.5362047,19.5719413 33.5978464,19.5290262 M43.7141074,23.065231 L32.8347378,12.1858614 L32.1754057,11.5257491 C31.4302434,10.781367 30.3035268,10.6019039 29.2602996,10.883583 L3.17805868,17.8623596 L3.0727216,17.8912297 C2.43367665,18.0847378 1.83130462,18.43196 1.32646692,18.9367978 C-0.309769039,20.5730337 -0.500156055,23.0355805 1.1360799,24.6710362 L21.6354557,45.1665106 C22.9236891,46.4539638 24.9695693,46.5195069 26.3366105,45.3654806 L26.755618,44.9464732 L43.7148876,27.9879838 C45.0741261,26.627965 45.0741261,24.4252497 43.7141074,23.065231" id="Fill-24" fill="#ECB433"></path>
                        </g>
                    </g>
                </g>
            </g>
        </g>
    </g>
</svg>