<svg xmlns="http://www.w3.org/2000/svg" xmlns:xlink="http://www.w3.org/1999/xlink" width="202.5" height="62.855" viewBox="0 0 202.5 62.855"><defs><path id="a" d="M59.551 56.511v1.427h1.427v2.736c-.468.261-.947.521-1.427.753.323.454.647.946.973 1.479.44-.519.868-1.024 1.309-1.531.571.481 1.142.805 1.726.961.817.208 1.905.312 3.267.312H70.6c.156-.61.378-1.155.662-1.673-.855.181-1.88.26-3.074.26-2.087 0-3.397-.039-3.917-.144-.711-.053-1.335-.271-1.88-.676v-3.903h-2.84zm2.84 0zm-2.84-2.178a9.885 9.885 0 0 1 1.57 1.426l.972-1.219a8.875 8.875 0 0 0-1.569-1.22l-.973 1.013zm5.227 2.837h1.362v.365h-1.362v-.365zm2.735 0h1.311v.365h-1.311v-.365zm-2.735-1.412h1.362v.351h-1.362v-.351zm2.735 0h1.311v.351h-1.311v-.351zm-3.448-3.139h2.075v.507h-2.075v-.507zm3.448 0h2.18v.507h-2.18v-.507zm-7.145-.415c.52.391 1.025.869 1.519 1.427l.856-1.09v1.039h.92v.714h2.478v.35h-2.685v4.009h2.685v.507h-3.14v1.153h3.14v.713h1.374v-.713h3.191V59.16h-3.191v-.507h2.634v-4.008h-2.634v-.35h2.374v-.714h1.114v-2.179h-8.261v.905a9.234 9.234 0 0 0-1.413-1.114l-.961 1.011z"/></defs><clipPath id="b"><use xlink:href="#a" overflow="visible"/></clipPath><path clip-path="url(#b)" fill="#555" d="M54.551 46.193h21.711v21.713H54.551z"/><defs><path id="c" d="M74.083 57.483h1.115v.351h-1.115v-.351zm2.491 0h1.062v.351h-1.062v-.351zm-2.491-1.528h1.115v.363h-1.115v-.363zm2.491-.001h1.062v.363h-1.062v-.363zm-4.006-4.345l.454 1.207a59.195 59.195 0 0 0 2.179-.157v.468h-2.684v1.257h2.684v.312h-2.478v4.411h2.478v.402h-2.478v1.218h2.478v.469c-.817.038-1.698.063-2.633.09l.261 1.412a143.4 143.4 0 0 0 6.069-.504l-.038-.247.803.805c.765-.753 1.349-1.7 1.737-2.841.429-1.297.675-2.971.728-5.021h.621a80.355 80.355 0 0 1-.207 5.525c-.052.505-.105.804-.17.909-.077.143-.168.207-.271.207-.312 0-.702-.078-1.169-.247l.144 1.413c.388.104.726.155 1.024.155.401 0 .765-.115 1.076-.335.286-.249.48-.571.557-.974.274-1.79.417-4.462.441-8.016h-2.035v-2.335h-1.517v2.335h-1.207v1.361h1.193c-.064 1.765-.248 3.14-.559 4.125-.296.985-.725 1.804-1.271 2.465l-.078-.454c-.647.039-1.347.078-2.126.116v-.414h2.179v-1.218h-2.179v-.402h2.425v-4.411h-2.425v-.312h2.581v-1.257h-2.581v-.585a70.546 70.546 0 0 0 2.581-.284l-.608-1.168a82.913 82.913 0 0 1-5.979.52"/></defs><clipPath id="d"><use xlink:href="#c" overflow="visible"/></clipPath><path clip-path="url(#d)" fill="#555" d="M67.518 46.089h21.656v21.763H67.518z"/><defs><path id="e" d="M94.141 55.954V54.19h.959v2.321h-.974c0-.182.015-.363.015-.557m-8.13-3.114c-.195.493-.416.985-.676 1.453l1.116.855c.285-.467.533-.973.738-1.519h.365v1.622h-2.075v1.362h2.075v3.658h-.558v-2.996h-1.312V62.4h1.312v-.766h3.578a4.354 4.354 0 0 0-.233.259l1.22.961c.727-.728 1.336-1.636 1.802-2.775.169-.403.312-.83.429-1.297.234.776.532 1.452.881 2.021.546.909 1.193 1.598 1.958 2.052l.752-1.481c-.675-.361-1.22-.893-1.635-1.594a6.486 6.486 0 0 1-.79-1.895h2.322v-1.374h-.751v-3.749h-2.387v-1.568h-1.466v1.568h-1.413v1.428h1.413v1.764c0 .182-.013.376-.013.558h-1.66v1.374h1.465a7.842 7.842 0 0 1-.336 1.193 7.844 7.844 0 0 1-1.336 2.295v-4.097h-1.309v2.996h-.56v-3.658h1.921v-1.363h-1.921V53.63h1.725v-1.373H87.67c.051-.194.116-.415.193-.648l-1.32-.468c-.13.546-.298 1.116-.532 1.699"/></defs><clipPath id="f"><use xlink:href="#e" overflow="visible"/></clipPath><path clip-path="url(#f)" fill="#555" d="M80.336 46.141h22.048v21.714H80.336z"/><path fill="#555" d="M98.855 55.862h10.792v1.519H98.855z"/><defs><path id="g" d="M120.677 53.982h.868v5.979h-.868v-5.979zm-1.362-1.362v9.676h1.36v-.96h.869v.752h1.362V52.62h-3.591zm-1.622 1.92a101.998 101.998 0 0 1-.209 5.511c-.051.507-.115.818-.181.923-.065.143-.155.206-.272.206-.285 0-.634-.063-1.025-.193.234-.52.429-1.089.598-1.711.26-.987.469-2.558.598-4.735h.491m-4.774-1.117h.559v5.979h-.559v-5.979zm2.998-2.284c-.028.727-.053 1.399-.079 2.036h-.83v1.361h.766c-.117 1.843-.284 3.193-.492 4.021-.117.455-.259.896-.431 1.324v-7.82h-3.292v9.31h1.36v-.595h1.531a8.59 8.59 0 0 1-.714 1.152l1.168.974c.286-.403.559-.844.817-1.336l.089.869c.468.129.869.206 1.221.206.402 0 .752-.116 1.051-.337.286-.258.467-.583.544-.998.26-1.815.404-4.525.428-8.132h-1.79c.026-.622.04-1.31.065-2.036h-1.412z"/></defs><clipPath id="h"><use xlink:href="#g" overflow="visible"/></clipPath><path clip-path="url(#h)" fill="#555" d="M106.559 46.139h21.349v21.765h-21.349z"/><defs><path id="i" d="M129.27 55.72v1.855h.946c-.311.414-.662.685-1.051.842l.494.842c1.062-.544 1.594-1.296 1.596-2.243V55.72h-1.985z"/></defs><clipPath id="j"><use xlink:href="#i" overflow="visible"/></clipPath><path clip-path="url(#j)" fill="#555" d="M124.166 50.72h12.09v13.539h-12.09z"/><defs><path id="k" d="M144.229 56.823l1.154.401c.206-1.037.338-2.205.416-3.488l-1.271-.209a32.567 32.567 0 0 1-.299 3.296m-3.71-4.968l.468 1.271c.298-.039.596-.091.906-.143v1.311h-1.011v1.361h.959a12.59 12.59 0 0 1-.688 1.713c-.4.855-.777 1.517-1.142 1.983l.87 1.064c.376-.57.713-1.194 1.011-1.894v4.383h1.31V58.12c.233.286.469.598.715.934l.817-1.167c-.44-.467-.96-.932-1.53-1.414v-.816h1.024v-1.361h-1.024v-1.558c.454-.091.895-.194 1.323-.324l-.61-1.218c-1.038.284-2.18.503-3.398.659m5.423-.66v3.022c-.027 2.177-.235 3.853-.599 4.992-.361 1.116-.869 2.024-1.529 2.724l.972.973c.765-.778 1.337-1.726 1.727-2.893.012-.052.026-.104.052-.168.064.311.143.583.221.829a8.267 8.267 0 0 0 1.036 2.23l1.22-1.166a7.387 7.387 0 0 1-1.465-2.854c-.183-.57-.324-1.246-.454-1.998l.039-.35.959.532c.375-.909.687-1.998.921-3.281l-1.22-.416a17.554 17.554 0 0 1-.597 2.334c.014-.414.025-.842.038-1.31v-3.201h-1.321zm-7.497-.001v2.178h-.959v1.427h.96v2.205c-.378.117-.768.221-1.168.324l.506 1.466c.22-.077.44-.155.662-.247v2.128c0 .284-.027.505-.053.648-.04.104-.104.156-.194.156-.298 0-.583-.04-.869-.144l.259 1.466c.246.065.52.104.805.104.57 0 .959-.155 1.192-.441.182-.26.286-.739.286-1.44v-3.088c.297-.128.596-.282.907-.452l-.208-1.22a7.275 7.275 0 0 1-.7.273v-1.738h.855v-1.427h-.855v-2.178h-1.426zm8.818.001z"/></defs><clipPath id="l"><use xlink:href="#k" overflow="visible"/></clipPath><path clip-path="url(#l)" fill="#555" d="M132.278 46.193h21.763v21.713h-21.763z"/><defs><path id="m" d="M151.626 55.976a11.692 11.692 0 0 1-1.023 1.754l1.167.866c.39-.505.739-1.048 1.052-1.646.31.311.623.662.921 1.038l1.115-1.22a13.83 13.83 0 0 0-1.375-1.231c.13-.312.26-.688.415-1.103l-1.479-.508a11.665 11.665 0 0 1-.793 2.05m6.681-.426c-.259.493-.568.96-.921 1.426l1.169.857c.271-.337.518-.688.75-1.076.443.336.857.738 1.272 1.18l1.063-1.168a16.657 16.657 0 0 0-1.646-1.336c.13-.322.286-.687.44-1.101l-1.427-.455a9.87 9.87 0 0 1-.7 1.673m-2.839-4.356v1.064-.001h-4.67v1.427h4.67V56.9c-.571.727-1.22 1.4-1.959 2.023-.921.829-2.023 1.53-3.319 2.102l.764 1.321c.894-.375 1.868-.982 2.918-1.84a12.114 12.114 0 0 0 1.597-1.568v3.917h1.464v-3.866c.571.7 1.143 1.26 1.715 1.674.854.647 1.736 1.14 2.645 1.529l.803-1.518a10.361 10.361 0 0 1-3.204-1.814 12.265 12.265 0 0 1-1.958-2.051v-3.125h4.515v-1.427h-4.515v-1.063h-1.466z"/></defs><clipPath id="n"><use xlink:href="#m" overflow="visible"/></clipPath><path clip-path="url(#n)" fill="#555" d="M145.189 46.194h21.905v21.661h-21.905z"/><defs><path id="o" d="M170.349 55.915h1.063v1.309h-1.063v-1.309zm-5.16-2.998h1.619v1.83h-1.619v-1.83zm3.5.169a7.07 7.07 0 0 1-.467.753v-2.283h-4.462v4.553h1.778v4.654c-.155.026-.299.055-.455.079V57.17h-1.414v3.892c-.155.026-.31.039-.466.066l.506 1.465a50.987 50.987 0 0 0 4.864-1.116l-.195-1.258c-.467.105-.934.194-1.427.286v-1.814h1.218v-1.364h-1.218v-1.218h1.271v-.649l.352.35c.103-.104.207-.205.311-.337v5.656c0 .855.414 1.31 1.258 1.36.181.104.752.156 1.725.156.922 0 1.596-.039 2.023-.091.389-.065.648-.221.779-.454.195-.39.323-.791.389-1.232l-1.466-.648c-.078.52-.183.816-.312.909-.104.064-.246.103-.441.116a8.332 8.332 0 0 1-.973.038c-.465 0-.844-.038-1.142-.13-.259-.053-.376-.208-.376-.481v-2.074h2.529v-4.061h-3.295c.13-.206.259-.427.389-.66a.952.952 0 0 0 .078-.144h3.438c-.039 2.697-.091 4.24-.155 4.606-.052.311-.155.452-.298.452-.351 0-.766-.025-1.258-.102l.298 1.426c.428.039.804.052 1.115.052.597 0 1.011-.245 1.26-.765.31-.415.465-2.75.465-6.992h-4.254c.103-.259.207-.519.297-.803l-1.412-.415c-.233.663-.52 1.299-.857 1.894"/></defs><clipPath id="p"><use xlink:href="#o" overflow="visible"/></clipPath><path clip-path="url(#p)" fill="#555" d="M158.204 46.194h21.854v21.452h-21.854z"/><defs><path id="q" d="M185.493 53.982h.868v5.979h-.868v-5.979zm-1.363-1.362v9.676h1.361v-.96h.868v.752h1.362V52.62h-3.591zm-1.623 1.92a99.055 99.055 0 0 1-.208 5.511c-.051.507-.117.818-.181.923-.065.143-.156.206-.272.206-.285 0-.635-.063-1.023-.193.232-.52.428-1.089.596-1.711.26-.987.467-2.558.597-4.735h.491m-4.772-1.117h.558v5.979h-.558v-5.979zm2.997-2.284c-.028.727-.055 1.399-.078 2.036h-.83v1.361h.765c-.118 1.843-.286 3.193-.494 4.021-.116.455-.259.896-.427 1.324v-7.82h-3.294v9.31h1.361v-.595h1.529a8.693 8.693 0 0 1-.714 1.152l1.168.974c.286-.403.559-.844.817-1.336l.09.869c.467.129.87.206 1.22.206.402 0 .752-.116 1.051-.337a1.72 1.72 0 0 0 .545-.998c.26-1.815.402-4.525.429-8.132h-1.789c.024-.622.037-1.31.063-2.036h-1.412z"/></defs><clipPath id="r"><use xlink:href="#q" overflow="visible"/></clipPath><path clip-path="url(#r)" fill="#555" d="M171.373 46.139h21.348v21.765h-21.348z"/><defs><path id="s" d="M198.456 53.982h.868v5.979h-.868v-5.979zm-1.363-1.362v9.676h1.36v-.96h.869v.752h1.362V52.62h-3.591zm-1.622 1.92a99.986 99.986 0 0 1-.209 5.511c-.05.507-.115.818-.18.923-.066.143-.157.206-.273.206-.284 0-.635-.063-1.024-.193.232-.52.43-1.089.598-1.711.259-.987.466-2.558.596-4.735h.492m-4.774-1.117h.559v5.979h-.559v-5.979zm2.997-2.284c-.027.727-.054 1.399-.077 2.036h-.831v1.361h.765c-.118 1.843-.285 3.193-.492 4.021-.116.455-.259.896-.429 1.324v-7.82h-3.293v9.31h1.36v-.595h1.53a8.59 8.59 0 0 1-.714 1.152l1.168.974c.286-.403.559-.844.817-1.336l.09.869c.468.129.869.206 1.22.206.403 0 .752-.116 1.052-.337a1.72 1.72 0 0 0 .545-.998c.259-1.815.401-4.525.428-8.132h-1.79c.025-.622.039-1.31.063-2.036h-1.412z"/></defs><clipPath id="t"><use xlink:href="#s" overflow="visible"/></clipPath><path clip-path="url(#t)" fill="#555" d="M184.336 46.139h21.348v21.765h-21.348z"/><defs><path id="u" d="M-4.375-8.334h208v80h-208z"/></defs><clipPath id="v"><use xlink:href="#u" overflow="visible"/></clipPath><path clip-path="url(#v)" fill="#72C4B3" d="M137.937 16.023c-.168.48-.408.96-.744 1.44-.359.432-.744.816-1.151 1.104-.097.048-.145.096-.192.12.048.144.072.288.12.432.096 1.153.144 2.137.191 3.001 0 .24.024.432.024.6.024 0 .048 0 .072-.024a6.383 6.383 0 0 0 1.92-1.776h.288c.24 0 .432.12.576.336.048.12.071.24.119.336a.85.85 0 0 1-.336.696c-.432.624-1.128 1.272-2.136 1.944a2.56 2.56 0 0 1-.456.216c.048 1.008.096 1.872.12 2.592 0 .432 0 .816.024 1.104a16.461 16.461 0 0 0 2.159-1.368c.097 0 .217-.024.313-.024.24 0 .432.12.576.312.048.12.072.24.096.36 0 .288-.12.528-.312.672-1.009.96-2.688 1.968-5.04 3.025a13.27 13.27 0 0 1-2.4.576.963.963 0 0 1-.768-.336c-.217-.216-.336-.457-.336-.745 0-.432.168-.672.552-.72l.792-.144v-.12c0-.336 0-.696.023-1.104v-.84c0-1.08-.12-1.92-.336-2.544-.144-.336-.216-.576-.216-.744 0-.336.096-.6.288-.768.096-.096.288-.168.528-.192.191 0 .384.072.527.192.168.144.313.36.456.6.265.816.408 1.824.408 3.024 0 .48-.048.984-.12 1.512-.048.216-.071.408-.096.576a.547.547 0 0 0 .264-.072c.48-.144.912-.312 1.345-.504a6.435 6.435 0 0 1-.049-.744c-.048-1.176-.144-2.424-.239-3.72-.072-.912-.217-2.472-.433-4.632v-.048c-.191.12-.384.216-.576.288-.119.288-.312.432-.6.432-.432 0-.672-.216-.696-.648-.048-.673-.216-1.537-.456-2.569a213.095 213.095 0 0 0-1.056-3.72c.024-.192.12-.36.264-.528.145-.192.313-.312.528-.312.192 0 .336.024.48.048.239.12.407.288.504.528.048.192.12.384.168.6.384-.144 1.008-.24 1.872-.264.863.024 1.607.168 2.208.456.72.36 1.104.768 1.104 1.248.002.24-.07.504-.165.84m-3.648 1.752c.479-.24.936-.504 1.367-.768.097-.144.217-.288.336-.432.288-.432.456-.696.456-.792-.312-.336-.84-.504-1.584-.504-.479 0-.983.048-1.56.096.048.216.072.432.12.648.144.816.264 1.488.336 2.016.217-.096.385-.192.529-.264m11.809 4.153c0 .096-.024.192-.024.288a.662.662 0 0 1-.312.36c-.336.432-.816.84-1.393 1.224-.815.504-1.56.864-2.28 1.104a19.7 19.7 0 0 0-.145 2.232c.048 1.608.745 2.784 2.041 3.6.96.553 2.088.865 3.384.913 1.608 0 2.736-.24 3.385-.697a3.996 3.996 0 0 0 1.128-1.824c.096-.384.144-.792.144-1.224a71.291 71.291 0 0 0-.359-3.72c0-.384.168-.576.504-.624.432 0 .695.216.84.624.336 1.032.504 2.328.504 3.864 0 1.2-.216 2.136-.624 2.856-.624.889-1.536 1.561-2.736 1.993-.96.288-1.943.432-3 .456-1.2 0-2.328-.24-3.359-.672a6.771 6.771 0 0 1-2.81-2.569 5.7 5.7 0 0 1-.647-2.688c0-1.512.071-3.12.264-4.824.072-1.056.168-1.896.312-2.52a.524.524 0 0 1-.384-.168c-.191-.144-.288-.36-.312-.649 0-.36.168-.624.527-.768.192-.072.433-.144.721-.192a7.438 7.438 0 0 1 1.873-.216c.96 0 1.68.096 2.16.288.695.312 1.056.864 1.056 1.633a3.8 3.8 0 0 1-.648 1.728.738.738 0 0 1 .19.192m.624 2.52c-.288-.024-.432-.216-.432-.576 0-.096.096-.312.287-.624.192-.504.408-1.056.648-1.68.696-2.281 1.176-4.273 1.416-5.977.096-.864.144-1.56.168-2.088-1.968.864-3.528 1.296-4.704 1.296-.216 0-.432 0-.624-.024-.6-.096-1.032-.456-1.32-1.08-.24-.528-.36-1.248-.36-2.112 0-.336.096-.6.337-.768.144-.192.36-.288.672-.288.144 0 .288.024.408.048.216.168.336.384.336.624-.024.672-.024 1.2-.024 1.536.024.312.24.456.648.456.384 0 .983-.144 1.775-.432 1.272-.528 2.137-.888 2.616-1.056a4.72 4.72 0 0 1 1.225-.168c.527.048.792.432.792 1.2 0 1.44-.145 2.832-.408 4.2a24.932 24.932 0 0 1-2.424 7.033c-.24.336-.576.48-1.032.48m-4.105-4.56c0 .216-.023.432-.023.672-.096.576-.168 1.248-.264 2.016-.049.24-.072.48-.072.696.336-.144.792-.336 1.319-.6.744-1.104 1.129-1.944 1.129-2.544-.049-.264-.456-.408-1.248-.408-.217 0-.48.024-.769.072h-.096l.024.096zm19.703.816a6.884 6.884 0 0 1-.527 1.536.712.712 0 0 1 .288.24c.023.072.048.144.048.24a1.199 1.199 0 0 1-.24.576c-.528.576-1.224 1.104-2.04 1.632-.96.648-1.872 1.128-2.736 1.464a.99.99 0 0 1-.359.096c-.192 0-.36-.096-.504-.336-.145-.168-.217-.432-.217-.768 0-.264.145-.456.433-.576-.048-.672-.168-1.464-.336-2.4-.336-1.56-.602-2.856-.842-3.889.024-.144.12-.312.265-.48.145-.192.313-.312.505-.312s.36.024.479.048c.24.12.408.288.505.504.504-.12 1.296-.192 2.399-.216.792.024 1.464.168 2.017.408.647.336.983.744.983 1.201a5.943 5.943 0 0 1-.121 1.032m-4.343 3.456c.48-.216.912-.432 1.344-.672a.64.64 0 0 0 .145-.12c.288-.384.6-.984.888-1.752.24-.72.384-1.152.384-1.296-.239-.408-.647-.624-1.224-.624-.672 0-1.393.024-2.185.048.049.456.12.984.217 1.56.191 1.296.288 2.256.336 2.904.022 0 .047-.024.095-.048m4.511-6.673c-.144-.168-.216-.336-.216-.504 0-.432.192-.744.576-.888.216-.072.72-.216 1.488-.408a.707.707 0 0 0 .216-.048c.072-.864.12-1.752.168-2.688v-.72c0-.6.336-.912 1.008-.912.576 0 .864.264.912.768v.768c-.024.792-.072 1.56-.144 2.328 1.2-.24 1.944-.36 2.232-.36.792 0 1.224.456 1.32 1.344v.768a54.316 54.316 0 0 1-.168 3.097 72.473 72.473 0 0 1-.528 4.176 100.868 100.868 0 0 1-1.032 4.608c-.504 1.872-.912 2.977-1.225 3.361-.192.168-.384.264-.624.264a1.895 1.895 0 0 1-.96-.36c-1.008-.816-1.488-1.705-1.488-2.665 0-.144 0-.336.048-.528.072-.288.217-.432.456-.48.145 0 .336.12.553.336.455.384.911 1.008 1.367 1.824.049-.192.168-.552.313-1.032.408-1.632.816-3.792 1.201-6.504.216-1.44.359-3.048.456-4.873.023-.48.048-.96.048-1.392 0-.168-.12-.264-.313-.264-.624.144-1.225.312-1.849.456a46.19 46.19 0 0 1-1.488 6.697c-.768 2.304-1.775 4.632-3.023 7.032-.433.793-.816 1.393-1.128 1.801-.288.216-.528.336-.744.36-.24 0-.36-.168-.36-.48 0-.192.096-.48.336-.84.288-.865.672-1.753 1.104-2.713.84-1.92 1.655-4.176 2.424-6.768.384-1.44.695-2.953.936-4.561-.24.072-.456.144-.647.192-.288.072-.456.096-.528.096-.241 0-.48-.096-.697-.288m15.218 3.169c-.12.768-.313 1.536-.576 2.256a2.782 2.782 0 0 1-.145.36.752.752 0 0 1 .192-.048c.191.024.336.12.456.288a.894.894 0 0 1 .048.264 1.031 1.031 0 0 1-.24.552c-.576.576-1.296 1.104-2.136 1.632-1.032.672-2.016 1.152-2.928 1.464a.99.99 0 0 1-.36.096c-.216 0-.384-.096-.528-.336-.12-.168-.168-.432-.168-.768 0-.24.145-.432.433-.576a.341.341 0 0 0 .144-.048c-.048-.864-.191-1.848-.384-3-.336-1.968-.624-3.601-.888-4.873.023-.192.119-.36.264-.528a.673.673 0 0 1 .552-.288c.168 0 .313.024.456.048.24.096.433.288.528.528 0 .096.023.168.048.24.648-.096 1.56-.168 2.712-.192.696.024 1.272.168 1.752.456.576.36.864.768.864 1.249 0 .36-.048.768-.096 1.224m-4.393 4.536a18.308 18.308 0 0 0 1.824-.864.732.732 0 0 1 .24-.312c.144-.504.312-1.248.504-2.256.144-.912.216-1.464.216-1.68-.192-.456-.456-.697-.84-.697-.792 0-1.632.024-2.544.024.071.601.144 1.297.239 2.065.192 1.68.288 2.904.337 3.72h.024zm13.728-4.488a6.836 6.836 0 0 1-.528 1.536c.12.048.216.144.288.24.023.072.048.144.048.24a1.189 1.189 0 0 1-.24.576c-.527.576-1.224 1.104-2.04 1.632-.96.648-1.872 1.128-2.735 1.464a.99.99 0 0 1-.36.096c-.192 0-.36-.096-.504-.336-.145-.168-.216-.432-.216-.768 0-.264.144-.456.432-.576-.048-.672-.168-1.464-.336-2.4-.337-1.56-.601-2.856-.841-3.889.023-.144.12-.312.264-.48.145-.192.313-.312.505-.312s.36.024.48.048c.24.12.408.288.504.504.504-.12 1.296-.192 2.399-.216.792.024 1.465.168 2.017.408.647.336.983.744.983 1.201a6.133 6.133 0 0 1-.12 1.032m-4.345 3.456c.48-.216.912-.432 1.345-.672a.636.636 0 0 0 .144-.12c.288-.384.6-.984.888-1.752.24-.72.385-1.152.385-1.296-.24-.408-.648-.624-1.225-.624-.672 0-1.392.024-2.184.048.048.456.12.984.216 1.56.192 1.296.288 2.256.336 2.904.024 0 .047-.024.095-.048m4.513-6.673c-.145-.168-.217-.336-.217-.504 0-.432.192-.744.576-.888.216-.072.721-.216 1.488-.408.072 0 .144-.024.216-.048.072-.864.12-1.752.168-2.688v-.72c0-.6.336-.912 1.008-.912.576 0 .864.264.912.768v.768c-.023.792-.071 1.56-.144 2.328 1.201-.24 1.944-.36 2.232-.36.792 0 1.225.456 1.32 1.344v.768a54.316 54.316 0 0 1-.168 3.097 70.751 70.751 0 0 1-.528 4.176 102.179 102.179 0 0 1-1.031 4.608c-.505 1.872-.913 2.977-1.226 3.361-.191.168-.384.264-.624.264-.336-.024-.647-.144-.96-.36-1.008-.816-1.488-1.705-1.488-2.665 0-.144 0-.336.049-.528.071-.288.216-.432.456-.48.144 0 .336.12.552.336.456.384.912 1.008 1.368 1.824.048-.192.168-.552.312-1.032.408-1.632.817-3.792 1.201-6.504.216-1.44.36-3.048.456-4.873.023-.48.048-.96.048-1.392 0-.168-.12-.264-.312-.264-.625.144-1.226.312-1.85.456a45.928 45.928 0 0 1-1.488 6.697c-.768 2.304-1.775 4.632-3.023 7.032-.432.793-.816 1.393-1.128 1.801-.288.216-.528.336-.744.36-.24 0-.36-.168-.36-.48 0-.192.097-.48.336-.84.288-.865.673-1.753 1.104-2.713.84-1.92 1.656-4.176 2.424-6.768.384-1.44.696-2.953.937-4.561-.24.072-.456.144-.648.192-.288.072-.456.096-.528.096-.24 0-.48-.096-.696-.288m15.217 3.169c-.12.768-.313 1.536-.576 2.256a2.794 2.794 0 0 1-.144.36.736.736 0 0 1 .191-.048c.192.024.336.12.456.288a.863.863 0 0 1 .048.264 1.024 1.024 0 0 1-.24.552c-.575.576-1.296 1.104-2.136 1.632-1.032.672-2.016 1.152-2.928 1.464a.99.99 0 0 1-.36.096c-.216 0-.384-.096-.527-.336-.12-.168-.168-.432-.168-.768 0-.24.144-.432.432-.576a.341.341 0 0 0 .144-.048c-.048-.864-.191-1.848-.384-3-.336-1.968-.624-3.601-.888-4.873.023-.192.12-.36.264-.528a.674.674 0 0 1 .552-.288c.169 0 .313.024.456.048.24.096.433.288.528.528a.71.71 0 0 0 .048.24c.648-.096 1.561-.168 2.712-.192.696.024 1.272.168 1.752.456.576.36.864.768.864 1.249-.001.36-.048.768-.096 1.224m-4.393 4.536a18.308 18.308 0 0 0 1.824-.864.732.732 0 0 1 .24-.312c.144-.504.312-1.248.504-2.256.144-.912.216-1.464.216-1.68-.191-.456-.456-.697-.84-.697-.792 0-1.632.024-2.544.024.072.601.144 1.297.24 2.065.191 1.68.288 2.904.336 3.72h.024z"/><path clip-path="url(#v)" fill="#81637C" d="M.226 7.421c0-.984.202-1.843.606-2.575a5.564 5.564 0 0 1 1.706-1.872c.732-.516 1.611-.941 2.636-1.275A21.375 21.375 0 0 1 8.558.917 39.718 39.718 0 0 1 12.513.53a87.713 87.713 0 0 1 4.359-.105c2.04 0 4.175.082 6.408.246 2.232.164 4.561.463 6.987.896.563.118.958.329 1.187.633.228.305.342.645.342 1.02 0 .234-.052.463-.158.685a2.386 2.386 0 0 1-.422.616 2.037 2.037 0 0 1-.615.448c-.234.111-.48.167-.738.167-.903 0-1.843-.047-2.822-.141a217.94 217.94 0 0 1-3.058-.316 530.105 530.105 0 0 0-3.278-.352 63.366 63.366 0 0 0-3.481-.263 78.988 78.988 0 0 1-.809 4.236 154.668 154.668 0 0 1-1.081 4.632 210.108 210.108 0 0 1-1.23 4.711 690.296 690.296 0 0 1-2.356 8.428 123.561 123.561 0 0 0-.852 3.112 4.003 4.003 0 0 1-.431 1.098c-.193.334-.41.624-.65.87-.24.247-.489.437-.747.572a1.565 1.565 0 0 1-.721.202c-.668 0-1.219-.158-1.652-.475-.434-.316-.651-.826-.651-1.529 0-.223.036-.469.106-.738.152-1.067.354-2.116.606-3.147.252-1.031.548-2.106.888-3.225s.727-2.306 1.16-3.56c.434-1.254.914-2.634 1.442-4.14a516.383 516.383 0 0 0 1.713-4.983 396.835 396.835 0 0 0 1.996-6.064c-.622.046-1.251.099-1.89.158-.639.058-1.26.137-1.863.237-.604.1-1.166.226-1.688.378-.521.152-.978.346-1.371.58s-.703.517-.932.844a1.982 1.982 0 0 0-.342 1.16c0 .023-.015.152-.044.387-.03.234-.132.489-.308.764-.176.277-.454.529-.835.757-.381.229-.923.342-1.626.342s-1.248-.117-1.635-.352c-.386-.234-.668-.491-.843-.773a2.27 2.27 0 0 1-.352-1.125m25.752 19.705c0-.516.029-1.116.088-1.802.058-.685.138-1.409.237-2.171a61.39 61.39 0 0 1 .782-4.588c.153-.714.305-1.371.457-1.968.153-.598.305-1.09.457-1.477.094-.258.188-.463.282-.615.093-.152.202-.273.325-.36a1.06 1.06 0 0 1 .457-.176c.182-.03.407-.044.677-.044.304 0 .542.014.712.044.17.029.296.099.378.211.082.111.131.272.149.483s.026.498.026.861v1.574c0 .615.012 1.221.035 1.819h.194c.234-.469.498-.993.791-1.573.293-.58.633-1.122 1.019-1.626a6.046 6.046 0 0 1 1.319-1.275c.492-.345 1.06-.518 1.705-.518.223 0 .439.038.65.114.211.076.396.185.554.325.158.141.284.314.378.519.094.205.141.436.141.694 0 .199-.03.478-.088.835-.059.358-.123.733-.194 1.125-.07.393-.135.774-.193 1.143a6.022 6.022 0 0 0-.088.923c0 .421.041.773.123 1.054.082.282.19.507.325.677.135.17.287.29.457.36.17.071.349.106.536.106.528 0 1.073-.117 1.635-.352a10.568 10.568 0 0 0 1.547-.791c.551-.34 1.09-.726 1.617-1.16l-.263 4.113c-.305.2-.651.422-1.038.668-.386.246-.799.478-1.239.695a9.386 9.386 0 0 1-1.371.545 4.907 4.907 0 0 1-1.45.219c-.879 0-1.588-.178-2.127-.536a3.892 3.892 0 0 1-1.283-1.406 7.105 7.105 0 0 1-.703-1.951 26.867 26.867 0 0 1-.37-2.189h-.281l-3.146 8.772c-.164.457-.32.835-.466 1.134a3.899 3.899 0 0 1-.448.729 1.34 1.34 0 0 1-.492.396c-.176.076-.37.114-.581.114-.48 0-.867-.103-1.16-.308a1.996 1.996 0 0 1-.676-.826 3.93 3.93 0 0 1-.317-1.178 11.36 11.36 0 0 1-.079-1.362"/><path clip-path="url(#v)" fill="#81637C" d="M51.853 27.056a15.5 15.5 0 0 1-1.573 1.24c-.627.439-1.304.843-2.03 1.212-.727.37-1.468.677-2.224.923-.756.246-1.473.369-2.153.369-.609 0-1.122-.085-1.538-.254a2.577 2.577 0 0 1-1.011-.712 2.749 2.749 0 0 1-.554-1.117 5.91 5.91 0 0 1-.167-1.45c0-.738.085-1.596.255-2.575.17-.978.378-1.992.624-3.041a114.1 114.1 0 0 1 .783-3.138c.275-1.043.518-2.004.729-2.882a1.57 1.57 0 0 1 .492-.783c.246-.216.525-.392.835-.527a4.65 4.65 0 0 1 .967-.299c.334-.064.636-.097.905-.097.492 0 .826.091 1.002.273.176.182.264.425.264.729 0 .258-.059.63-.176 1.117a42.33 42.33 0 0 1-.439 1.652c-.176.615-.364 1.277-.563 1.986a69.533 69.533 0 0 0-.562 2.127 29.822 29.822 0 0 0-.44 2.074 10.753 10.753 0 0 0-.176 1.82c0 .527.059.946.176 1.257.117.31.358.465.721.465.422 0 .891-.146 1.406-.439a12.563 12.563 0 0 0 1.565-1.063 35.954 35.954 0 0 0 1.546-1.292c.504-.446.95-.827 1.336-1.143v3.568zm-7.857-18.07c0-.27.059-.574.176-.914.117-.34.307-.659.571-.958s.615-.551 1.055-.756c.439-.205.987-.308 1.643-.308.41 0 .797.047 1.16.141.364.094.68.237.95.431.269.193.483.448.641.764.158.317.238.692.238 1.125 0 .399-.065.786-.194 1.161a2.692 2.692 0 0 1-.615 1.001 3.16 3.16 0 0 1-1.063.712c-.428.182-.941.273-1.539.273-1.031 0-1.793-.243-2.285-.73-.492-.486-.738-1.133-.738-1.942"/><path clip-path="url(#v)" fill="#81637C" d="M68.992 26.494c-.27.375-.63.814-1.081 1.318-.452.504-.958.984-1.521 1.441a9.538 9.538 0 0 1-1.81 1.161c-.645.316-1.289.474-1.934.474-.773 0-1.418-.249-1.934-.747-.515-.498-.961-1.222-1.336-2.171a8.475 8.475 0 0 1-1.037 1.002c-.41.34-.858.648-1.344.923a8.678 8.678 0 0 1-1.521.677 4.97 4.97 0 0 1-1.582.263 4.14 4.14 0 0 1-1.643-.342 4.275 4.275 0 0 1-1.415-.985 4.79 4.79 0 0 1-.985-1.564c-.246-.615-.369-1.31-.369-2.083 0-.879.123-1.781.369-2.707a14.77 14.77 0 0 1 1.02-2.716 15.37 15.37 0 0 1 1.538-2.505 12.311 12.311 0 0 1 1.942-2.057 9.491 9.491 0 0 1 2.224-1.397 5.815 5.815 0 0 1 2.382-.519c.269 0 .48.053.632.159.153.105.279.225.378.36.1.135.197.267.29.396a.828.828 0 0 0 .352.281c.141.058.284.096.431.114.146.018.296.026.448.026.129 0 .261-.003.395-.008.135-.006.267-.009.396-.009.176 0 .34.017.492.053a.826.826 0 0 1 .404.228c.118.117.208.281.273.492.064.211.097.498.097.862 0 .562-.059 1.186-.176 1.872-.117.685-.246 1.388-.387 2.109s-.27 1.441-.387 2.162a12.799 12.799 0 0 0-.175 2.048c0 .551.049.981.149 1.292s.313.466.642.466c.246 0 .503-.062.773-.185a4.82 4.82 0 0 0 .817-.483c.276-.199.551-.425.827-.677.275-.252.536-.513.782-.782a27.034 27.034 0 0 0 1.74-2.145l.844 3.903zM53.98 25.105c0 .293.021.577.062.853.041.275.114.521.219.738.106.217.246.392.422.527s.399.202.668.202c.434 0 .826-.187 1.178-.562.351-.375.656-.826.914-1.354a9.649 9.649 0 0 0 .624-1.634 10.03 10.03 0 0 0 .308-1.407l1.072-5.168c-.481 0-.949.12-1.406.361-.457.24-.888.565-1.292.975-.405.41-.777.879-1.117 1.407-.34.527-.632 1.081-.879 1.661-.246.58-.436 1.163-.571 1.749a7.37 7.37 0 0 0-.202 1.652"/><path clip-path="url(#v)" fill="#81637C" d="M66.917 27.126c0-.773.047-1.667.141-2.681.093-1.013.211-2.045.351-3.093.141-1.049.299-2.06.475-3.033.176-.972.345-1.804.51-2.496.128-.539.377-.99.747-1.353.369-.364.87-.545 1.503-.545.632 0 1.072.193 1.318.58.246.387.369.902.369 1.547 0 .176-.018.413-.053.712s-.079.627-.132.984c-.052.357-.108.727-.167 1.107-.058.381-.114.733-.166 1.055-.053.322-.097.604-.132.844a4.21 4.21 0 0 0-.053.483h.351a600.617 600.617 0 0 0 .862-1.617c.199-.375.413-.77.641-1.186.229-.416.443-.815.642-1.196a39.81 39.81 0 0 1 .914-1.661c.375-.633.803-1.066 1.283-1.301.481-.234 1.014-.351 1.6-.351s1.052.246 1.397.738c.346.492.519 1.172.519 2.039 0 .129-.026.346-.079.651-.053.304-.12.668-.202 1.089l-.273 1.389a39.68 39.68 0 0 0-.272 1.547c-.082.527-.15 1.049-.202 1.564-.053.516-.079.991-.079 1.424 0 .727.09 1.324.272 1.793.182.469.466.703.853.703.175 0 .377-.052.606-.158.228-.105.475-.243.738-.413.264-.17.533-.366.809-.589.275-.222.548-.451.817-.685a39.172 39.172 0 0 0 1.951-1.864l.299 3.938-.879.668c-.48.363-.969.726-1.467 1.09a13.14 13.14 0 0 1-1.556.975 9.636 9.636 0 0 1-1.688.703 6.185 6.185 0 0 1-1.845.273c-.645 0-1.187-.466-1.626-1.398-.44-.931-.659-2.294-.659-4.087 0-.703.046-1.461.14-2.276a77.7 77.7 0 0 1 .352-2.628h-.282l-4.605 9.141c-.234.48-.498.808-.791.984a1.942 1.942 0 0 1-1.02.264c-.48 0-.867-.103-1.16-.308a1.996 1.996 0 0 1-.676-.826 3.93 3.93 0 0 1-.317-1.178 11.36 11.36 0 0 1-.079-1.362"/><path clip-path="url(#v)" fill="#81637C" d="M90.472 28.955a9.278 9.278 0 0 1-1.978 1.362c-.685.346-1.35.518-1.995.518a4.14 4.14 0 0 1-1.643-.342 4.275 4.275 0 0 1-1.415-.985 4.79 4.79 0 0 1-.985-1.564c-.246-.615-.369-1.31-.369-2.083 0-.879.123-1.781.369-2.707a14.77 14.77 0 0 1 1.02-2.716 15.37 15.37 0 0 1 1.538-2.505 12.311 12.311 0 0 1 1.942-2.057 9.491 9.491 0 0 1 2.224-1.397 5.815 5.815 0 0 1 2.382-.519c.269 0 .48.053.632.159.153.105.279.225.378.36.1.135.197.267.29.396a.828.828 0 0 0 .352.281c.141.058.284.096.431.114.146.018.296.026.448.026.129 0 .261-.003.395-.008.135-.006.267-.009.396-.009.176 0 .34.017.492.053a.826.826 0 0 1 .404.228c.118.117.208.281.273.492.064.211.097.498.097.862 0 .304-.024.714-.071 1.23a45.93 45.93 0 0 1-.193 1.723 180.243 180.243 0 0 1-.58 4.095 274.975 274.975 0 0 1-.844 5.186c.352-.199.732-.445 1.143-.738.41-.293.867-.686 1.371-1.178a24.906 24.906 0 0 0 1.687-1.855 39.658 39.658 0 0 0 2.091-2.786l.844 3.903a7.196 7.196 0 0 1-.817 1.116c-.334.381-.703.762-1.106 1.142-.404.381-.826.75-1.267 1.108a40.359 40.359 0 0 1-4.509 3.19 49.42 49.42 0 0 1-.791 3.665c-.304 1.189-.665 2.303-1.081 3.34s-.89 1.989-1.423 2.856c-.534.867-1.137 1.611-1.811 2.232s-1.427 1.105-2.259 1.45c-.832.346-1.752.519-2.76.519a7.42 7.42 0 0 1-1.291-.123 3.57 3.57 0 0 1-1.284-.492c-.392-.246-.717-.598-.975-1.055-.258-.457-.387-1.066-.387-1.828 0-.527.135-1.122.404-1.784.27-.662.639-1.359 1.108-2.092a24.682 24.682 0 0 1 1.67-2.285 38.29 38.29 0 0 1 2.1-2.364 56.892 56.892 0 0 1 4.878-4.5l.475-1.634zm-6.487 14.783c.493 0 .958-.144 1.398-.431a5.113 5.113 0 0 0 1.213-1.134 9.721 9.721 0 0 0 1.011-1.6c.304-.598.574-1.21.808-1.837.235-.627.434-1.239.598-1.837a23.86 23.86 0 0 0 .387-1.6c-.458.305-.923.668-1.398 1.09s-.937.876-1.389 1.362c-.451.486-.879.987-1.283 1.503a19.532 19.532 0 0 0-1.063 1.485c-.305.475-.545.917-.721 1.327s-.264.75-.264 1.02c0 .435.236.652.703.652m2.602-18.633c0 .293.021.577.062.853.041.275.114.521.219.738.106.217.246.392.422.527s.399.202.668.202c.434 0 .826-.187 1.178-.562.351-.375.656-.826.914-1.354a9.649 9.649 0 0 0 .624-1.634 10.03 10.03 0 0 0 .308-1.407l1.072-5.168c-.481 0-.949.12-1.406.361-.457.24-.888.565-1.292.975-.405.41-.777.879-1.117 1.407-.34.527-.632 1.081-.879 1.661-.246.58-.436 1.163-.571 1.749a7.37 7.37 0 0 0-.202 1.652"/><path clip-path="url(#v)" fill="#81637C" d="M110.317 17.634c.339.68.595 1.397.765 2.153a9.9 9.9 0 0 1 .255 2.171c0 .692-.076 1.389-.229 2.092s-.372 1.383-.66 2.039a9.838 9.838 0 0 1-1.054 1.846 7.525 7.525 0 0 1-1.424 1.494 6.729 6.729 0 0 1-1.749 1.002 5.532 5.532 0 0 1-2.022.369c-1.03 0-1.912-.226-2.645-.677a5.635 5.635 0 0 1-1.801-1.766 7.84 7.84 0 0 1-1.029-2.461 12.04 12.04 0 0 1-.325-2.778c0-1.289.194-2.493.58-3.612.387-1.119.941-2.092 1.661-2.918.721-.826 1.603-1.476 2.646-1.951s2.215-.712 3.516-.712c1.113 0 2.156.173 3.129.519.973.345 1.884.808 2.733 1.388.85.58 1.641 1.245 2.373 1.995s1.415 1.524 2.048 2.321l-.334 2.478c-.316-.422-.744-.879-1.283-1.371s-1.11-.973-1.714-1.441c-.604-.469-1.198-.911-1.784-1.327s-1.09-.765-1.512-1.046l-.141.193zm-5.431 9.791c.397 0 .785-.202 1.16-.606.375-.405.703-.915.984-1.53s.507-1.295.677-2.039a9.59 9.59 0 0 0 .255-2.136c0-.539-.041-1.04-.123-1.502a4.634 4.634 0 0 0-.369-1.205 2.217 2.217 0 0 0-.633-.808 1.48 1.48 0 0 0-.932-.299c-.48 0-.938.205-1.372.615-.433.41-.813.935-1.142 1.573a9.516 9.516 0 0 0-.773 2.119 9.436 9.436 0 0 0-.281 2.232c0 .492.047.955.141 1.389.094.433.24.811.439 1.134.198.322.463.58.791.773s.721.29 1.178.29"/></svg>