<svg width="75" height="75" viewBox="0 0 75 75" xmlns="http://www.w3.org/2000/svg"><title>logo</title><g fill="none" fill-rule="evenodd"><path d="M66.73 33.556l1.511-5.618c-3.235-.057-11.576-1.167-10.995-11.193.465-8.015-3.105-11.39-7.392-11.39l-8.387 2.247-.953.256c-.395.17-.767.413-1.09.735a3.483 3.483 0 0 0 0 4.923l21.51 21.509a3.48 3.48 0 0 0 5.797-1.469zm-17.175-21.09a2.635 2.635 0 1 1 3.727-3.726 2.635 2.635 0 0 1-3.727 3.725zm24.673-6.793l.216-.806a4.183 4.183 0 0 0-1.168-3.644A4.188 4.188 0 0 0 69.632.056l-.804.216-13.958 3.74c2.89 1.314 5.693 5.153 5.319 11.606-.48 8.274 4.312 9.903 8.701 9.903l5.338-19.848zm-10.54 15.943a2.634 2.634 0 1 1 3.727-3.726 2.635 2.635 0 0 1-3.727 3.726z" fill="#86D1DD"/><path d="M46.76 70.52l2.926 2.926c1.637 1.637 4.098 1.446 5.735-.19a4.179 4.179 0 0 0 1.047-1.745l.028-.107.694-2.595a9.223 9.223 0 0 0-10.43 1.71zm-16.1-16.326c8.963-8.105 21.431-10.19 32.197-6.259l.656-2.451c-11.786-3.967-24.854-1.863-34.739 6.663 0 0 1.099 1.258 1.887 2.047zM63.553 43.28a2.555 2.555 0 0 0-.607-.985l-.66-.659-10.88-10.88a3.483 3.483 0 0 0-4.923 0l-16.958 16.96-.418.418A3.467 3.467 0 0 0 28.3 50.1c10.045-8.617 23.28-10.77 35.252-6.82zm-.903 5.433a30.78 30.78 0 0 0-3.09-.927l-2.807 19.82c.12.05.647.236.764.29l5.133-19.183zm-22.178.296l9.661 18.533c.406-.14.82-.25 1.237-.337l-5.36-19.78c-1.88.357-3.735.886-5.538 1.584zm6.48-1.746l5.362 19.792a9.91 9.91 0 0 1 1.282-.05l-1.043-20.13a31.636 31.636 0 0 0-5.601.388zm6.654-.346l1.044 20.158c.417.054.832.14 1.242.247l2.384-19.823a32.187 32.187 0 0 0-4.67-.582zm-22.49 7.73l15.248 15.252c.13-.13.471-.455.606-.575L33.462 52.832c-.792.58-1.796 1.332-2.348 1.814zm3.908-2.9c-.14.087-.278.177-.416.265l13.307 16.63a9.61 9.61 0 0 1 1.244-.7l-9.661-18.536a31.338 31.338 0 0 0-4.474 2.342z" fill="#E22F80"/><path d="M37.37 29.963c-.48.324-1.028.55-1.548.815-.14.072-.238.02-.31-.125-.372-.74-.752-1.48-1.125-2.223-.042-.083-.056-.18-.092-.3.05-.054.093-.12.154-.162.19-.121.39-.222.578-.348.884-.593 1.309-1.612 1.076-2.652-.052-.23-.185-.454-.326-.647-.185-.252-.411-.473-.628-.699-.092-.097-.12-.19-.058-.31.428-.829.853-1.658 1.284-2.486.07-.136.18-.203.332-.115.743.428 1.45.91 1.985 1.586.587.743 1.01 1.587 1.324 2.475.214.61.036 1.217-.139 1.806a4.95 4.95 0 0 1-.926 1.736c-.484.592-.943 1.221-1.58 1.649m-3.041 1.28c-.53.177-1.063.337-1.594.504-.02.005-.04.003-.122.01-.044-.045-.142-.106-.174-.191-.201-.55-.407-1.1-.569-1.66a1.715 1.715 0 0 0-.257-.558c-.13-.182-.075-.29.152-.35.29-.074.582-.14.869-.225a1.75 1.75 0 0 0 .385-.177c.21-.122.324-.08.419.14.32.736.646 1.47.975 2.203.06.134.06.256-.084.304m-3.383 1.023c-.465.056-.931.106-1.398.145-.225.02-.364-.128-.39-.4-.063-.656-.116-1.314-.183-1.969a.428.428 0 0 0-.11-.24c-.104-.104-.132-.222-.068-.332a.35.35 0 0 1 .234-.146c.236-.022.476-.007.714-.016.168-.006.337-.045.502-.035.1.006.247.048.286.12.252.462.418.956.483 1.482.005.04 0 .081-.001.14-.042.145.009.258.093.413.104.194.047.48.035.726-.003.042-.125.104-.197.112m-3.287.22c-.307-.004-.613.009-.92.002a1.24 1.24 0 0 1-.377-.071c-.138-.049-.204-.157-.194-.32.018-.3.018-.6.026-.9l-.024-.001c.019-.286.019-.575.067-.856a3.37 3.37 0 0 0 .035-.692c-.008-.305.084-.37.386-.35.327.022.655.035.978.073.073.008.18.09.193.153.131.632.313 1.256.228 1.914-.016.12.042.25.083.374.159.46 0 .68-.481.674m-2.911-.093c-.44-.114-.87-.258-1.306-.384-.102-.031-.207-.049-.311-.074l-.065-.014c.036-.218.052-.44.114-.65.178-.601.342-1.203.357-1.837a.45.45 0 0 1 .47-.454c.36.015.719.047 1.076.085.159.017.277.088.262.29-.05.657-.071 1.319-.142 1.974-.025.226-.06.437-.02.666.047.282-.16.467-.435.398m-3.375-.768c-.662-.177-1.277-.332-1.884-.51-.253-.074-.312-.308-.163-.543.45-.706.903-1.41 1.353-2.116.048-.073.086-.152.116-.235.05-.14.136-.199.282-.15.315.108.63.22.947.318.12.038.247.066.374.074.154.011.233.056.181.227-.171.573-.328 1.152-.515 1.72-.119.36-.27.71-.431 1.053-.04.081-.181.115-.26.162m.805-4.995c.159-.178.325-.35.474-.535a.414.414 0 0 1 .408-.169c.148.022.299.025.448.036v-.009c.17.013.34.019.51.039.225.027.284.158.14.334-.318.382-.646.755-.97 1.13-.044.052-.105.097-.133.156-.118.25-.318.263-.55.202-.25-.068-.501-.126-.75-.195-.223-.06-.268-.167-.122-.354.17-.221.362-.426.545-.635m.625-1.403c-.256-.325-.505-.656-.767-1 .399-.17.777-.337 1.16-.493.117-.048.215-.016.285.115.195.373.404.74.609 1.108.13.234.092.308-.17.315a30.5 30.5 0 0 1-.957.012c-.055.001-.13-.018-.16-.057m-1.048-1.684c-.12.048-.2.031-.263-.098-.47-.959-.944-1.917-1.431-2.904l2.055-.764 1.182 3.155c-.531.211-1.037.41-1.543.61m-7.809 6.362c-.517-.087-1.033-.178-1.548-.273-.187-.034-.247-.14-.2-.328.204-.827.408-1.651.615-2.478.064-.257.118-.283.513-.238l1.337.215c.114.018.172.07.149.193l-.516 2.666c-.05.248-.098.285-.35.243M11 29.454a7.01 7.01 0 0 1-.61-.161c-.322-.1-.427-.25-.352-.582.074-.324.194-.635.297-.952.132-.407.275-.811.4-1.22.114-.378.16-.417.678-.377.12.026.354.062.584.125.141.039.198.134.143.3a48.98 48.98 0 0 0-.542 1.707c-.09.3-.146.608-.22.912-.071.282-.1.305-.378.249m-2.241-.57c-.4-.146-.813-.268-1.125-.594-.1-.106-.099-.17-.02-.273.321-.415.648-.826.952-1.252.159-.224.286-.472.415-.716.092-.175.172-.349.393-.326.18.033.343.055.501.094.153.038.212.255.132.474-.19.523-.385 1.048-.577 1.57l-.303.824c-.065.172-.197.263-.368.199m.47-4.084c-.194-.064-.317-.201-.405-.378-.104-.215-.04-.304.198-.286l.122.008c.502-.047.732.294.937.66.034.062.015.152.02.23-.074.003-.156.029-.222.007-.22-.073-.431-.165-.65-.24m-2.611 2.847c-.655-.55-1-1.301-1.333-2.054-.096-.215-.12-.473-.127-.714-.009-.291.035-.584.056-.876-.048-1.065.247-2.049.745-2.975.113-.212.27-.408.434-.586.335-.367.696-.712 1.033-1.077.246-.271.58-.339.906-.433.12-.035.194.036.222.151.066.277.127.556.198.833.138.547.283 1.094.426 1.639.096.374 0 .624-.35.763-.384.15-.475.492-.548.808-.087.384-.088.79-.096 1.19-.004.243.114.453.277.643.236.272.21.472-.058.719a1.401 1.401 0 0 0-.2.23c-.385.56-.766 1.124-1.152 1.687-.17.251-.211.24-.433.052m2.933-8.948c.467.029.934.069 1.399.114.142.013.181.106.17.247-.035.394-.059.788-.087 1.182.01 0 .018.001.028.003-.033.466-.068.934-.097 1.401-.009.146-.094.216-.216.224a4.193 4.193 0 0 1-.634 0c-.055-.004-.136-.094-.148-.154-.18-.956-.352-1.915-.518-2.873-.007-.043.07-.148.103-.144m-.01 4.55c-.111-.023-.228-.034-.334-.07-.158-.056-.185-.186-.057-.291.284-.233.607-.398.976-.415.105-.004.234.09.313.176.03.031-.04.175-.088.253-.186.305-.466.394-.81.348m2.751-4.354c.252.06.504.118.753.183.284.073.374.2.357.494-.01.163-.022.325-.034.489.006.003.014.004.018.007-.117.502-.236 1.004-.35 1.508-.031.132-.037.27-.063.402-.035.178-.134.28-.331.248-.033-.006-.068-.006-.101-.009-.745-.062-.853-.196-.778-.934.075-.717.142-1.436.21-2.155.022-.23.097-.286.32-.233m2.155.542c.02.003.043.002.061.01l1.263.546c.18.078.361.151.575.24-.057.225-.13.47-.177.72-.043.225-.04.457-.086.678-.045.217-.124.429-.191.64-.023.072-.062.138-.083.21-.068.236-.134.299-.378.258-.508-.084-1.014-.19-1.547-.29l.268-2.225c.025-.202.056-.405.07-.607.01-.157.086-.201.225-.18m-1.434 4.533c-.038-.01-.084-.116-.073-.165.075-.318.434-.779.878-.751.202.01.408.038.6.097.282.088.317.339.094.53-.118.1-.229.215-.359.3-.12.078-.263.125-.396.188l-.026-.056c-.24-.045-.482-.084-.718-.143m-1.539-.294c-.405-.064-.458-.157-.248-.497.08-.132.18-.258.288-.366.204-.206.685-.164.845.072.081.118.098.254-.044.36-.142.106-.269.237-.422.32-.124.066-.277.075-.419.11m-.184.8c.117.032.28.084.319.172.096.225.137.475.188.719.004.02-.082.08-.132.087-.071.012-.147-.006-.222-.012-.308.057-.385-.167-.465-.384-.028-.076-.038-.157-.054-.238-.067-.324.044-.435.366-.344m2.61.711c.02.196.085.36.188.526.115.187.059.268-.157.247-.203-.02-.404-.067-.606-.092-.094-.013-.192-.005-.337-.007-.082-.195-.188-.408-.266-.633-.084-.243.046-.407.305-.388a3.8 3.8 0 0 1 .706.1c.075.02.159.156.167.247m9.538-5.832c.675-.16 1.353-.308 2.03-.46.014-.002.028 0 .086-.002.017.03.064.076.068.126.096.976.187 1.952.28 2.928.012.13-.042.211-.163.248-.454.139-.91.278-1.365.42-.119.036-.177-.004-.208-.12-.27-.992-.544-1.983-.809-2.976-.013-.047.042-.154.081-.164m5.597-.65l-.34 3.143c-.244-.002-.469-.017-.693-.004a11.77 11.77 0 0 0-.89.087c-.142.02-.233.016-.26-.155-.164-1.013-.241-2.027-.11-3.05.003-.018.017-.036.032-.073l2.26.052m1.57.053c.47.101.938.217 1.401.348.276.08.332.365.21.693-.214.572-.405 1.151-.597 1.73-.053.16-.078.332-.113.498-.024.115-.09.151-.206.133-.418-.061-.837-.115-1.253-.175-.168-.024-.276-.118-.279-.298-.003-.25.002-.501.004-.752l-.04-.014c.103-.413.21-.825.306-1.239.044-.185.076-.373.1-.56.04-.297.18-.427.467-.364m.842 7.277c.436-.008.871.003 1.306.003.113 0 .152.054.13.153a.672.672 0 0 1-.08.205c-.18.296-.376.583-.543.887-.1.18-.155.383-.232.577-.015.035-.028.082-.057.099-.428.236-.864.46-1.372.445l-.024-.067c-.123.045-.244.105-.37.134a.33.33 0 0 1-.24-.036c-.038-.03-.045-.155-.015-.21.208-.367.428-.725.648-1.085a28.1 28.1 0 0 1 .634-1c.04-.06.141-.104.215-.105m.046-.78a.516.516 0 0 1-.447-.232c-.46-.634-.934-1.258-1.4-1.887-.033-.044-.068-.086-.09-.136-.02-.045-.05-.112-.03-.144.018-.032.092-.043.14-.04.252.01.503.033.754.05l-.001.015c.284.036.607-.003.84.126.225.123.355.417.527.638.33.425.663.848.986 1.276.046.062.08.163.063.23-.013.044-.128.08-.198.083-.381.015-.762.018-1.144.022m-2.652.786c.319-.028.639-.03.96-.032.064 0 .173.032.186.07.025.087.038.21-.006.283-.402.662-.843 1.3-1.211 1.98-.121.224-.222.277-.438.258-.176-.017-.354-.007-.53-.008-.002-.003-.002-.004 0-.006-.219-.004-.438.003-.654-.016-.084-.007-.199-.056-.232-.122-.034-.065-.012-.195.037-.258.517-.674 1.039-1.347 1.573-2.009.066-.08.205-.13.315-.14m-.35-.771a.752.752 0 0 1-.03.044c-.114-.087-.259-.15-.336-.26-.439-.623-.86-1.258-1.286-1.891-.17-.251-.129-.343.169-.374.297-.03.593-.07.893-.083a.353.353 0 0 1 .251.11c.545.707 1.08 1.42 1.612 2.135.047.065.057.158.085.238-.084.028-.169.08-.254.081-.367.009-.735.001-1.103 0m-2.248.062c-.492.121-.75-.165-.997-.529-.263-.388-.57-.746-.857-1.12-.192-.25-.154-.353.155-.405.315-.053.63-.104.947-.133.072-.008.177.062.227.126.427.55.847 1.104 1.26 1.662.056.074.115.211.082.265-.042.075-.17.123-.266.133-.181.02-.367.003-.551.001m-.315.66c.145.029.298.026.447.036v-.009c.184.015.367.023.55.041.186.019.237.112.146.27-.325.566-.654 1.128-.982 1.692-.202.35-.47.547-.902.437-.256-.065-.52-.099-.783-.14-.135-.019-.18-.103-.147-.215.058-.184.108-.386.215-.541.331-.474.688-.928 1.036-1.39.105-.142.23-.22.42-.18m9.12.05c.066.005.177.04.184.078.015.09.014.214-.037.28-.295.368-.637.69-1.058.911-.24.125-.49.234-.743.333-.066.026-.156-.01-.234-.017.027-.069.042-.151.087-.207.365-.45.835-.826.995-1.44.292.021.55.035.806.061m-.097-.804c-.127.03-.252.056-.379.084-.02.003-.04.003-.06.005-.01.011-.019.025-.029.038-.121-.086-.292-.147-.356-.265-.245-.46-.597-.82-.983-1.16-.086-.076-.106-.227-.157-.345.121 0 .26-.04.36.005.43.196.873.385 1.266.643.218.144.369.409.515.641.109.176.025.307-.177.354m-1.354-5.712l1.043.362c.206.071.412.145.62.207.137.04.195.125.167.258-.033.151-.06.312-.126.45-.312.65-.637 1.296-.96 1.94-.153.306-.185.296-.493.162-.29-.126-.6-.22-.909-.293-.277-.064-.361-.175-.28-.439.154-.493.285-.992.452-1.481.115-.34.278-.659.303-1.027.004-.052.121-.096.183-.139m10.116 3.536l-10.88-10.88-.659-.66c-.745-.744-1.871-.923-2.915-.641L3.178 17.862l-.105.03a4.171 4.171 0 0 0-1.747 1.045C-.31 20.573-.5 23.036 1.136 24.67l20.5 20.496a3.48 3.48 0 0 0 4.7.198l.42-.419 16.959-16.958a3.48 3.48 0 0 0 0-4.923" fill="#ECB433"/></g></svg>