<?xml version="1.0" encoding="utf-8"?>
<!-- Generator: Adobe Illustrator 16.0.0, SVG Export Plug-In . SVG Version: 6.00 Build 0)  -->
<!DOCTYPE svg PUBLIC "-//W3C//DTD SVG 1.1//EN" "http://www.w3.org/Graphics/SVG/1.1/DTD/svg11.dtd">
<svg version="1.1" id="圖層_1" xmlns="http://www.w3.org/2000/svg" xmlns:xlink="http://www.w3.org/1999/xlink" x="0px" y="0px"
	 width="40px" height="40px" viewBox="0 0 40 40" enable-background="new 0 0 40 40" xml:space="preserve">
<g>
	<defs>
		<rect id="SVGID_1_" x="-483" y="-211.864" width="1024" height="469"/>
	</defs>
	<clipPath id="SVGID_2_">
		<use xlink:href="#SVGID_1_"  overflow="visible"/>
	</clipPath>
	<g clip-path="url(#SVGID_2_)" enable-background="new    ">
		<g>
			<defs>
				<rect id="SVGID_3_" x="118" y="135.136" width="40" height="40"/>
			</defs>
			<clipPath id="SVGID_4_">
				<use xlink:href="#SVGID_3_"  overflow="visible"/>
			</clipPath>
			<g clip-path="url(#SVGID_4_)">
				<defs>
					<circle id="SVGID_5_" cx="138" cy="155.136" r="20"/>
				</defs>
				<clipPath id="SVGID_6_">
					<use xlink:href="#SVGID_5_"  overflow="visible"/>
				</clipPath>
				<g clip-path="url(#SVGID_6_)">
					<defs>
						<rect id="SVGID_7_" x="118" y="135.136" width="40" height="40"/>
					</defs>
					<clipPath id="SVGID_8_">
						<use xlink:href="#SVGID_7_"  overflow="visible"/>
					</clipPath>
					<rect x="113" y="130.136" clip-path="url(#SVGID_8_)" fill="#FFFFFF" width="50" height="50"/>
				</g>
			</g>
			<g clip-path="url(#SVGID_4_)">
				<defs>
					<path id="SVGID_9_" d="M138.075,147.266c-3.955-0.08-7.211,3.25-7.242,7.136c-0.033,4.007,3.267,7.277,7.181,7.299
						c3.988,0.023,7.274-3.282,7.271-7.237C145.282,150.517,141.992,147.199,138.075,147.266 M138.054,159.169
						c-2.619-0.007-4.697-2.101-4.688-4.723c0.011-2.6,2.104-4.674,4.711-4.664c2.605,0.01,4.681,2.098,4.674,4.702
						C142.743,157.09,140.653,159.175,138.054,159.169"/>
				</defs>
				<clipPath id="SVGID_10_">
					<use xlink:href="#SVGID_9_"  overflow="visible"/>
				</clipPath>
				<g clip-path="url(#SVGID_10_)">
					<defs>
						<rect id="SVGID_11_" x="118" y="135.136" width="40" height="40"/>
					</defs>
					<clipPath id="SVGID_12_">
						<use xlink:href="#SVGID_11_"  overflow="visible"/>
					</clipPath>
					<rect x="125.832" y="142.264" clip-path="url(#SVGID_12_)" fill="#ADADAD" width="24.453" height="24.438"/>
				</g>
			</g>
			<g clip-path="url(#SVGID_4_)">
				<defs>
					<path id="SVGID_13_" d="M145.598,145.281c-0.922-0.015-1.693,0.732-1.701,1.646c-0.007,0.956,0.713,1.692,1.665,1.703
						c0.937,0.011,1.689-0.737,1.692-1.681C147.256,146.053,146.504,145.296,145.598,145.281"/>
				</defs>
				<clipPath id="SVGID_14_">
					<use xlink:href="#SVGID_13_"  overflow="visible"/>
				</clipPath>
				<g clip-path="url(#SVGID_14_)">
					<defs>
						<rect id="SVGID_15_" x="118" y="135.136" width="40" height="40"/>
					</defs>
					<clipPath id="SVGID_16_">
						<use xlink:href="#SVGID_15_"  overflow="visible"/>
					</clipPath>
					<rect x="138.896" y="140.28" clip-path="url(#SVGID_16_)" fill="#ADADAD" width="13.357" height="13.351"/>
				</g>
			</g>
			<g clip-path="url(#SVGID_4_)">
				<defs>
					<rect id="SVGID_17_" x="124" y="140.417" width="28.125" height="28.152"/>
				</defs>
				<clipPath id="SVGID_18_">
					<use xlink:href="#SVGID_17_"  overflow="visible"/>
				</clipPath>
				<g clip-path="url(#SVGID_18_)">
					<defs>
						<rect id="SVGID_19_" x="118" y="135.136" width="40" height="40"/>
					</defs>
					<clipPath id="SVGID_20_">
						<use xlink:href="#SVGID_19_"  overflow="visible"/>
					</clipPath>
					<g clip-path="url(#SVGID_20_)" enable-background="new    ">
						<g>
							<defs>
								<rect id="SVGID_21_" x="124" y="140.136" width="29" height="29"/>
							</defs>
							<clipPath id="SVGID_22_">
								<use xlink:href="#SVGID_21_"  overflow="visible"/>
							</clipPath>
							<g clip-path="url(#SVGID_22_)">
								<defs>
									<path id="SVGID_23_" d="M152.084,150.421c-0.021-1.139-0.076-2.288-0.257-3.41c-0.582-3.605-2.951-5.863-6.595-6.355
										c-1.339-0.182-2.704-0.218-4.059-0.23c-2.598-0.023-5.196,0.013-7.794,0.033c-1.144,0.009-2.281,0.088-3.397,0.359
										c-1.436,0.349-2.707,0.992-3.736,2.067c-1.293,1.35-1.904,3.014-2.069,4.83c-0.131,1.437-0.162,2.885-0.172,4.328
										c-0.017,2.383,0.013,4.767,0.037,7.149c0.015,1.468,0.136,2.924,0.647,4.317c0.689,1.875,1.919,3.256,3.745,4.094
										c1.348,0.618,2.781,0.823,4.24,0.868c1.786,0.056,3.573,0.067,5.36,0.098c0-0.021,0-0.04,0.001-0.06
										c1.367,0,2.734,0.011,4.102-0.004c1.239-0.014,2.476-0.051,3.698-0.304c3.396-0.703,5.405-2.97,6.005-6.226
										c0.263-1.429,0.257-2.876,0.271-4.318C152.136,155.246,152.128,152.833,152.084,150.421 M149.597,158.499
										c-0.012,1.159-0.052,2.322-0.325,3.46c-0.505,2.096-1.828,3.34-3.925,3.775c-1.25,0.26-2.521,0.271-3.789,0.291
										c-1.162,0.019-2.325,0.004-3.488,0.004c0,0.01,0,0.021,0,0.03c-1.816-0.032-3.633-0.047-5.448-0.104
										c-0.996-0.03-1.995-0.139-2.921-0.534c-1.61-0.688-2.557-1.929-2.899-3.64c-0.246-1.231-0.282-2.481-0.29-3.729
										c-0.015-2.531-0.017-5.062,0.009-7.592c0.012-1.169,0.049-2.343,0.328-3.489c0.51-2.093,1.841-3.327,3.938-3.758
										c1.222-0.251,2.463-0.279,3.7-0.287c2.531-0.015,5.062-0.018,7.593,0.009c1.168,0.012,2.341,0.052,3.488,0.33
										c2.084,0.507,3.313,1.832,3.75,3.912c0.258,1.229,0.282,2.48,0.289,3.729C149.621,153.438,149.623,155.968,149.597,158.499
										"/>
								</defs>
								<clipPath id="SVGID_24_">
									<use xlink:href="#SVGID_23_"  overflow="visible"/>
								</clipPath>
								<g clip-path="url(#SVGID_24_)">
									<defs>
										<rect id="SVGID_25_" x="124" y="140.136" width="29" height="29"/>
									</defs>
									<clipPath id="SVGID_26_">
										<use xlink:href="#SVGID_25_"  overflow="visible"/>
									</clipPath>
									<rect x="119" y="135.417" clip-path="url(#SVGID_26_)" fill="#ADADAD" width="38.125" height="38.152"/>
								</g>
							</g>
						</g>
					</g>
				</g>
			</g>
		</g>
	</g>
</g>
<g enable-background="new    ">
	<g>
		<defs>
			<rect id="SVGID_27_" width="40" height="40"/>
		</defs>
		<clipPath id="SVGID_28_">
			<use xlink:href="#SVGID_27_"  overflow="visible"/>
		</clipPath>
		<g clip-path="url(#SVGID_28_)">
			<defs>
				<circle id="SVGID_29_" cx="20" cy="20" r="20"/>
			</defs>
			<clipPath id="SVGID_30_">
				<use xlink:href="#SVGID_29_"  overflow="visible"/>
			</clipPath>
			<g clip-path="url(#SVGID_30_)">
				<defs>
					<rect id="SVGID_31_" width="40" height="40"/>
				</defs>
				<clipPath id="SVGID_32_">
					<use xlink:href="#SVGID_31_"  overflow="visible"/>
				</clipPath>
				<rect x="-5" y="-5" clip-path="url(#SVGID_32_)" fill="#FFFFFF" width="50" height="50"/>
			</g>
		</g>
		<g clip-path="url(#SVGID_28_)">
			<defs>
				<path id="SVGID_33_" d="M28.546,7.243v4.729c-0.128,0-0.24-0.001-0.353,0.001c-1.01,0.013-2.022-0.027-3.026,0.052
					c-1.417,0.111-1.952,0.704-2.069,2.131c-0.01,0.114-0.01,0.23-0.01,0.346c0,1.145,0,2.288,0,3.481h2.623h2.654
					c-0.076,0.599-0.145,1.159-0.218,1.719c-0.146,1.114-0.3,2.227-0.437,3.342c-0.026,0.214-0.088,0.292-0.316,0.29
					c-1.309-0.011-2.617-0.005-3.924-0.005h-0.373V37h-5.503V23.337H13v-5.341h4.584c0-0.146-0.001-0.258,0-0.369
					c0.004-1.404-0.031-2.811,0.024-4.212c0.086-2.188,0.88-4.037,2.763-5.301c0.92-0.618,1.951-0.946,3.047-1.045
					c1.634-0.146,3.265-0.039,4.893,0.119C28.386,7.196,28.459,7.223,28.546,7.243"/>
			</defs>
			<clipPath id="SVGID_34_">
				<use xlink:href="#SVGID_33_"  overflow="visible"/>
			</clipPath>
			<g clip-path="url(#SVGID_34_)">
				<defs>
					<rect id="SVGID_35_" x="-1" width="40" height="40"/>
				</defs>
				<clipPath id="SVGID_36_">
					<use xlink:href="#SVGID_35_"  overflow="visible"/>
				</clipPath>
				<rect x="8" y="2" clip-path="url(#SVGID_36_)" fill="#ADADAD" width="25.546" height="40"/>
			</g>
		</g>
	</g>
</g>
</svg>
