<?xml version="1.0" encoding="utf-8"?>
<!-- Generator: Adobe Illustrator 16.0.0, SVG Export Plug-In . SVG Version: 6.00 Build 0)  -->
<!DOCTYPE svg PUBLIC "-//W3C//DTD SVG 1.1//EN" "http://www.w3.org/Graphics/SVG/1.1/DTD/svg11.dtd">
<svg version="1.1" id="圖層_1" xmlns="http://www.w3.org/2000/svg" xmlns:xlink="http://www.w3.org/1999/xlink" x="0px" y="0px"
	 width="40px" height="40px" viewBox="0 0 40 40" enable-background="new 0 0 40 40" xml:space="preserve">
<circle fill="#F9F9F9" cx="20" cy="20" r="20"/>
<g>
	<g>
		<path fill="#ADADAD" d="M25.729,32.5H14.271c-3.733,0-6.771-3.037-6.771-6.771V14.271c0-3.734,3.038-6.771,6.771-6.771h11.458
			c3.733,0,6.771,3.037,6.771,6.771v11.458C32.5,29.463,29.463,32.5,25.729,32.5z M14.271,9.583c-2.585,0-4.688,2.103-4.688,4.688
			v11.458c0,2.585,2.103,4.688,4.688,4.688h11.458c2.584,0,4.688-2.103,4.688-4.688V14.271c0-2.585-2.104-4.688-4.688-4.688H14.271z
			"/>
	</g>
	<g>
		<path fill="#ADADAD" d="M20,26.25c-3.446,0-6.25-2.804-6.25-6.25s2.804-6.25,6.25-6.25s6.25,2.804,6.25,6.25
			S23.446,26.25,20,26.25z M20,15.833c-2.297,0-4.167,1.869-4.167,4.167c0,2.298,1.869,4.167,4.167,4.167
			c2.297,0,4.167-1.869,4.167-4.167C24.167,17.703,22.298,15.833,20,15.833z"/>
	</g>
	<g>
		<circle fill="#ADADAD" cx="26.641" cy="13.359" r="1.432"/>
	</g>
</g>
</svg>
