<?xml version="1.0" encoding="utf-8"?>
<!-- Generator: Adobe Illustrator 16.0.0, SVG Export Plug-In . SVG Version: 6.00 Build 0)  -->
<!DOCTYPE svg PUBLIC "-//W3C//DTD SVG 1.1//EN" "http://www.w3.org/Graphics/SVG/1.1/DTD/svg11.dtd">
<svg version="1.1" id="圖層_1" xmlns="http://www.w3.org/2000/svg" xmlns:xlink="http://www.w3.org/1999/xlink" x="0px" y="0px"
	 width="40px" height="40px" viewBox="0 0 40 40" enable-background="new 0 0 40 40" xml:space="preserve">
<g enable-background="new    ">
	<g>
		<defs>
			<rect id="SVGID_1_" width="40" height="40"/>
		</defs>
		<clipPath id="SVGID_2_">
			<use xlink:href="#SVGID_1_"  overflow="visible"/>
		</clipPath>
		<g clip-path="url(#SVGID_2_)">
			<defs>
				<circle id="SVGID_3_" cx="20" cy="20" r="20"/>
			</defs>
			<clipPath id="SVGID_4_">
				<use xlink:href="#SVGID_3_"  overflow="visible"/>
			</clipPath>
			<g clip-path="url(#SVGID_4_)">
				<defs>
					<rect id="SVGID_5_" width="40" height="40"/>
				</defs>
				<clipPath id="SVGID_6_">
					<use xlink:href="#SVGID_5_"  overflow="visible"/>
				</clipPath>
				<rect x="-5" y="-5" clip-path="url(#SVGID_6_)" fill="#FFFFFF" width="50" height="50"/>
			</g>
		</g>
		<g clip-path="url(#SVGID_2_)">
			<defs>
				<path id="SVGID_7_" d="M20.075,12.13c-3.955-0.08-7.211,3.25-7.242,7.136c-0.033,4.007,3.267,7.277,7.181,7.299
					c3.988,0.023,7.274-3.282,7.271-7.237C27.282,15.381,23.992,12.063,20.075,12.13 M20.054,24.033
					c-2.619-0.007-4.697-2.101-4.688-4.723c0.011-2.6,2.104-4.674,4.711-4.664c2.605,0.01,4.681,2.098,4.674,4.702
					C24.743,21.954,22.653,24.039,20.054,24.033"/>
			</defs>
			<clipPath id="SVGID_8_">
				<use xlink:href="#SVGID_7_"  overflow="visible"/>
			</clipPath>
			<g clip-path="url(#SVGID_8_)">
				<defs>
					<rect id="SVGID_9_" width="40" height="40"/>
				</defs>
				<clipPath id="SVGID_10_">
					<use xlink:href="#SVGID_9_"  overflow="visible"/>
				</clipPath>
				<rect x="7.832" y="7.128" clip-path="url(#SVGID_10_)" fill="#ADADAD" width="24.453" height="24.438"/>
			</g>
		</g>
		<g clip-path="url(#SVGID_2_)">
			<defs>
				<path id="SVGID_11_" d="M27.598,10.146c-0.922-0.015-1.693,0.732-1.701,1.646c-0.007,0.956,0.713,1.692,1.665,1.703
					c0.937,0.011,1.689-0.737,1.692-1.681C29.256,10.917,28.504,10.16,27.598,10.146"/>
			</defs>
			<clipPath id="SVGID_12_">
				<use xlink:href="#SVGID_11_"  overflow="visible"/>
			</clipPath>
			<g clip-path="url(#SVGID_12_)">
				<defs>
					<rect id="SVGID_13_" width="40" height="40"/>
				</defs>
				<clipPath id="SVGID_14_">
					<use xlink:href="#SVGID_13_"  overflow="visible"/>
				</clipPath>
				<rect x="20.896" y="5.145" clip-path="url(#SVGID_14_)" fill="#ADADAD" width="13.357" height="13.351"/>
			</g>
		</g>
		<g clip-path="url(#SVGID_2_)">
			<defs>
				<rect id="SVGID_15_" x="6" y="5.281" width="28.125" height="28.152"/>
			</defs>
			<clipPath id="SVGID_16_">
				<use xlink:href="#SVGID_15_"  overflow="visible"/>
			</clipPath>
			<g clip-path="url(#SVGID_16_)">
				<defs>
					<rect id="SVGID_17_" width="40" height="40"/>
				</defs>
				<clipPath id="SVGID_18_">
					<use xlink:href="#SVGID_17_"  overflow="visible"/>
				</clipPath>
				<g clip-path="url(#SVGID_18_)" enable-background="new    ">
					<g>
						<defs>
							<rect id="SVGID_19_" x="6" y="5" width="29" height="29"/>
						</defs>
						<clipPath id="SVGID_20_">
							<use xlink:href="#SVGID_19_"  overflow="visible"/>
						</clipPath>
						<g clip-path="url(#SVGID_20_)">
							<defs>
								<path id="SVGID_21_" d="M34.084,15.285c-0.021-1.139-0.076-2.288-0.257-3.41c-0.582-3.605-2.951-5.863-6.595-6.355
									c-1.339-0.182-2.704-0.218-4.059-0.23c-2.598-0.023-5.196,0.013-7.794,0.033c-1.144,0.009-2.281,0.088-3.397,0.359
									C10.547,6.03,9.275,6.674,8.246,7.749c-1.293,1.35-1.904,3.014-2.069,4.83c-0.131,1.437-0.162,2.885-0.172,4.328
									c-0.017,2.383,0.013,4.767,0.037,7.149c0.015,1.468,0.136,2.924,0.647,4.317c0.689,1.875,1.919,3.256,3.745,4.094
									c1.348,0.618,2.781,0.823,4.24,0.868c1.786,0.056,3.573,0.067,5.36,0.098c0-0.021,0-0.04,0.001-0.06
									c1.367,0,2.734,0.011,4.102-0.004c1.239-0.014,2.476-0.051,3.698-0.304c3.396-0.703,5.405-2.97,6.005-6.226
									c0.263-1.429,0.257-2.876,0.271-4.318C34.136,20.11,34.128,17.697,34.084,15.285 M31.597,23.363
									c-0.012,1.159-0.052,2.322-0.325,3.46c-0.505,2.096-1.828,3.34-3.925,3.775c-1.25,0.26-2.521,0.271-3.789,0.291
									c-1.162,0.019-2.325,0.004-3.488,0.004c0,0.01,0,0.021,0,0.03c-1.816-0.032-3.633-0.047-5.448-0.104
									c-0.996-0.03-1.995-0.139-2.921-0.534c-1.61-0.688-2.557-1.929-2.899-3.64c-0.246-1.231-0.282-2.481-0.29-3.729
									c-0.015-2.531-0.017-5.062,0.009-7.592c0.012-1.169,0.049-2.343,0.328-3.489c0.51-2.093,1.841-3.327,3.938-3.758
									c1.222-0.251,2.463-0.279,3.7-0.287c2.531-0.015,5.062-0.018,7.593,0.009c1.168,0.012,2.341,0.052,3.488,0.33
									c2.084,0.507,3.313,1.832,3.75,3.912c0.258,1.229,0.282,2.48,0.289,3.729C31.621,18.302,31.623,20.832,31.597,23.363"/>
							</defs>
							<clipPath id="SVGID_22_">
								<use xlink:href="#SVGID_21_"  overflow="visible"/>
							</clipPath>
							<g clip-path="url(#SVGID_22_)">
								<defs>
									<rect id="SVGID_23_" x="6" y="5" width="29" height="29"/>
								</defs>
								<clipPath id="SVGID_24_">
									<use xlink:href="#SVGID_23_"  overflow="visible"/>
								</clipPath>
								<rect x="1" y="0.281" clip-path="url(#SVGID_24_)" fill="#ADADAD" width="38.125" height="38.152"/>
							</g>
						</g>
					</g>
				</g>
			</g>
		</g>
	</g>
</g>
<g>
	
		<linearGradient id="SVGID_25_" gradientUnits="userSpaceOnUse" x1="-307.8115" y1="-155.6548" x2="-284.8665" y2="-188.4237" gradientTransform="matrix(1 0 0 1 316.3398 192.04)">
		<stop  offset="0" style="stop-color:#FFB900"/>
		<stop  offset="1" style="stop-color:#9100EB"/>
	</linearGradient>
	<circle fill="url(#SVGID_25_)" cx="20" cy="20" r="20"/>
</g>
<g>
	<g>
		<path fill="#FFFFFF" d="M25.729,32.501H14.271c-3.733,0-6.771-3.038-6.771-6.771V14.271c0-3.733,3.038-6.771,6.771-6.771h11.458
			c3.734,0,6.771,3.038,6.771,6.771v11.458C32.5,29.463,29.463,32.501,25.729,32.501z M14.271,9.584
			c-2.584,0-4.688,2.103-4.688,4.688v11.458c0,2.585,2.103,4.688,4.688,4.688h11.458c2.586,0,4.688-2.104,4.688-4.688V14.271
			c0-2.585-2.102-4.688-4.688-4.688H14.271z"/>
	</g>
	<g>
		<path fill="#FFFFFF" d="M20,26.25c-3.446,0-6.25-2.803-6.25-6.249c0-3.447,2.804-6.25,6.25-6.25s6.25,2.803,6.25,6.25
			C26.25,23.447,23.446,26.25,20,26.25z M20,15.834c-2.297,0-4.167,1.869-4.167,4.167s1.869,4.166,4.167,4.166
			c2.298,0,4.166-1.868,4.166-4.166S22.299,15.834,20,15.834z"/>
	</g>
	<g>
		<circle fill="#FFFFFF" cx="26.641" cy="13.36" r="1.432"/>
	</g>
</g>
</svg>
