<?xml version="1.0" encoding="utf-8"?>
<!-- Generator: Adobe Illustrator 16.0.0, SVG Export Plug-In . SVG Version: 6.00 Build 0)  -->
<!DOCTYPE svg PUBLIC "-//W3C//DTD SVG 1.1//EN" "http://www.w3.org/Graphics/SVG/1.1/DTD/svg11.dtd">
<svg version="1.1" id="圖層_1" xmlns="http://www.w3.org/2000/svg" xmlns:xlink="http://www.w3.org/1999/xlink" x="0px" y="0px"
	 width="40px" height="40px" viewBox="0 0 40 40" enable-background="new 0 0 40 40" xml:space="preserve">
<g enable-background="new    ">
	<g>
		<defs>
			<rect id="SVGID_1_" width="40" height="40"/>
		</defs>
		<clipPath id="SVGID_2_">
			<use xlink:href="#SVGID_1_"  overflow="visible"/>
		</clipPath>
		<g clip-path="url(#SVGID_2_)">
			<defs>
				<circle id="SVGID_3_" cx="20" cy="20" r="20"/>
			</defs>
			<clipPath id="SVGID_4_">
				<use xlink:href="#SVGID_3_"  overflow="visible"/>
			</clipPath>
			<g clip-path="url(#SVGID_4_)">
				<defs>
					<rect id="SVGID_5_" width="40" height="40"/>
				</defs>
				<clipPath id="SVGID_6_">
					<use xlink:href="#SVGID_5_"  overflow="visible"/>
				</clipPath>
				<rect x="-5" y="-5" clip-path="url(#SVGID_6_)" fill="#FFFFFF" width="50" height="50"/>
			</g>
		</g>
		<g clip-path="url(#SVGID_2_)">
			<defs>
				<path id="SVGID_7_" d="M37,13.001c-0.76,1.145-1.687,2.118-2.771,2.937c-0.163,0.123-0.233,0.247-0.229,0.455
					c0.076,4.469-1.333,8.425-4.12,11.904c-2.626,3.279-6.032,5.235-10.147,5.975c-3.202,0.574-6.351,0.346-9.419-0.758
					C9.147,33.095,8.043,32.542,7,31.84c1.604,0.109,3.186,0.006,4.737-0.423c1.555-0.43,2.957-1.155,4.269-2.174
					c-2.824-0.242-4.725-1.655-5.771-4.31c0.934,0.099,1.811,0.129,2.713-0.117c-3.05-0.932-4.686-2.932-4.893-6.138
					c0.485,0.188,0.907,0.387,1.35,0.513c0.438,0.125,0.896,0.177,1.354,0.236c-2.699-2.296-3.324-5.024-1.838-8.313
					c3.394,3.988,7.622,6.167,12.799,6.523c-0.041-0.464-0.1-0.887-0.112-1.311c-0.108-3.649,3.04-6.618,6.68-6.306
					c1.469,0.126,2.747,0.683,3.795,1.727c0.179,0.179,0.34,0.203,0.565,0.149c1.159-0.273,2.269-0.674,3.306-1.267
					c0.076-0.043,0.157-0.076,0.274-0.132c-0.228,0.729-0.539,1.376-1.019,1.907c-0.474,0.526-1.017,0.989-1.503,1.453
					C34.804,13.738,35.91,13.414,37,13.001"/>
			</defs>
			<clipPath id="SVGID_8_">
				<use xlink:href="#SVGID_7_"  overflow="visible"/>
			</clipPath>
			<g clip-path="url(#SVGID_8_)">
				<defs>
					<rect id="SVGID_9_" width="40" height="40"/>
				</defs>
				<clipPath id="SVGID_10_">
					<use xlink:href="#SVGID_9_"  overflow="visible"/>
				</clipPath>
				<rect x="2" y="5" clip-path="url(#SVGID_10_)" fill="#ADADAD" width="40" height="34.576"/>
			</g>
		</g>
	</g>
</g>
</svg>
