<?xml version="1.0" encoding="utf-8"?>
<!-- Generator: Adobe Illustrator 16.0.0, SVG Export Plug-In . SVG Version: 6.00 Build 0)  -->
<!DOCTYPE svg PUBLIC "-//W3C//DTD SVG 1.1//EN" "http://www.w3.org/Graphics/SVG/1.1/DTD/svg11.dtd">
<svg version="1.1" id="圖層_1" xmlns="http://www.w3.org/2000/svg" xmlns:xlink="http://www.w3.org/1999/xlink" x="0px" y="0px"
	 width="40px" height="40px" viewBox="0 0 40 40" enable-background="new 0 0 40 40" xml:space="preserve">
<rect x="-495" y="-216" fill="none" width="1024" height="469"/>
<path fill="none" d="M-16.848,147.547h-1.506c-0.004-0.097-0.012-0.189-0.012-0.283c-0.001-0.893-0.031-1.785,0.008-2.677
	c0.042-0.938-0.115-1.839-0.41-2.72c-0.467-1.396-0.941-2.789-1.412-4.184c-0.033-0.099-0.06-0.199-0.096-0.318
	c0.509,0,0.996-0.006,1.481,0.009c0.057,0.002,0.14,0.112,0.16,0.187c0.326,1.178,0.645,2.357,0.965,3.537
	c0.017,0.063,0.039,0.121,0.078,0.245c0.18-0.69,0.343-1.319,0.507-1.948c0.16-0.617,0.317-1.238,0.488-1.854
	c0.019-0.067,0.113-0.164,0.175-0.166c0.453-0.015,0.907-0.008,1.399-0.008c-0.062,0.219-0.115,0.417-0.174,0.612
	c-0.531,1.748-1.063,3.496-1.591,5.248c-0.039,0.129-0.057,0.27-0.058,0.403c-0.004,1.201-0.002,2.402-0.002,3.603V147.547z"/>
<path fill="none" d="M-9.781,139.989h1.367v0.299c0,1.851,0,3.698,0,5.549c0,0.081-0.005,0.164,0.008,0.243
	c0.045,0.283,0.213,0.386,0.486,0.304c0.394-0.116,0.706-0.53,0.706-0.934c0-1.72,0-3.44,0-5.16v-0.302h1.366v7.556h-1.36v-0.782
	c-0.271,0.229-0.494,0.437-0.739,0.614c-0.312,0.228-0.669,0.322-1.058,0.265c-0.344-0.051-0.595-0.229-0.674-0.574
	c-0.063-0.273-0.109-0.56-0.111-0.84c-0.009-2.035-0.005-4.072-0.004-6.107C-9.794,140.086-9.788,140.055-9.781,139.989"/>
<path fill="none" d="M-11.005,141.609c-0.082-0.793-0.5-1.395-1.294-1.627c-0.788-0.229-1.529-0.127-2.126,0.502
	c-0.443,0.466-0.547,1.06-0.557,1.666c-0.018,1.078-0.018,2.156,0,3.234c0.009,0.536,0.1,1.066,0.432,1.518
	c0.477,0.648,1.317,0.91,2.182,0.684c0.74-0.191,1.288-0.828,1.367-1.679c0.065-0.708,0.06-1.425,0.085-2.146
	C-10.942,143.05-10.931,142.326-11.005,141.609 M-12.32,145.471c-0.001,0.189-0.047,0.387-0.108,0.568
	c-0.082,0.246-0.274,0.377-0.537,0.38c-0.263,0.004-0.463-0.124-0.542-0.37c-0.068-0.213-0.107-0.441-0.113-0.665
	c-0.016-0.543-0.005-1.087-0.005-1.63s-0.005-1.086,0.003-1.63c0.002-0.177,0.022-0.356,0.065-0.526
	c0.082-0.324,0.287-0.484,0.582-0.486c0.3-0.002,0.497,0.15,0.586,0.478c0.042,0.154,0.07,0.317,0.071,0.478
	C-12.312,143.2-12.31,144.335-12.32,145.471"/>
<path fill="none" d="M-10.839,157.908c0-0.688,0-1.379,0-2.067c0-0.268,0.187-0.465,0.512-0.541c0.293-0.069,0.547,0.028,0.638,0.3
	c0.076,0.226,0.117,0.473,0.119,0.711c0.008,1.143-0.003,2.285-0.009,3.429c0,0.04-0.002,0.081-0.007,0.12
	c-0.078,0.646-0.573,0.861-1.089,0.459c-0.085-0.066-0.154-0.209-0.157-0.317C-10.847,159.303-10.839,158.605-10.839,157.908"/>
<circle fill="none" cx="-1" cy="158" r="20"/>
<path fill="none" d="M10.599,162.408c-0.005-1.282-0.093-2.559-0.342-3.82c-0.235-1.197-1.077-2.124-2.276-2.296
	c-1.144-0.165-2.307-0.229-3.463-0.272c-1.726-0.063-3.454-0.072-5.181-0.104c0,0.012,0,0.022,0,0.034H-2.27
	c-2.149,0.001-4.295,0.078-6.439,0.244c-1.461,0.113-2.56,0.959-2.828,2.334c-0.162,0.832-0.265,1.684-0.303,2.529
	c-0.062,1.368-0.092,2.741-0.052,4.109c0.035,1.188,0.156,2.376,0.293,3.557c0.121,1.035,0.639,1.84,1.591,2.325
	c0.513,0.263,1.076,0.304,1.631,0.333c1.796,0.096,3.593,0.195,5.392,0.234c1.653,0.035,3.31,0.023,4.963-0.021
	c1.854-0.052,3.708-0.154,5.56-0.257c1.305-0.071,2.306-0.819,2.62-2.084c0.221-0.89,0.327-1.817,0.375-2.735
	C10.607,165.15,10.604,163.777,10.599,162.408z M-5.494,159.998h-1.625v8.646h-1.516v-8.646h-1.586v-1.43h4.727V159.998z
	 M-1.398,168.646h-1.333v-0.777c-0.21,0.186-0.375,0.345-0.556,0.484c-0.376,0.291-0.783,0.485-1.282,0.375
	c-0.326-0.072-0.542-0.264-0.61-0.586c-0.055-0.261-0.101-0.527-0.102-0.793c-0.008-2.013-0.005-4.024-0.004-6.037
	c0-0.049,0.007-0.097,0.014-0.18c0.411,0,0.799,0.003,1.188-0.002c0.164-0.002,0.153,0.104,0.153,0.212c0,0.665,0,1.331,0,1.996
	c0,1.169,0,2.338,0,3.507c0,0.057-0.003,0.113,0.001,0.17c0.015,0.176-0.011,0.41,0.192,0.457c0.16,0.035,0.377-0.014,0.519-0.104
	c0.307-0.194,0.497-0.451,0.49-0.874c-0.027-1.688-0.011-3.376-0.011-5.063v-0.281h1.342L-1.398,168.646L-1.398,168.646z
	 M3.777,166.984c-0.003,0.281-0.035,0.568-0.099,0.844c-0.197,0.832-0.954,1.18-1.708,0.771c-0.285-0.154-0.529-0.386-0.818-0.602
	v0.646h-1.329c-0.005-0.084-0.016-0.17-0.016-0.254c-0.001-3.199,0-6.396-0.005-9.594c0-0.186,0.041-0.26,0.241-0.251
	c0.363,0.015,0.727,0.004,1.118,0.004v3.249c0.233-0.191,0.424-0.377,0.64-0.523c0.345-0.234,0.737-0.305,1.137-0.182
	c0.542,0.168,0.716,0.623,0.79,1.123c0.045,0.305,0.059,0.614,0.06,0.922C3.791,164.421,3.79,165.703,3.777,166.984z M8.514,168.049
	c-0.551,0.676-1.281,0.824-2.083,0.65c-0.803-0.176-1.3-0.7-1.475-1.504c-0.063-0.289-0.092-0.594-0.096-0.891
	c-0.012-0.957-0.017-1.914,0.002-2.871c0.007-0.345,0.053-0.697,0.143-1.029c0.247-0.906,1.084-1.405,2.024-1.361
	c0.987,0.046,1.8,0.707,1.861,1.895c0.038,0.728,0.007,1.457,0.007,2.222H6.194c0.026,0.616,0.024,1.213,0.085,1.805
	c0.039,0.382,0.323,0.569,0.681,0.546c0.331-0.021,0.545-0.252,0.567-0.637c0.015-0.266,0.003-0.531,0.003-0.814h1.403
	C8.948,166.758,8.997,167.456,8.514,168.049z"/>
<path fill="none" d="M-4.848,154.547h-1.506c-0.004-0.097-0.012-0.189-0.012-0.283c-0.001-0.893-0.031-1.785,0.008-2.677
	c0.042-0.938-0.115-1.839-0.41-2.72c-0.467-1.396-0.941-2.789-1.412-4.184c-0.033-0.099-0.06-0.199-0.096-0.318
	c0.509,0,0.996-0.006,1.481,0.009c0.057,0.002,0.14,0.112,0.16,0.187c0.326,1.178,0.645,2.357,0.965,3.537
	c0.017,0.063,0.039,0.121,0.078,0.245c0.18-0.69,0.343-1.319,0.507-1.948c0.16-0.617,0.317-1.238,0.488-1.854
	c0.019-0.067,0.113-0.164,0.175-0.166c0.453-0.015,0.907-0.008,1.399-0.008c-0.062,0.219-0.115,0.417-0.174,0.612
	c-0.531,1.748-1.063,3.496-1.591,5.248c-0.039,0.129-0.057,0.27-0.058,0.403c-0.004,1.201-0.002,2.402-0.002,3.603V154.547z"/>
<path fill="none" d="M2.219,146.989h1.367v0.299c0,1.851,0,3.698,0,5.549c0,0.081-0.005,0.164,0.008,0.243
	c0.045,0.283,0.213,0.386,0.486,0.304c0.394-0.116,0.706-0.53,0.706-0.934c0-1.72,0-3.44,0-5.16v-0.302h1.366v7.556h-1.36v-0.782
	c-0.271,0.229-0.494,0.437-0.739,0.614c-0.312,0.228-0.669,0.322-1.058,0.265c-0.344-0.051-0.595-0.229-0.674-0.574
	c-0.063-0.273-0.109-0.56-0.111-0.84c-0.009-2.035-0.005-4.072-0.004-6.107C2.206,147.086,2.212,147.055,2.219,146.989"/>
<path fill="none" d="M0.995,148.609c-0.082-0.793-0.5-1.395-1.294-1.627c-0.788-0.229-1.529-0.127-2.126,0.502
	c-0.443,0.466-0.547,1.06-0.557,1.666c-0.018,1.078-0.018,2.156,0,3.234c0.009,0.536,0.1,1.066,0.432,1.518
	c0.477,0.648,1.317,0.91,2.182,0.684c0.74-0.191,1.288-0.828,1.367-1.679c0.065-0.708,0.06-1.425,0.085-2.146
	C1.058,150.05,1.069,149.326,0.995,148.609 M-0.32,152.471c-0.001,0.189-0.047,0.387-0.108,0.568
	c-0.082,0.246-0.274,0.377-0.537,0.38c-0.263,0.004-0.463-0.124-0.542-0.37c-0.068-0.213-0.107-0.441-0.113-0.665
	c-0.016-0.543-0.005-1.087-0.005-1.63s-0.005-1.086,0.003-1.63c0.002-0.177,0.022-0.356,0.065-0.526
	c0.082-0.324,0.287-0.484,0.582-0.486c0.3-0.002,0.497,0.15,0.586,0.478c0.042,0.154,0.07,0.317,0.071,0.478
	C-0.312,150.2-0.31,151.335-0.32,152.471"/>
<path fill="none" d="M1.161,164.908c0-0.688,0-1.379,0-2.067c0-0.268,0.187-0.465,0.512-0.541c0.293-0.069,0.547,0.028,0.638,0.3
	c0.076,0.226,0.117,0.473,0.119,0.711c0.008,1.143-0.003,2.285-0.009,3.429c0,0.04-0.002,0.081-0.007,0.12
	c-0.078,0.646-0.573,0.861-1.089,0.459c-0.085-0.066-0.154-0.209-0.157-0.317C1.153,166.303,1.161,165.605,1.161,164.908"/>
<path fill="none" d="M7.604,163.993h-1.41c0.027-0.406,0.028-0.802,0.087-1.188c0.052-0.342,0.294-0.52,0.604-0.521
	c0.328-0.002,0.574,0.171,0.63,0.521C7.576,163.186,7.575,163.575,7.604,163.993"/>
<circle fill="none" cx="-1" cy="158" r="20"/>
<path fill="none" d="M10.599,162.408c-0.005-1.282-0.093-2.559-0.342-3.82c-0.235-1.197-1.077-2.124-2.276-2.296
	c-1.144-0.165-2.307-0.229-3.463-0.272c-1.726-0.063-3.454-0.072-5.181-0.104c0,0.012,0,0.022,0,0.034H-2.27
	c-2.149,0.001-4.295,0.078-6.439,0.244c-1.461,0.113-2.56,0.959-2.828,2.334c-0.162,0.832-0.265,1.684-0.303,2.529
	c-0.062,1.368-0.092,2.741-0.052,4.109c0.035,1.188,0.156,2.376,0.293,3.557c0.121,1.035,0.639,1.84,1.591,2.325
	c0.513,0.263,1.076,0.304,1.631,0.333c1.796,0.096,3.593,0.195,5.392,0.234c1.653,0.035,3.31,0.023,4.963-0.021
	c1.854-0.052,3.708-0.154,5.56-0.257c1.305-0.071,2.306-0.819,2.62-2.084c0.221-0.89,0.327-1.817,0.375-2.735
	C10.607,165.15,10.604,163.777,10.599,162.408z M-5.494,159.998h-1.625v8.646h-1.516v-8.646h-1.586v-1.43h4.727V159.998z
	 M-1.398,168.646h-1.333v-0.777c-0.21,0.186-0.375,0.345-0.556,0.484c-0.376,0.291-0.783,0.485-1.282,0.375
	c-0.326-0.072-0.542-0.264-0.61-0.586c-0.055-0.261-0.101-0.527-0.102-0.793c-0.008-2.013-0.005-4.024-0.004-6.037
	c0-0.049,0.007-0.097,0.014-0.18c0.411,0,0.799,0.003,1.188-0.002c0.164-0.002,0.153,0.104,0.153,0.212c0,0.665,0,1.331,0,1.996
	c0,1.169,0,2.338,0,3.507c0,0.057-0.003,0.113,0.001,0.17c0.015,0.176-0.011,0.41,0.192,0.457c0.16,0.035,0.377-0.014,0.519-0.104
	c0.307-0.194,0.497-0.451,0.49-0.874c-0.027-1.688-0.011-3.376-0.011-5.063v-0.281h1.342L-1.398,168.646L-1.398,168.646z
	 M3.777,166.984c-0.003,0.281-0.035,0.568-0.099,0.844c-0.197,0.832-0.954,1.18-1.708,0.771c-0.285-0.154-0.529-0.386-0.818-0.602
	v0.646h-1.329c-0.005-0.084-0.016-0.17-0.016-0.254c-0.001-3.199,0-6.396-0.005-9.594c0-0.186,0.041-0.26,0.241-0.251
	c0.363,0.015,0.727,0.004,1.118,0.004v3.249c0.233-0.191,0.424-0.377,0.64-0.523c0.345-0.234,0.737-0.305,1.137-0.182
	c0.542,0.168,0.716,0.623,0.79,1.123c0.045,0.305,0.059,0.614,0.06,0.922C3.791,164.421,3.79,165.703,3.777,166.984z M8.514,168.049
	c-0.551,0.676-1.281,0.824-2.083,0.65c-0.803-0.176-1.3-0.7-1.475-1.504c-0.063-0.289-0.092-0.594-0.096-0.891
	c-0.012-0.957-0.017-1.914,0.002-2.871c0.007-0.345,0.053-0.697,0.143-1.029c0.247-0.906,1.084-1.405,2.024-1.361
	c0.987,0.046,1.8,0.707,1.861,1.895c0.038,0.728,0.007,1.457,0.007,2.222H6.194c0.026,0.616,0.024,1.213,0.085,1.805
	c0.039,0.382,0.323,0.569,0.681,0.546c0.331-0.021,0.545-0.252,0.567-0.637c0.015-0.266,0.003-0.531,0.003-0.814h1.403
	C8.948,166.758,8.997,167.456,8.514,168.049z"/>
<path fill="none" d="M-4.848,154.547h-1.506c-0.004-0.097-0.012-0.189-0.012-0.283c-0.001-0.893-0.031-1.785,0.008-2.677
	c0.042-0.938-0.115-1.839-0.41-2.72c-0.467-1.396-0.941-2.789-1.412-4.184c-0.033-0.099-0.06-0.199-0.096-0.318
	c0.509,0,0.996-0.006,1.481,0.009c0.057,0.002,0.14,0.112,0.16,0.187c0.326,1.178,0.645,2.357,0.965,3.537
	c0.017,0.063,0.039,0.121,0.078,0.245c0.18-0.69,0.343-1.319,0.507-1.948c0.16-0.617,0.317-1.238,0.488-1.854
	c0.019-0.067,0.113-0.164,0.175-0.166c0.453-0.015,0.907-0.008,1.399-0.008c-0.062,0.219-0.115,0.417-0.174,0.612
	c-0.531,1.748-1.063,3.496-1.591,5.248c-0.039,0.129-0.057,0.27-0.058,0.403c-0.004,1.201-0.002,2.402-0.002,3.603V154.547z"/>
<path fill="none" d="M2.219,146.989h1.367v0.299c0,1.851,0,3.698,0,5.549c0,0.081-0.005,0.164,0.008,0.243
	c0.045,0.283,0.213,0.386,0.486,0.304c0.394-0.116,0.706-0.53,0.706-0.934c0-1.72,0-3.44,0-5.16v-0.302h1.366v7.556h-1.36v-0.782
	c-0.271,0.229-0.494,0.437-0.739,0.614c-0.312,0.228-0.669,0.322-1.058,0.265c-0.344-0.051-0.595-0.229-0.674-0.574
	c-0.063-0.273-0.109-0.56-0.111-0.84c-0.009-2.035-0.005-4.072-0.004-6.107C2.206,147.086,2.212,147.055,2.219,146.989"/>
<path fill="none" d="M0.995,148.609c-0.082-0.793-0.5-1.395-1.294-1.627c-0.788-0.229-1.529-0.127-2.126,0.502
	c-0.443,0.466-0.547,1.06-0.557,1.666c-0.018,1.078-0.018,2.156,0,3.234c0.009,0.536,0.1,1.066,0.432,1.518
	c0.477,0.648,1.317,0.91,2.182,0.684c0.74-0.191,1.288-0.828,1.367-1.679c0.065-0.708,0.06-1.425,0.085-2.146
	C1.058,150.05,1.069,149.326,0.995,148.609 M-0.32,152.471c-0.001,0.189-0.047,0.387-0.108,0.568
	c-0.082,0.246-0.274,0.377-0.537,0.38c-0.263,0.004-0.463-0.124-0.542-0.37c-0.068-0.213-0.107-0.441-0.113-0.665
	c-0.016-0.543-0.005-1.087-0.005-1.63s-0.005-1.086,0.003-1.63c0.002-0.177,0.022-0.356,0.065-0.526
	c0.082-0.324,0.287-0.484,0.582-0.486c0.3-0.002,0.497,0.15,0.586,0.478c0.042,0.154,0.07,0.317,0.071,0.478
	C-0.312,150.2-0.31,151.335-0.32,152.471"/>
<path fill="none" d="M1.161,164.908c0-0.688,0-1.379,0-2.067c0-0.268,0.187-0.465,0.512-0.541c0.293-0.069,0.547,0.028,0.638,0.3
	c0.076,0.226,0.117,0.473,0.119,0.711c0.008,1.143-0.003,2.285-0.009,3.429c0,0.04-0.002,0.081-0.007,0.12
	c-0.078,0.646-0.573,0.861-1.089,0.459c-0.085-0.066-0.154-0.209-0.157-0.317C1.153,166.303,1.161,165.605,1.161,164.908"/>
<path fill="none" d="M7.604,163.993h-1.41c0.027-0.406,0.028-0.802,0.087-1.188c0.052-0.342,0.294-0.52,0.604-0.521
	c0.328-0.002,0.574,0.171,0.63,0.521C7.576,163.186,7.575,163.575,7.604,163.993"/>
<g enable-background="new    ">
	<g>
		<defs>
			<rect id="SVGID_1_" width="40" height="40"/>
		</defs>
		<clipPath id="SVGID_2_">
			<use xlink:href="#SVGID_1_"  overflow="visible"/>
		</clipPath>
		<g clip-path="url(#SVGID_2_)">
			<defs>
				<circle id="SVGID_3_" cx="20" cy="20" r="20"/>
			</defs>
			<use xlink:href="#SVGID_3_"  overflow="visible" fill-rule="evenodd" clip-rule="evenodd" fill="#41ABE1"/>
			<clipPath id="SVGID_4_">
				<use xlink:href="#SVGID_3_"  overflow="visible"/>
			</clipPath>
			<g clip-path="url(#SVGID_4_)">
				<defs>
					<rect id="SVGID_5_" width="40" height="40"/>
				</defs>
				<use xlink:href="#SVGID_5_"  overflow="visible" fill="#41ABE1"/>
				<clipPath id="SVGID_6_">
					<use xlink:href="#SVGID_5_"  overflow="visible"/>
				</clipPath>
				<rect x="-5" y="-5" clip-path="url(#SVGID_6_)" fill="#41ABE1" width="50" height="50"/>
			</g>
		</g>
		<g clip-path="url(#SVGID_2_)">
			<defs>
				<path id="SVGID_7_" d="M37,13.001c-0.76,1.145-1.687,2.118-2.771,2.937c-0.163,0.123-0.233,0.247-0.229,0.455
					c0.076,4.469-1.333,8.425-4.12,11.904c-2.626,3.279-6.032,5.235-10.147,5.975c-3.202,0.574-6.351,0.346-9.419-0.758
					C9.147,33.095,8.043,32.542,7,31.84c1.604,0.109,3.186,0.006,4.737-0.423c1.555-0.43,2.957-1.155,4.269-2.174
					c-2.824-0.242-4.725-1.655-5.771-4.31c0.934,0.099,1.811,0.129,2.713-0.117c-3.05-0.932-4.686-2.932-4.893-6.138
					c0.485,0.188,0.907,0.387,1.35,0.513c0.438,0.125,0.896,0.177,1.354,0.236c-2.699-2.296-3.324-5.024-1.838-8.313
					c3.394,3.988,7.622,6.167,12.799,6.523c-0.041-0.464-0.1-0.887-0.112-1.311c-0.108-3.649,3.04-6.618,6.68-6.306
					c1.469,0.126,2.747,0.683,3.795,1.727c0.179,0.179,0.34,0.203,0.565,0.149c1.159-0.273,2.269-0.674,3.306-1.267
					c0.076-0.043,0.157-0.076,0.274-0.132c-0.228,0.729-0.539,1.376-1.019,1.907c-0.474,0.526-1.017,0.989-1.503,1.453
					C34.804,13.738,35.91,13.414,37,13.001"/>
			</defs>
			<use xlink:href="#SVGID_7_"  overflow="visible" fill-rule="evenodd" clip-rule="evenodd" fill="#F9F9F9"/>
			<clipPath id="SVGID_8_">
				<use xlink:href="#SVGID_7_"  overflow="visible"/>
			</clipPath>
			<g clip-path="url(#SVGID_8_)">
				<defs>
					<rect id="SVGID_9_" width="40" height="40"/>
				</defs>
				<use xlink:href="#SVGID_9_"  overflow="visible" fill="#F9F9F9"/>
				<clipPath id="SVGID_10_">
					<use xlink:href="#SVGID_9_"  overflow="visible"/>
				</clipPath>
				<rect x="2" y="5" clip-path="url(#SVGID_10_)" fill="#F9F9F9" width="40" height="34.576"/>
			</g>
		</g>
	</g>
</g>
</svg>
