<?xml version="1.0" encoding="utf-8"?>
<!-- Generator: Adobe Illustrator 16.0.0, SVG Export Plug-In . SVG Version: 6.00 Build 0)  -->
<!DOCTYPE svg PUBLIC "-//W3C//DTD SVG 1.1//EN" "http://www.w3.org/Graphics/SVG/1.1/DTD/svg11.dtd">
<svg version="1.1" id="圖層_1" xmlns="http://www.w3.org/2000/svg" xmlns:xlink="http://www.w3.org/1999/xlink" x="0px" y="0px"
	 width="40px" height="40px" viewBox="0 0 40 40" enable-background="new 0 0 40 40" xml:space="preserve">
<circle fill-rule="evenodd" clip-rule="evenodd" fill="#FFFFFF" cx="20" cy="20" r="20"/>
<g>
	<defs>
		<rect id="SVGID_1_" x="-483" y="-211.864" width="1024" height="469"/>
	</defs>
	<clipPath id="SVGID_2_">
		<use xlink:href="#SVGID_1_"  overflow="visible"/>
	</clipPath>
	<g clip-path="url(#SVGID_2_)" enable-background="new    ">
		<g>
			<defs>
				<rect id="SVGID_3_" x="118" y="135.136" width="40" height="40"/>
			</defs>
			<clipPath id="SVGID_4_">
				<use xlink:href="#SVGID_3_"  overflow="visible"/>
			</clipPath>
			<g clip-path="url(#SVGID_4_)">
				<defs>
					<circle id="SVGID_5_" cx="138" cy="155.136" r="20"/>
				</defs>
				<clipPath id="SVGID_6_">
					<use xlink:href="#SVGID_5_"  overflow="visible"/>
				</clipPath>
				<g clip-path="url(#SVGID_6_)">
					<defs>
						<rect id="SVGID_7_" x="118" y="135.136" width="40" height="40"/>
					</defs>
					<clipPath id="SVGID_8_">
						<use xlink:href="#SVGID_7_"  overflow="visible"/>
					</clipPath>
					<rect x="113" y="130.136" clip-path="url(#SVGID_8_)" fill="#FFFFFF" width="50" height="50"/>
				</g>
			</g>
			<g clip-path="url(#SVGID_4_)">
				<defs>
					<path id="SVGID_9_" d="M138.075,147.266c-3.955-0.08-7.211,3.25-7.242,7.136c-0.033,4.007,3.267,7.277,7.181,7.299
						c3.988,0.023,7.274-3.282,7.271-7.237C145.282,150.517,141.992,147.199,138.075,147.266 M138.054,159.169
						c-2.619-0.007-4.697-2.101-4.688-4.723c0.011-2.6,2.104-4.674,4.711-4.664c2.605,0.01,4.681,2.098,4.674,4.702
						C142.743,157.09,140.653,159.175,138.054,159.169"/>
				</defs>
				<clipPath id="SVGID_10_">
					<use xlink:href="#SVGID_9_"  overflow="visible"/>
				</clipPath>
				<g clip-path="url(#SVGID_10_)">
					<defs>
						<rect id="SVGID_11_" x="118" y="135.136" width="40" height="40"/>
					</defs>
					<clipPath id="SVGID_12_">
						<use xlink:href="#SVGID_11_"  overflow="visible"/>
					</clipPath>
					<rect x="125.832" y="142.264" clip-path="url(#SVGID_12_)" fill="#ADADAD" width="24.453" height="24.438"/>
				</g>
			</g>
			<g clip-path="url(#SVGID_4_)">
				<defs>
					<path id="SVGID_13_" d="M145.598,145.281c-0.922-0.015-1.693,0.732-1.701,1.646c-0.007,0.956,0.713,1.692,1.665,1.703
						c0.937,0.011,1.689-0.737,1.692-1.681C147.256,146.053,146.504,145.296,145.598,145.281"/>
				</defs>
				<clipPath id="SVGID_14_">
					<use xlink:href="#SVGID_13_"  overflow="visible"/>
				</clipPath>
				<g clip-path="url(#SVGID_14_)">
					<defs>
						<rect id="SVGID_15_" x="118" y="135.136" width="40" height="40"/>
					</defs>
					<clipPath id="SVGID_16_">
						<use xlink:href="#SVGID_15_"  overflow="visible"/>
					</clipPath>
					<rect x="138.896" y="140.28" clip-path="url(#SVGID_16_)" fill="#ADADAD" width="13.357" height="13.351"/>
				</g>
			</g>
			<g clip-path="url(#SVGID_4_)">
				<defs>
					<rect id="SVGID_17_" x="124" y="140.417" width="28.125" height="28.152"/>
				</defs>
				<clipPath id="SVGID_18_">
					<use xlink:href="#SVGID_17_"  overflow="visible"/>
				</clipPath>
				<g clip-path="url(#SVGID_18_)">
					<defs>
						<rect id="SVGID_19_" x="118" y="135.136" width="40" height="40"/>
					</defs>
					<clipPath id="SVGID_20_">
						<use xlink:href="#SVGID_19_"  overflow="visible"/>
					</clipPath>
					<g clip-path="url(#SVGID_20_)" enable-background="new    ">
						<g>
							<defs>
								<rect id="SVGID_21_" x="124" y="140.136" width="29" height="29"/>
							</defs>
							<clipPath id="SVGID_22_">
								<use xlink:href="#SVGID_21_"  overflow="visible"/>
							</clipPath>
							<g clip-path="url(#SVGID_22_)">
								<defs>
									<path id="SVGID_23_" d="M152.084,150.421c-0.021-1.139-0.076-2.288-0.257-3.41c-0.582-3.605-2.951-5.863-6.595-6.355
										c-1.339-0.182-2.704-0.218-4.059-0.23c-2.598-0.023-5.196,0.013-7.794,0.033c-1.144,0.009-2.281,0.088-3.397,0.359
										c-1.436,0.349-2.707,0.992-3.736,2.067c-1.293,1.35-1.904,3.014-2.069,4.83c-0.131,1.437-0.162,2.885-0.172,4.328
										c-0.017,2.383,0.013,4.767,0.037,7.149c0.015,1.468,0.136,2.924,0.647,4.317c0.689,1.875,1.919,3.256,3.745,4.094
										c1.348,0.618,2.781,0.823,4.24,0.868c1.786,0.056,3.573,0.067,5.36,0.098c0-0.021,0-0.04,0.001-0.06
										c1.367,0,2.734,0.011,4.102-0.004c1.239-0.014,2.476-0.051,3.698-0.304c3.396-0.703,5.405-2.97,6.005-6.226
										c0.263-1.429,0.257-2.876,0.271-4.318C152.136,155.246,152.128,152.833,152.084,150.421 M149.597,158.499
										c-0.012,1.159-0.052,2.322-0.325,3.46c-0.505,2.096-1.828,3.34-3.925,3.775c-1.25,0.26-2.521,0.271-3.789,0.291
										c-1.162,0.019-2.325,0.004-3.488,0.004c0,0.01,0,0.021,0,0.03c-1.816-0.032-3.633-0.047-5.448-0.104
										c-0.996-0.03-1.995-0.139-2.921-0.534c-1.61-0.688-2.557-1.929-2.899-3.64c-0.246-1.231-0.282-2.481-0.29-3.729
										c-0.015-2.531-0.017-5.062,0.009-7.592c0.012-1.169,0.049-2.343,0.328-3.489c0.51-2.093,1.841-3.327,3.938-3.758
										c1.222-0.251,2.463-0.279,3.7-0.287c2.531-0.015,5.062-0.018,7.593,0.009c1.168,0.012,2.341,0.052,3.488,0.33
										c2.084,0.507,3.313,1.832,3.75,3.912c0.258,1.229,0.282,2.48,0.289,3.729C149.621,153.438,149.623,155.968,149.597,158.499
										"/>
								</defs>
								<clipPath id="SVGID_24_">
									<use xlink:href="#SVGID_23_"  overflow="visible"/>
								</clipPath>
								<g clip-path="url(#SVGID_24_)">
									<defs>
										<rect id="SVGID_25_" x="124" y="140.136" width="29" height="29"/>
									</defs>
									<clipPath id="SVGID_26_">
										<use xlink:href="#SVGID_25_"  overflow="visible"/>
									</clipPath>
									<rect x="119" y="135.417" clip-path="url(#SVGID_26_)" fill="#ADADAD" width="38.125" height="38.152"/>
								</g>
							</g>
						</g>
					</g>
				</g>
			</g>
		</g>
	</g>
</g>
<g>
	<defs>
		<circle id="SVGID_27_" cx="-1" cy="155" r="20"/>
	</defs>
	<clipPath id="SVGID_28_">
		<use xlink:href="#SVGID_27_"  overflow="visible"/>
	</clipPath>
	<g clip-path="url(#SVGID_28_)">
		<defs>
			<rect id="SVGID_29_" x="-483" y="-212" width="1024" height="469"/>
		</defs>
		<clipPath id="SVGID_30_">
			<use xlink:href="#SVGID_29_"  overflow="visible"/>
		</clipPath>
		<rect x="-26" y="130" clip-path="url(#SVGID_30_)" fill="#FFFFFF" width="50" height="50"/>
	</g>
</g>
<g>
	<defs>
		<path id="SVGID_31_" d="M10.599,159.408c-0.005-1.282-0.093-2.559-0.342-3.82c-0.235-1.198-1.077-2.124-2.276-2.296
			c-1.144-0.165-2.307-0.229-3.463-0.272c-1.726-0.064-3.454-0.073-5.181-0.105c0,0.012,0,0.022,0,0.034H-2.27
			c-2.149,0.001-4.295,0.078-6.439,0.245c-1.461,0.113-2.56,0.959-2.828,2.333c-0.162,0.832-0.265,1.684-0.303,2.53
			c-0.062,1.368-0.092,2.741-0.052,4.109c0.035,1.188,0.156,2.376,0.293,3.557c0.121,1.035,0.639,1.839,1.591,2.325
			c0.513,0.262,1.076,0.304,1.631,0.333c1.796,0.096,3.593,0.195,5.392,0.234c1.653,0.035,3.31,0.024,4.963-0.021
			c1.854-0.052,3.708-0.155,5.56-0.257c1.305-0.072,2.306-0.82,2.62-2.084c0.221-0.889,0.327-1.818,0.375-2.735
			C10.607,162.15,10.604,160.778,10.599,159.408z M-5.494,156.998h-1.625v8.646h-1.516v-8.646h-1.586v-1.429h4.727V156.998z
			 M-1.398,165.646h-1.333v-0.777c-0.21,0.185-0.375,0.345-0.556,0.484c-0.376,0.291-0.783,0.486-1.282,0.375
			c-0.326-0.072-0.542-0.263-0.61-0.585c-0.055-0.261-0.101-0.528-0.102-0.793c-0.008-2.013-0.005-4.025-0.004-6.038
			c0-0.048,0.007-0.096,0.014-0.179c0.411,0,0.799,0.003,1.188-0.002c0.164-0.002,0.153,0.103,0.153,0.212c0,0.665,0,1.331,0,1.996
			c0,1.169,0,2.338,0,3.507c0,0.057-0.003,0.113,0.001,0.17c0.015,0.176-0.011,0.41,0.192,0.456c0.16,0.036,0.377-0.013,0.519-0.103
			c0.307-0.194,0.497-0.451,0.49-0.874c-0.027-1.688-0.011-3.376-0.011-5.064v-0.28h1.342V165.646z M3.777,163.985
			c-0.003,0.281-0.035,0.568-0.099,0.843c-0.197,0.832-0.954,1.18-1.708,0.772c-0.285-0.154-0.529-0.386-0.818-0.602v0.646h-1.329
			c-0.005-0.084-0.016-0.169-0.016-0.254c-0.001-3.198,0-6.395-0.005-9.593c0-0.186,0.041-0.26,0.241-0.251
			c0.363,0.015,0.727,0.004,1.118,0.004v3.249c0.233-0.192,0.424-0.377,0.64-0.523c0.345-0.235,0.737-0.305,1.137-0.182
			c0.542,0.168,0.716,0.623,0.79,1.123c0.045,0.304,0.059,0.614,0.06,0.922C3.791,161.421,3.79,162.703,3.777,163.985z
			 M8.514,165.049c-0.551,0.676-1.281,0.824-2.083,0.65c-0.803-0.175-1.3-0.7-1.475-1.503c-0.063-0.29-0.092-0.594-0.096-0.892
			c-0.012-0.956-0.017-1.914,0.002-2.87c0.007-0.345,0.053-0.697,0.143-1.029c0.247-0.907,1.084-1.406,2.024-1.362
			c0.987,0.046,1.8,0.707,1.861,1.895c0.038,0.727,0.007,1.456,0.007,2.221H6.194c0.026,0.616,0.024,1.213,0.085,1.805
			c0.039,0.382,0.323,0.569,0.681,0.546c0.331-0.021,0.545-0.252,0.567-0.637c0.015-0.265,0.003-0.531,0.003-0.815h1.403
			C8.948,163.758,8.997,164.456,8.514,165.049z"/>
	</defs>
	<clipPath id="SVGID_32_">
		<use xlink:href="#SVGID_31_"  overflow="visible"/>
	</clipPath>
	<g clip-path="url(#SVGID_32_)">
		<defs>
			<rect id="SVGID_33_" x="-483" y="-212" width="1024" height="469"/>
		</defs>
		<clipPath id="SVGID_34_">
			<use xlink:href="#SVGID_33_"  overflow="visible"/>
		</clipPath>
		<rect x="-16.909" y="147.914" clip-path="url(#SVGID_34_)" fill="#ADADAD" width="32.51" height="25.723"/>
	</g>
</g>
<g>
	<defs>
		<path id="SVGID_35_" d="M-4.848,151.547h-1.506c-0.004-0.097-0.012-0.189-0.012-0.283c-0.001-0.893-0.031-1.786,0.008-2.677
			c0.042-0.939-0.115-1.839-0.41-2.72c-0.467-1.396-0.941-2.789-1.412-4.184c-0.033-0.098-0.06-0.198-0.096-0.318
			c0.509,0,0.996-0.006,1.481,0.009c0.057,0.002,0.14,0.112,0.16,0.187c0.326,1.178,0.645,2.357,0.965,3.537
			c0.017,0.062,0.039,0.121,0.078,0.245c0.18-0.69,0.343-1.319,0.507-1.948c0.16-0.618,0.317-1.239,0.488-1.855
			c0.019-0.068,0.113-0.164,0.175-0.166c0.453-0.015,0.907-0.008,1.399-0.008c-0.062,0.219-0.115,0.417-0.174,0.612
			c-0.531,1.749-1.063,3.497-1.591,5.248c-0.039,0.129-0.057,0.27-0.058,0.404c-0.004,1.201-0.002,2.402-0.002,3.603V151.547z"/>
	</defs>
	<clipPath id="SVGID_36_">
		<use xlink:href="#SVGID_35_"  overflow="visible"/>
	</clipPath>
	<g clip-path="url(#SVGID_36_)">
		<defs>
			<rect id="SVGID_37_" x="-483" y="-212" width="1024" height="469"/>
		</defs>
		<clipPath id="SVGID_38_">
			<use xlink:href="#SVGID_37_"  overflow="visible"/>
		</clipPath>
		<rect x="-13.276" y="136.364" clip-path="url(#SVGID_38_)" fill="#ADADAD" width="15.253" height="20.183"/>
	</g>
</g>
<g>
	<defs>
		<path id="SVGID_39_" d="M2.219,143.989h1.367v0.299c0,1.85,0,3.699,0,5.549c0,0.081-0.005,0.164,0.008,0.243
			c0.045,0.283,0.213,0.386,0.486,0.304c0.394-0.117,0.706-0.53,0.706-0.934c0-1.72,0-3.44,0-5.16v-0.301h1.366v7.555h-1.36v-0.782
			c-0.271,0.228-0.494,0.436-0.739,0.614c-0.312,0.228-0.669,0.322-1.058,0.265c-0.344-0.051-0.595-0.229-0.674-0.574
			c-0.063-0.274-0.109-0.56-0.111-0.84c-0.009-2.036-0.005-4.072-0.004-6.108C2.206,144.086,2.212,144.054,2.219,143.989"/>
	</defs>
	<clipPath id="SVGID_40_">
		<use xlink:href="#SVGID_39_"  overflow="visible"/>
	</clipPath>
	<g clip-path="url(#SVGID_40_)">
		<defs>
			<rect id="SVGID_41_" x="-483" y="-212" width="1024" height="469"/>
		</defs>
		<clipPath id="SVGID_42_">
			<use xlink:href="#SVGID_41_"  overflow="visible"/>
		</clipPath>
		<rect x="-2.796" y="138.989" clip-path="url(#SVGID_42_)" fill="#ADADAD" width="13.948" height="17.668"/>
	</g>
</g>
<g>
	<defs>
		<path id="SVGID_43_" d="M0.995,145.61c-0.082-0.794-0.5-1.395-1.294-1.627c-0.788-0.23-1.529-0.127-2.126,0.501
			c-0.443,0.466-0.547,1.06-0.557,1.666c-0.018,1.078-0.018,2.156,0,3.235c0.009,0.536,0.1,1.066,0.432,1.517
			c0.477,0.649,1.317,0.91,2.182,0.684c0.74-0.192,1.288-0.828,1.367-1.679c0.065-0.708,0.06-1.424,0.085-2.145
			C1.058,147.05,1.069,146.326,0.995,145.61 M-0.32,149.47c-0.001,0.19-0.047,0.387-0.108,0.569
			c-0.082,0.246-0.274,0.377-0.537,0.38c-0.263,0.004-0.463-0.124-0.542-0.37c-0.068-0.213-0.107-0.442-0.113-0.665
			c-0.016-0.543-0.005-1.087-0.005-1.63s-0.005-1.086,0.003-1.63c0.002-0.177,0.022-0.356,0.065-0.527
			c0.082-0.324,0.287-0.484,0.582-0.485c0.3-0.002,0.497,0.149,0.586,0.477c0.042,0.154,0.07,0.317,0.071,0.478
			C-0.312,147.2-0.31,148.335-0.32,149.47"/>
	</defs>
	<clipPath id="SVGID_44_">
		<use xlink:href="#SVGID_43_"  overflow="visible"/>
	</clipPath>
	<g clip-path="url(#SVGID_44_)">
		<defs>
			<rect id="SVGID_45_" x="-483" y="-212" width="1024" height="469"/>
		</defs>
		<clipPath id="SVGID_46_">
			<use xlink:href="#SVGID_45_"  overflow="visible"/>
		</clipPath>
		<rect x="-7.996" y="138.871" clip-path="url(#SVGID_46_)" fill="#ADADAD" width="14.079" height="17.795"/>
	</g>
</g>
<g>
	<defs>
		<circle id="SVGID_47_" cx="-13" cy="151" r="20"/>
	</defs>
	<clipPath id="SVGID_48_">
		<use xlink:href="#SVGID_47_"  overflow="visible"/>
	</clipPath>
	<g clip-path="url(#SVGID_48_)">
		<defs>
			<rect id="SVGID_49_" x="-495" y="-216" width="1024" height="469"/>
		</defs>
		<clipPath id="SVGID_50_">
			<use xlink:href="#SVGID_49_"  overflow="visible"/>
		</clipPath>
		<rect x="-38" y="126" clip-path="url(#SVGID_50_)" fill="#FFFFFF" width="50" height="50"/>
	</g>
</g>
<g>
	<defs>
		<path id="SVGID_51_" d="M-1.401,155.408c-0.005-1.282-0.093-2.559-0.342-3.82c-0.235-1.198-1.077-2.124-2.276-2.296
			c-1.144-0.165-2.307-0.229-3.463-0.272c-1.726-0.064-3.454-0.073-5.181-0.105c0,0.012,0,0.022,0,0.034h-1.606
			c-2.149,0.001-4.295,0.078-6.439,0.245c-1.461,0.113-2.56,0.959-2.828,2.333c-0.162,0.832-0.265,1.684-0.303,2.53
			c-0.062,1.368-0.092,2.741-0.052,4.109c0.035,1.188,0.156,2.376,0.293,3.557c0.121,1.035,0.639,1.839,1.591,2.325
			c0.513,0.262,1.076,0.304,1.631,0.333c1.796,0.096,3.593,0.195,5.392,0.234c1.653,0.035,3.31,0.024,4.963-0.021
			c1.854-0.052,3.708-0.155,5.56-0.257c1.305-0.072,2.306-0.82,2.62-2.084c0.221-0.889,0.327-1.818,0.375-2.735
			C-1.393,158.15-1.396,156.778-1.401,155.408z M-17.494,152.998h-1.625v8.646h-1.516v-8.646h-1.586v-1.429h4.727V152.998z
			 M-13.398,161.646h-1.333v-0.777c-0.21,0.185-0.375,0.345-0.556,0.484c-0.376,0.291-0.783,0.486-1.282,0.375
			c-0.326-0.072-0.542-0.263-0.61-0.585c-0.055-0.261-0.101-0.528-0.102-0.793c-0.008-2.013-0.005-4.025-0.004-6.038
			c0-0.048,0.007-0.096,0.014-0.179c0.411,0,0.799,0.003,1.188-0.002c0.164-0.002,0.153,0.103,0.153,0.212c0,0.665,0,1.331,0,1.996
			c0,1.169,0,2.338,0,3.507c0,0.057-0.003,0.113,0.001,0.17c0.015,0.176-0.011,0.41,0.192,0.456c0.16,0.036,0.377-0.013,0.519-0.103
			c0.307-0.194,0.497-0.451,0.49-0.874c-0.027-1.688-0.011-3.376-0.011-5.064v-0.28h1.342V161.646z M-8.223,159.985
			c-0.003,0.281-0.035,0.568-0.099,0.843c-0.197,0.832-0.954,1.18-1.708,0.772c-0.285-0.154-0.529-0.386-0.818-0.602v0.646h-1.329
			c-0.005-0.084-0.016-0.169-0.016-0.254c-0.001-3.198,0-6.395-0.005-9.593c0-0.186,0.041-0.26,0.241-0.251
			c0.363,0.015,0.727,0.004,1.118,0.004v3.249c0.233-0.192,0.424-0.377,0.64-0.523c0.345-0.235,0.737-0.305,1.137-0.182
			c0.542,0.168,0.716,0.623,0.79,1.123c0.045,0.304,0.059,0.614,0.06,0.922C-8.209,157.421-8.21,158.703-8.223,159.985z
			 M-3.486,161.049c-0.551,0.676-1.281,0.824-2.083,0.65c-0.803-0.175-1.3-0.7-1.475-1.503c-0.063-0.29-0.092-0.594-0.096-0.892
			c-0.012-0.956-0.017-1.914,0.002-2.87c0.007-0.345,0.053-0.697,0.143-1.029c0.247-0.907,1.084-1.406,2.024-1.362
			c0.987,0.046,1.8,0.707,1.861,1.895c0.038,0.727,0.007,1.456,0.007,2.221h-2.705c0.026,0.616,0.024,1.213,0.085,1.805
			c0.039,0.382,0.323,0.569,0.681,0.546c0.331-0.021,0.545-0.252,0.567-0.637c0.015-0.265,0.003-0.531,0.003-0.815h1.403
			C-3.052,159.758-3.003,160.456-3.486,161.049z"/>
	</defs>
	<clipPath id="SVGID_52_">
		<use xlink:href="#SVGID_51_"  overflow="visible"/>
	</clipPath>
	<g clip-path="url(#SVGID_52_)">
		<defs>
			<rect id="SVGID_53_" x="-495" y="-216" width="1024" height="469"/>
		</defs>
		<clipPath id="SVGID_54_">
			<use xlink:href="#SVGID_53_"  overflow="visible"/>
		</clipPath>
		<rect x="-28.909" y="143.914" clip-path="url(#SVGID_54_)" fill="#ADADAD" width="32.51" height="25.723"/>
	</g>
</g>
<g>
	<defs>
		<path id="SVGID_55_" d="M-16.848,147.547h-1.506c-0.004-0.097-0.012-0.189-0.012-0.283c-0.001-0.893-0.031-1.786,0.008-2.677
			c0.042-0.939-0.115-1.839-0.41-2.72c-0.467-1.396-0.941-2.789-1.412-4.184c-0.033-0.098-0.06-0.198-0.096-0.318
			c0.509,0,0.996-0.006,1.481,0.009c0.057,0.002,0.14,0.112,0.16,0.187c0.326,1.178,0.645,2.357,0.965,3.537
			c0.017,0.062,0.039,0.121,0.078,0.245c0.18-0.69,0.343-1.319,0.507-1.948c0.16-0.618,0.317-1.239,0.488-1.855
			c0.019-0.068,0.113-0.164,0.175-0.166c0.453-0.015,0.907-0.008,1.399-0.008c-0.062,0.219-0.115,0.417-0.174,0.612
			c-0.531,1.749-1.063,3.497-1.591,5.248c-0.039,0.129-0.057,0.27-0.058,0.404c-0.004,1.201-0.002,2.402-0.002,3.603V147.547z"/>
	</defs>
	<clipPath id="SVGID_56_">
		<use xlink:href="#SVGID_55_"  overflow="visible"/>
	</clipPath>
	<g clip-path="url(#SVGID_56_)">
		<defs>
			<rect id="SVGID_57_" x="-495" y="-216" width="1024" height="469"/>
		</defs>
		<clipPath id="SVGID_58_">
			<use xlink:href="#SVGID_57_"  overflow="visible"/>
		</clipPath>
		<rect x="-25.276" y="132.364" clip-path="url(#SVGID_58_)" fill="#ADADAD" width="15.253" height="20.183"/>
	</g>
</g>
<g>
	<defs>
		<path id="SVGID_59_" d="M-9.781,139.989h1.367v0.299c0,1.85,0,3.699,0,5.549c0,0.081-0.005,0.164,0.008,0.243
			c0.045,0.283,0.213,0.386,0.486,0.304c0.394-0.117,0.706-0.53,0.706-0.934c0-1.72,0-3.44,0-5.16v-0.301h1.366v7.555h-1.36v-0.782
			c-0.271,0.228-0.494,0.436-0.739,0.614c-0.312,0.228-0.669,0.322-1.058,0.265c-0.344-0.051-0.595-0.229-0.674-0.574
			c-0.063-0.274-0.109-0.56-0.111-0.84c-0.009-2.036-0.005-4.072-0.004-6.108C-9.794,140.086-9.788,140.054-9.781,139.989"/>
	</defs>
	<clipPath id="SVGID_60_">
		<use xlink:href="#SVGID_59_"  overflow="visible"/>
	</clipPath>
	<g clip-path="url(#SVGID_60_)">
		<defs>
			<rect id="SVGID_61_" x="-495" y="-216" width="1024" height="469"/>
		</defs>
		<clipPath id="SVGID_62_">
			<use xlink:href="#SVGID_61_"  overflow="visible"/>
		</clipPath>
		<rect x="-14.796" y="134.989" clip-path="url(#SVGID_62_)" fill="#ADADAD" width="13.948" height="17.668"/>
	</g>
</g>
<g>
	<defs>
		<path id="SVGID_63_" d="M-11.005,141.61c-0.082-0.794-0.5-1.395-1.294-1.627c-0.788-0.23-1.529-0.127-2.126,0.501
			c-0.443,0.466-0.547,1.06-0.557,1.666c-0.018,1.078-0.018,2.156,0,3.235c0.009,0.536,0.1,1.066,0.432,1.517
			c0.477,0.649,1.317,0.91,2.182,0.684c0.74-0.192,1.288-0.828,1.367-1.679c0.065-0.708,0.06-1.424,0.085-2.145
			C-10.942,143.05-10.931,142.326-11.005,141.61 M-12.32,145.47c-0.001,0.19-0.047,0.387-0.108,0.569
			c-0.082,0.246-0.274,0.377-0.537,0.38c-0.263,0.004-0.463-0.124-0.542-0.37c-0.068-0.213-0.107-0.442-0.113-0.665
			c-0.016-0.543-0.005-1.087-0.005-1.63s-0.005-1.086,0.003-1.63c0.002-0.177,0.022-0.356,0.065-0.527
			c0.082-0.324,0.287-0.484,0.582-0.485c0.3-0.002,0.497,0.149,0.586,0.477c0.042,0.154,0.07,0.317,0.071,0.478
			C-12.312,143.2-12.31,144.335-12.32,145.47"/>
	</defs>
	<clipPath id="SVGID_64_">
		<use xlink:href="#SVGID_63_"  overflow="visible"/>
	</clipPath>
	<g clip-path="url(#SVGID_64_)">
		<defs>
			<rect id="SVGID_65_" x="-495" y="-216" width="1024" height="469"/>
		</defs>
		<clipPath id="SVGID_66_">
			<use xlink:href="#SVGID_65_"  overflow="visible"/>
		</clipPath>
		<rect x="-19.996" y="134.871" clip-path="url(#SVGID_66_)" fill="#ADADAD" width="14.079" height="17.795"/>
	</g>
</g>
<g>
	<defs>
		<path id="SVGID_67_" d="M-10.839,157.908c0-0.688,0-1.378,0-2.067c0-0.268,0.187-0.465,0.512-0.541
			c0.293-0.069,0.547,0.028,0.638,0.299c0.076,0.226,0.117,0.473,0.119,0.711c0.008,1.143-0.003,2.285-0.009,3.429
			c0,0.04-0.002,0.081-0.007,0.121c-0.078,0.646-0.573,0.86-1.089,0.458c-0.085-0.066-0.154-0.209-0.157-0.317
			C-10.847,159.303-10.839,158.605-10.839,157.908"/>
	</defs>
	<clipPath id="SVGID_68_">
		<use xlink:href="#SVGID_67_"  overflow="visible"/>
	</clipPath>
	<g clip-path="url(#SVGID_68_)">
		<defs>
			<rect id="SVGID_69_" x="-495" y="-216" width="1024" height="469"/>
		</defs>
		<clipPath id="SVGID_70_">
			<use xlink:href="#SVGID_69_"  overflow="visible"/>
		</clipPath>
		<rect x="-15.841" y="150.278" clip-path="url(#SVGID_70_)" fill="#ADADAD" width="11.273" height="15.243"/>
	</g>
</g>
<g>
	<defs>
		<circle id="SVGID_71_" cx="-1" cy="158" r="20"/>
	</defs>
	<clipPath id="SVGID_72_">
		<use xlink:href="#SVGID_71_"  overflow="visible"/>
	</clipPath>
	<g clip-path="url(#SVGID_72_)">
		<defs>
			<rect id="SVGID_73_" x="-483" y="-209" width="1024" height="469"/>
		</defs>
		<clipPath id="SVGID_74_">
			<use xlink:href="#SVGID_73_"  overflow="visible"/>
		</clipPath>
		<rect x="-26" y="133" clip-path="url(#SVGID_74_)" fill="#FFFFFF" width="50" height="50"/>
	</g>
</g>
<g>
	<defs>
		<path id="SVGID_75_" d="M10.599,162.408c-0.005-1.282-0.093-2.559-0.342-3.82c-0.235-1.198-1.077-2.124-2.276-2.296
			c-1.144-0.165-2.307-0.229-3.463-0.272c-1.726-0.064-3.454-0.073-5.181-0.105c0,0.012,0,0.022,0,0.034H-2.27
			c-2.149,0.001-4.295,0.078-6.439,0.245c-1.461,0.113-2.56,0.959-2.828,2.333c-0.162,0.832-0.265,1.684-0.303,2.53
			c-0.062,1.368-0.092,2.741-0.052,4.109c0.035,1.188,0.156,2.376,0.293,3.557c0.121,1.035,0.639,1.839,1.591,2.325
			c0.513,0.262,1.076,0.304,1.631,0.333c1.796,0.096,3.593,0.195,5.392,0.234c1.653,0.035,3.31,0.024,4.963-0.021
			c1.854-0.052,3.708-0.155,5.56-0.257c1.305-0.072,2.306-0.82,2.62-2.084c0.221-0.889,0.327-1.818,0.375-2.735
			C10.607,165.15,10.604,163.778,10.599,162.408z M-5.494,159.998h-1.625v8.646h-1.516v-8.646h-1.586v-1.429h4.727V159.998z
			 M-1.398,168.646h-1.333v-0.777c-0.21,0.185-0.375,0.345-0.556,0.484c-0.376,0.291-0.783,0.486-1.282,0.375
			c-0.326-0.072-0.542-0.263-0.61-0.585c-0.055-0.261-0.101-0.528-0.102-0.793c-0.008-2.013-0.005-4.025-0.004-6.038
			c0-0.048,0.007-0.096,0.014-0.179c0.411,0,0.799,0.003,1.188-0.002c0.164-0.002,0.153,0.103,0.153,0.212c0,0.665,0,1.331,0,1.996
			c0,1.169,0,2.338,0,3.507c0,0.057-0.003,0.113,0.001,0.17c0.015,0.176-0.011,0.41,0.192,0.456c0.16,0.036,0.377-0.013,0.519-0.103
			c0.307-0.194,0.497-0.451,0.49-0.874c-0.027-1.688-0.011-3.376-0.011-5.064v-0.28h1.342V168.646z M3.777,166.985
			c-0.003,0.281-0.035,0.568-0.099,0.843c-0.197,0.832-0.954,1.18-1.708,0.772c-0.285-0.154-0.529-0.386-0.818-0.602v0.646h-1.329
			c-0.005-0.084-0.016-0.169-0.016-0.254c-0.001-3.198,0-6.395-0.005-9.593c0-0.186,0.041-0.26,0.241-0.251
			c0.363,0.015,0.727,0.004,1.118,0.004v3.249c0.233-0.192,0.424-0.377,0.64-0.523c0.345-0.235,0.737-0.305,1.137-0.182
			c0.542,0.168,0.716,0.623,0.79,1.123c0.045,0.304,0.059,0.614,0.06,0.922C3.791,164.421,3.79,165.703,3.777,166.985z
			 M8.514,168.049c-0.551,0.676-1.281,0.824-2.083,0.65c-0.803-0.175-1.3-0.7-1.475-1.503c-0.063-0.29-0.092-0.594-0.096-0.892
			c-0.012-0.956-0.017-1.914,0.002-2.87c0.007-0.345,0.053-0.697,0.143-1.029c0.247-0.907,1.084-1.406,2.024-1.362
			c0.987,0.046,1.8,0.707,1.861,1.895c0.038,0.727,0.007,1.456,0.007,2.221H6.194c0.026,0.616,0.024,1.213,0.085,1.805
			c0.039,0.382,0.323,0.569,0.681,0.546c0.331-0.021,0.545-0.252,0.567-0.637c0.015-0.265,0.003-0.531,0.003-0.815h1.403
			C8.948,166.758,8.997,167.456,8.514,168.049z"/>
	</defs>
	<clipPath id="SVGID_76_">
		<use xlink:href="#SVGID_75_"  overflow="visible"/>
	</clipPath>
	<g clip-path="url(#SVGID_76_)">
		<defs>
			<rect id="SVGID_77_" x="-483" y="-209" width="1024" height="469"/>
		</defs>
		<clipPath id="SVGID_78_">
			<use xlink:href="#SVGID_77_"  overflow="visible"/>
		</clipPath>
		<rect x="-16.909" y="150.914" clip-path="url(#SVGID_78_)" fill="#ADADAD" width="32.51" height="25.723"/>
	</g>
</g>
<g>
	<defs>
		<path id="SVGID_79_" d="M-4.848,154.547h-1.506c-0.004-0.097-0.012-0.189-0.012-0.283c-0.001-0.893-0.031-1.786,0.008-2.677
			c0.042-0.939-0.115-1.839-0.41-2.72c-0.467-1.396-0.941-2.789-1.412-4.184c-0.033-0.098-0.06-0.198-0.096-0.318
			c0.509,0,0.996-0.006,1.481,0.009c0.057,0.002,0.14,0.112,0.16,0.187c0.326,1.178,0.645,2.357,0.965,3.537
			c0.017,0.062,0.039,0.121,0.078,0.245c0.18-0.69,0.343-1.319,0.507-1.948c0.16-0.618,0.317-1.239,0.488-1.855
			c0.019-0.068,0.113-0.164,0.175-0.166c0.453-0.015,0.907-0.008,1.399-0.008c-0.062,0.219-0.115,0.417-0.174,0.612
			c-0.531,1.749-1.063,3.497-1.591,5.248c-0.039,0.129-0.057,0.27-0.058,0.404c-0.004,1.201-0.002,2.402-0.002,3.603V154.547z"/>
	</defs>
	<clipPath id="SVGID_80_">
		<use xlink:href="#SVGID_79_"  overflow="visible"/>
	</clipPath>
	<g clip-path="url(#SVGID_80_)">
		<defs>
			<rect id="SVGID_81_" x="-483" y="-209" width="1024" height="469"/>
		</defs>
		<clipPath id="SVGID_82_">
			<use xlink:href="#SVGID_81_"  overflow="visible"/>
		</clipPath>
		<rect x="-13.276" y="139.364" clip-path="url(#SVGID_82_)" fill="#ADADAD" width="15.253" height="20.183"/>
	</g>
</g>
<g>
	<defs>
		<path id="SVGID_83_" d="M2.219,146.989h1.367v0.299c0,1.85,0,3.699,0,5.549c0,0.081-0.005,0.164,0.008,0.243
			c0.045,0.283,0.213,0.386,0.486,0.304c0.394-0.117,0.706-0.53,0.706-0.934c0-1.72,0-3.44,0-5.16v-0.301h1.366v7.555h-1.36v-0.782
			c-0.271,0.228-0.494,0.436-0.739,0.614c-0.312,0.228-0.669,0.322-1.058,0.265c-0.344-0.051-0.595-0.229-0.674-0.574
			c-0.063-0.274-0.109-0.56-0.111-0.84c-0.009-2.036-0.005-4.072-0.004-6.108C2.206,147.086,2.212,147.054,2.219,146.989"/>
	</defs>
	<clipPath id="SVGID_84_">
		<use xlink:href="#SVGID_83_"  overflow="visible"/>
	</clipPath>
	<g clip-path="url(#SVGID_84_)">
		<defs>
			<rect id="SVGID_85_" x="-483" y="-209" width="1024" height="469"/>
		</defs>
		<clipPath id="SVGID_86_">
			<use xlink:href="#SVGID_85_"  overflow="visible"/>
		</clipPath>
		<rect x="-2.796" y="141.989" clip-path="url(#SVGID_86_)" fill="#ADADAD" width="13.948" height="17.668"/>
	</g>
</g>
<g>
	<defs>
		<path id="SVGID_87_" d="M0.995,148.61c-0.082-0.794-0.5-1.395-1.294-1.627c-0.788-0.23-1.529-0.127-2.126,0.501
			c-0.443,0.466-0.547,1.06-0.557,1.666c-0.018,1.078-0.018,2.156,0,3.235c0.009,0.536,0.1,1.066,0.432,1.517
			c0.477,0.649,1.317,0.91,2.182,0.684c0.74-0.192,1.288-0.828,1.367-1.679c0.065-0.708,0.06-1.424,0.085-2.145
			C1.058,150.05,1.069,149.326,0.995,148.61 M-0.32,152.47c-0.001,0.19-0.047,0.387-0.108,0.569
			c-0.082,0.246-0.274,0.377-0.537,0.38c-0.263,0.004-0.463-0.124-0.542-0.37c-0.068-0.213-0.107-0.442-0.113-0.665
			c-0.016-0.543-0.005-1.087-0.005-1.63s-0.005-1.086,0.003-1.63c0.002-0.177,0.022-0.356,0.065-0.527
			c0.082-0.324,0.287-0.484,0.582-0.485c0.3-0.002,0.497,0.149,0.586,0.477c0.042,0.154,0.07,0.317,0.071,0.478
			C-0.312,150.2-0.31,151.335-0.32,152.47"/>
	</defs>
	<clipPath id="SVGID_88_">
		<use xlink:href="#SVGID_87_"  overflow="visible"/>
	</clipPath>
	<g clip-path="url(#SVGID_88_)">
		<defs>
			<rect id="SVGID_89_" x="-483" y="-209" width="1024" height="469"/>
		</defs>
		<clipPath id="SVGID_90_">
			<use xlink:href="#SVGID_89_"  overflow="visible"/>
		</clipPath>
		<rect x="-7.996" y="141.871" clip-path="url(#SVGID_90_)" fill="#ADADAD" width="14.079" height="17.795"/>
	</g>
</g>
<g>
	<defs>
		<path id="SVGID_91_" d="M1.161,164.908c0-0.688,0-1.378,0-2.067c0-0.268,0.187-0.465,0.512-0.541
			c0.293-0.069,0.547,0.028,0.638,0.299c0.076,0.226,0.117,0.473,0.119,0.711c0.008,1.143-0.003,2.285-0.009,3.429
			c0,0.04-0.002,0.081-0.007,0.121c-0.078,0.646-0.573,0.86-1.089,0.458c-0.085-0.066-0.154-0.209-0.157-0.317
			C1.153,166.303,1.161,165.605,1.161,164.908"/>
	</defs>
	<clipPath id="SVGID_92_">
		<use xlink:href="#SVGID_91_"  overflow="visible"/>
	</clipPath>
	<g clip-path="url(#SVGID_92_)">
		<defs>
			<rect id="SVGID_93_" x="-483" y="-209" width="1024" height="469"/>
		</defs>
		<clipPath id="SVGID_94_">
			<use xlink:href="#SVGID_93_"  overflow="visible"/>
		</clipPath>
		<rect x="-3.841" y="157.278" clip-path="url(#SVGID_94_)" fill="#ADADAD" width="11.273" height="15.243"/>
	</g>
</g>
<g>
	<defs>
		<path id="SVGID_95_" d="M7.604,163.993h-1.41c0.027-0.406,0.028-0.802,0.087-1.189c0.052-0.341,0.294-0.519,0.604-0.521
			c0.328-0.002,0.574,0.171,0.63,0.522C7.576,163.186,7.575,163.575,7.604,163.993"/>
	</defs>
	<clipPath id="SVGID_96_">
		<use xlink:href="#SVGID_95_"  overflow="visible"/>
	</clipPath>
	<g clip-path="url(#SVGID_96_)">
		<defs>
			<rect id="SVGID_97_" x="-483" y="-209" width="1024" height="469"/>
		</defs>
		<clipPath id="SVGID_98_">
			<use xlink:href="#SVGID_97_"  overflow="visible"/>
		</clipPath>
		<rect x="1.194" y="157.282" clip-path="url(#SVGID_98_)" fill="#ADADAD" width="11.41" height="11.711"/>
	</g>
</g>
<g>
	<defs>
		<circle id="SVGID_99_" cx="-1" cy="158" r="20"/>
	</defs>
	<clipPath id="SVGID_100_">
		<use xlink:href="#SVGID_99_"  overflow="visible"/>
	</clipPath>
	<g clip-path="url(#SVGID_100_)">
		<defs>
			<rect id="SVGID_101_" x="-483" y="-209" width="1024" height="469"/>
		</defs>
		<clipPath id="SVGID_102_">
			<use xlink:href="#SVGID_101_"  overflow="visible"/>
		</clipPath>
		<rect x="-26" y="133" clip-path="url(#SVGID_102_)" fill="#FFFFFF" width="50" height="50"/>
	</g>
</g>
<g>
	<defs>
		<path id="SVGID_103_" d="M10.599,162.408c-0.005-1.282-0.093-2.559-0.342-3.82c-0.235-1.198-1.077-2.124-2.276-2.296
			c-1.144-0.165-2.307-0.229-3.463-0.272c-1.726-0.064-3.454-0.073-5.181-0.105c0,0.012,0,0.022,0,0.034H-2.27
			c-2.149,0.001-4.295,0.078-6.439,0.245c-1.461,0.113-2.56,0.959-2.828,2.333c-0.162,0.832-0.265,1.684-0.303,2.53
			c-0.062,1.368-0.092,2.741-0.052,4.109c0.035,1.188,0.156,2.376,0.293,3.557c0.121,1.035,0.639,1.839,1.591,2.325
			c0.513,0.262,1.076,0.304,1.631,0.333c1.796,0.096,3.593,0.195,5.392,0.234c1.653,0.035,3.31,0.024,4.963-0.021
			c1.854-0.052,3.708-0.155,5.56-0.257c1.305-0.072,2.306-0.82,2.62-2.084c0.221-0.889,0.327-1.818,0.375-2.735
			C10.607,165.15,10.604,163.778,10.599,162.408z M-5.494,159.998h-1.625v8.646h-1.516v-8.646h-1.586v-1.429h4.727V159.998z
			 M-1.398,168.646h-1.333v-0.777c-0.21,0.185-0.375,0.345-0.556,0.484c-0.376,0.291-0.783,0.486-1.282,0.375
			c-0.326-0.072-0.542-0.263-0.61-0.585c-0.055-0.261-0.101-0.528-0.102-0.793c-0.008-2.013-0.005-4.025-0.004-6.038
			c0-0.048,0.007-0.096,0.014-0.179c0.411,0,0.799,0.003,1.188-0.002c0.164-0.002,0.153,0.103,0.153,0.212c0,0.665,0,1.331,0,1.996
			c0,1.169,0,2.338,0,3.507c0,0.057-0.003,0.113,0.001,0.17c0.015,0.176-0.011,0.41,0.192,0.456c0.16,0.036,0.377-0.013,0.519-0.103
			c0.307-0.194,0.497-0.451,0.49-0.874c-0.027-1.688-0.011-3.376-0.011-5.064v-0.28h1.342V168.646z M3.777,166.985
			c-0.003,0.281-0.035,0.568-0.099,0.843c-0.197,0.832-0.954,1.18-1.708,0.772c-0.285-0.154-0.529-0.386-0.818-0.602v0.646h-1.329
			c-0.005-0.084-0.016-0.169-0.016-0.254c-0.001-3.198,0-6.395-0.005-9.593c0-0.186,0.041-0.26,0.241-0.251
			c0.363,0.015,0.727,0.004,1.118,0.004v3.249c0.233-0.192,0.424-0.377,0.64-0.523c0.345-0.235,0.737-0.305,1.137-0.182
			c0.542,0.168,0.716,0.623,0.79,1.123c0.045,0.304,0.059,0.614,0.06,0.922C3.791,164.421,3.79,165.703,3.777,166.985z
			 M8.514,168.049c-0.551,0.676-1.281,0.824-2.083,0.65c-0.803-0.175-1.3-0.7-1.475-1.503c-0.063-0.29-0.092-0.594-0.096-0.892
			c-0.012-0.956-0.017-1.914,0.002-2.87c0.007-0.345,0.053-0.697,0.143-1.029c0.247-0.907,1.084-1.406,2.024-1.362
			c0.987,0.046,1.8,0.707,1.861,1.895c0.038,0.727,0.007,1.456,0.007,2.221H6.194c0.026,0.616,0.024,1.213,0.085,1.805
			c0.039,0.382,0.323,0.569,0.681,0.546c0.331-0.021,0.545-0.252,0.567-0.637c0.015-0.265,0.003-0.531,0.003-0.815h1.403
			C8.948,166.758,8.997,167.456,8.514,168.049z"/>
	</defs>
	<clipPath id="SVGID_104_">
		<use xlink:href="#SVGID_103_"  overflow="visible"/>
	</clipPath>
	<g clip-path="url(#SVGID_104_)">
		<defs>
			<rect id="SVGID_105_" x="-483" y="-209" width="1024" height="469"/>
		</defs>
		<clipPath id="SVGID_106_">
			<use xlink:href="#SVGID_105_"  overflow="visible"/>
		</clipPath>
		<rect x="-16.909" y="150.914" clip-path="url(#SVGID_106_)" fill="#ADADAD" width="32.51" height="25.723"/>
	</g>
</g>
<g>
	<defs>
		<path id="SVGID_107_" d="M-4.848,154.547h-1.506c-0.004-0.097-0.012-0.189-0.012-0.283c-0.001-0.893-0.031-1.786,0.008-2.677
			c0.042-0.939-0.115-1.839-0.41-2.72c-0.467-1.396-0.941-2.789-1.412-4.184c-0.033-0.098-0.06-0.198-0.096-0.318
			c0.509,0,0.996-0.006,1.481,0.009c0.057,0.002,0.14,0.112,0.16,0.187c0.326,1.178,0.645,2.357,0.965,3.537
			c0.017,0.062,0.039,0.121,0.078,0.245c0.18-0.69,0.343-1.319,0.507-1.948c0.16-0.618,0.317-1.239,0.488-1.855
			c0.019-0.068,0.113-0.164,0.175-0.166c0.453-0.015,0.907-0.008,1.399-0.008c-0.062,0.219-0.115,0.417-0.174,0.612
			c-0.531,1.749-1.063,3.497-1.591,5.248c-0.039,0.129-0.057,0.27-0.058,0.404c-0.004,1.201-0.002,2.402-0.002,3.603V154.547z"/>
	</defs>
	<clipPath id="SVGID_108_">
		<use xlink:href="#SVGID_107_"  overflow="visible"/>
	</clipPath>
	<g clip-path="url(#SVGID_108_)">
		<defs>
			<rect id="SVGID_109_" x="-483" y="-209" width="1024" height="469"/>
		</defs>
		<clipPath id="SVGID_110_">
			<use xlink:href="#SVGID_109_"  overflow="visible"/>
		</clipPath>
		<rect x="-13.276" y="139.364" clip-path="url(#SVGID_110_)" fill="#ADADAD" width="15.253" height="20.183"/>
	</g>
</g>
<g>
	<defs>
		<path id="SVGID_111_" d="M2.219,146.989h1.367v0.299c0,1.85,0,3.699,0,5.549c0,0.081-0.005,0.164,0.008,0.243
			c0.045,0.283,0.213,0.386,0.486,0.304c0.394-0.117,0.706-0.53,0.706-0.934c0-1.72,0-3.44,0-5.16v-0.301h1.366v7.555h-1.36v-0.782
			c-0.271,0.228-0.494,0.436-0.739,0.614c-0.312,0.228-0.669,0.322-1.058,0.265c-0.344-0.051-0.595-0.229-0.674-0.574
			c-0.063-0.274-0.109-0.56-0.111-0.84c-0.009-2.036-0.005-4.072-0.004-6.108C2.206,147.086,2.212,147.054,2.219,146.989"/>
	</defs>
	<clipPath id="SVGID_112_">
		<use xlink:href="#SVGID_111_"  overflow="visible"/>
	</clipPath>
	<g clip-path="url(#SVGID_112_)">
		<defs>
			<rect id="SVGID_113_" x="-483" y="-209" width="1024" height="469"/>
		</defs>
		<clipPath id="SVGID_114_">
			<use xlink:href="#SVGID_113_"  overflow="visible"/>
		</clipPath>
		<rect x="-2.796" y="141.989" clip-path="url(#SVGID_114_)" fill="#ADADAD" width="13.948" height="17.668"/>
	</g>
</g>
<g>
	<defs>
		<path id="SVGID_115_" d="M0.995,148.61c-0.082-0.794-0.5-1.395-1.294-1.627c-0.788-0.23-1.529-0.127-2.126,0.501
			c-0.443,0.466-0.547,1.06-0.557,1.666c-0.018,1.078-0.018,2.156,0,3.235c0.009,0.536,0.1,1.066,0.432,1.517
			c0.477,0.649,1.317,0.91,2.182,0.684c0.74-0.192,1.288-0.828,1.367-1.679c0.065-0.708,0.06-1.424,0.085-2.145
			C1.058,150.05,1.069,149.326,0.995,148.61 M-0.32,152.47c-0.001,0.19-0.047,0.387-0.108,0.569
			c-0.082,0.246-0.274,0.377-0.537,0.38c-0.263,0.004-0.463-0.124-0.542-0.37c-0.068-0.213-0.107-0.442-0.113-0.665
			c-0.016-0.543-0.005-1.087-0.005-1.63s-0.005-1.086,0.003-1.63c0.002-0.177,0.022-0.356,0.065-0.527
			c0.082-0.324,0.287-0.484,0.582-0.485c0.3-0.002,0.497,0.149,0.586,0.477c0.042,0.154,0.07,0.317,0.071,0.478
			C-0.312,150.2-0.31,151.335-0.32,152.47"/>
	</defs>
	<clipPath id="SVGID_116_">
		<use xlink:href="#SVGID_115_"  overflow="visible"/>
	</clipPath>
	<g clip-path="url(#SVGID_116_)">
		<defs>
			<rect id="SVGID_117_" x="-483" y="-209" width="1024" height="469"/>
		</defs>
		<clipPath id="SVGID_118_">
			<use xlink:href="#SVGID_117_"  overflow="visible"/>
		</clipPath>
		<rect x="-7.996" y="141.871" clip-path="url(#SVGID_118_)" fill="#ADADAD" width="14.079" height="17.795"/>
	</g>
</g>
<g>
	<defs>
		<path id="SVGID_119_" d="M1.161,164.908c0-0.688,0-1.378,0-2.067c0-0.268,0.187-0.465,0.512-0.541
			c0.293-0.069,0.547,0.028,0.638,0.299c0.076,0.226,0.117,0.473,0.119,0.711c0.008,1.143-0.003,2.285-0.009,3.429
			c0,0.04-0.002,0.081-0.007,0.121c-0.078,0.646-0.573,0.86-1.089,0.458c-0.085-0.066-0.154-0.209-0.157-0.317
			C1.153,166.303,1.161,165.605,1.161,164.908"/>
	</defs>
	<clipPath id="SVGID_120_">
		<use xlink:href="#SVGID_119_"  overflow="visible"/>
	</clipPath>
	<g clip-path="url(#SVGID_120_)">
		<defs>
			<rect id="SVGID_121_" x="-483" y="-209" width="1024" height="469"/>
		</defs>
		<clipPath id="SVGID_122_">
			<use xlink:href="#SVGID_121_"  overflow="visible"/>
		</clipPath>
		<rect x="-3.841" y="157.278" clip-path="url(#SVGID_122_)" fill="#ADADAD" width="11.273" height="15.243"/>
	</g>
</g>
<g>
	<defs>
		<path id="SVGID_123_" d="M7.604,163.993h-1.41c0.027-0.406,0.028-0.802,0.087-1.189c0.052-0.341,0.294-0.519,0.604-0.521
			c0.328-0.002,0.574,0.171,0.63,0.522C7.576,163.186,7.575,163.575,7.604,163.993"/>
	</defs>
	<clipPath id="SVGID_124_">
		<use xlink:href="#SVGID_123_"  overflow="visible"/>
	</clipPath>
	<g clip-path="url(#SVGID_124_)">
		<defs>
			<rect id="SVGID_125_" x="-483" y="-209" width="1024" height="469"/>
		</defs>
		<clipPath id="SVGID_126_">
			<use xlink:href="#SVGID_125_"  overflow="visible"/>
		</clipPath>
		<rect x="1.194" y="157.282" clip-path="url(#SVGID_126_)" fill="#ADADAD" width="11.41" height="11.711"/>
	</g>
</g>
<g>
	<defs>
		<rect id="SVGID_127_" x="-349" y="-483.489" width="1024" height="469"/>
	</defs>
	<clipPath id="SVGID_128_">
		<use xlink:href="#SVGID_127_"  overflow="visible"/>
	</clipPath>
	<g clip-path="url(#SVGID_128_)" enable-background="new    ">
		<g>
			<defs>
				<rect id="SVGID_129_" x="252" y="-136.489" width="40" height="40"/>
			</defs>
			<clipPath id="SVGID_130_">
				<use xlink:href="#SVGID_129_"  overflow="visible"/>
			</clipPath>
			<g clip-path="url(#SVGID_130_)">
				<defs>
					<circle id="SVGID_131_" cx="272" cy="-116.489" r="20"/>
				</defs>
				<clipPath id="SVGID_132_">
					<use xlink:href="#SVGID_131_"  overflow="visible"/>
				</clipPath>
				<g clip-path="url(#SVGID_132_)">
					<defs>
						<rect id="SVGID_133_" x="252" y="-136.489" width="40" height="40"/>
					</defs>
					<clipPath id="SVGID_134_">
						<use xlink:href="#SVGID_133_"  overflow="visible"/>
					</clipPath>
					<rect x="247" y="-141.489" clip-path="url(#SVGID_134_)" fill="#FFFFFF" width="50" height="50"/>
				</g>
			</g>
			<g clip-path="url(#SVGID_130_)">
				<defs>
					<path id="SVGID_135_" d="M272.075-124.359c-3.955-0.08-7.211,3.25-7.242,7.136c-0.033,4.007,3.267,7.277,7.181,7.299
						c3.988,0.023,7.274-3.282,7.271-7.237C279.282-121.108,275.992-124.426,272.075-124.359 M272.054-112.456
						c-2.619-0.007-4.697-2.101-4.688-4.723c0.011-2.6,2.104-4.674,4.711-4.664c2.605,0.01,4.681,2.098,4.674,4.702
						C276.743-114.535,274.653-112.45,272.054-112.456"/>
				</defs>
				<clipPath id="SVGID_136_">
					<use xlink:href="#SVGID_135_"  overflow="visible"/>
				</clipPath>
				<g clip-path="url(#SVGID_136_)">
					<defs>
						<rect id="SVGID_137_" x="252" y="-136.489" width="40" height="40"/>
					</defs>
					<clipPath id="SVGID_138_">
						<use xlink:href="#SVGID_137_"  overflow="visible"/>
					</clipPath>
					<rect x="259.832" y="-129.361" clip-path="url(#SVGID_138_)" fill="#ADADAD" width="24.453" height="24.438"/>
				</g>
			</g>
			<g clip-path="url(#SVGID_130_)">
				<defs>
					<path id="SVGID_139_" d="M279.598-126.344c-0.922-0.015-1.693,0.732-1.701,1.646c-0.007,0.956,0.713,1.692,1.665,1.703
						c0.937,0.011,1.689-0.737,1.692-1.681C281.256-125.572,280.504-126.329,279.598-126.344"/>
				</defs>
				<clipPath id="SVGID_140_">
					<use xlink:href="#SVGID_139_"  overflow="visible"/>
				</clipPath>
				<g clip-path="url(#SVGID_140_)">
					<defs>
						<rect id="SVGID_141_" x="252" y="-136.489" width="40" height="40"/>
					</defs>
					<clipPath id="SVGID_142_">
						<use xlink:href="#SVGID_141_"  overflow="visible"/>
					</clipPath>
					<rect x="272.896" y="-131.345" clip-path="url(#SVGID_142_)" fill="#ADADAD" width="13.357" height="13.351"/>
				</g>
			</g>
			<g clip-path="url(#SVGID_130_)">
				<defs>
					<rect id="SVGID_143_" x="258" y="-131.208" width="28.125" height="28.152"/>
				</defs>
				<clipPath id="SVGID_144_">
					<use xlink:href="#SVGID_143_"  overflow="visible"/>
				</clipPath>
				<g clip-path="url(#SVGID_144_)">
					<defs>
						<rect id="SVGID_145_" x="252" y="-136.489" width="40" height="40"/>
					</defs>
					<clipPath id="SVGID_146_">
						<use xlink:href="#SVGID_145_"  overflow="visible"/>
					</clipPath>
					<g clip-path="url(#SVGID_146_)" enable-background="new    ">
						<g>
							<defs>
								<rect id="SVGID_147_" x="258" y="-131.489" width="29" height="29"/>
							</defs>
							<clipPath id="SVGID_148_">
								<use xlink:href="#SVGID_147_"  overflow="visible"/>
							</clipPath>
							<g clip-path="url(#SVGID_148_)">
								<defs>
									<path id="SVGID_149_" d="M286.084-121.204c-0.021-1.139-0.076-2.288-0.257-3.41c-0.582-3.605-2.951-5.863-6.595-6.355
										c-1.339-0.182-2.704-0.218-4.059-0.23c-2.598-0.023-5.196,0.013-7.794,0.033c-1.144,0.009-2.281,0.088-3.397,0.359
										c-1.436,0.349-2.707,0.992-3.736,2.067c-1.293,1.35-1.904,3.014-2.069,4.83c-0.131,1.437-0.162,2.885-0.172,4.328
										c-0.017,2.383,0.013,4.767,0.037,7.149c0.015,1.468,0.136,2.924,0.647,4.317c0.689,1.875,1.919,3.256,3.745,4.094
										c1.348,0.618,2.781,0.823,4.24,0.868c1.786,0.056,3.573,0.067,5.36,0.098c0-0.021,0-0.04,0.001-0.06
										c1.367,0,2.734,0.011,4.102-0.004c1.239-0.014,2.476-0.051,3.698-0.304c3.396-0.703,5.405-2.97,6.005-6.226
										c0.263-1.429,0.257-2.876,0.271-4.318C286.136-116.379,286.128-118.792,286.084-121.204 M283.597-113.126
										c-0.012,1.159-0.052,2.322-0.325,3.46c-0.505,2.096-1.828,3.34-3.925,3.775c-1.25,0.26-2.521,0.271-3.789,0.291
										c-1.162,0.019-2.325,0.004-3.488,0.004c0,0.01,0,0.021,0,0.03c-1.816-0.032-3.633-0.047-5.448-0.104
										c-0.996-0.03-1.995-0.139-2.921-0.534c-1.61-0.688-2.557-1.929-2.899-3.64c-0.246-1.231-0.282-2.481-0.29-3.729
										c-0.015-2.531-0.017-5.062,0.009-7.592c0.012-1.169,0.049-2.343,0.328-3.489c0.51-2.093,1.841-3.327,3.938-3.758
										c1.222-0.251,2.463-0.279,3.7-0.287c2.531-0.015,5.062-0.018,7.593,0.009c1.168,0.012,2.341,0.052,3.488,0.33
										c2.084,0.507,3.313,1.832,3.75,3.912c0.258,1.229,0.282,2.48,0.289,3.729C283.621-118.188,283.623-115.657,283.597-113.126
										"/>
								</defs>
								<clipPath id="SVGID_150_">
									<use xlink:href="#SVGID_149_"  overflow="visible"/>
								</clipPath>
								<g clip-path="url(#SVGID_150_)">
									<defs>
										<rect id="SVGID_151_" x="258" y="-131.489" width="29" height="29"/>
									</defs>
									<clipPath id="SVGID_152_">
										<use xlink:href="#SVGID_151_"  overflow="visible"/>
									</clipPath>
									<rect x="253" y="-136.208" clip-path="url(#SVGID_152_)" fill="#ADADAD" width="38.125" height="38.152"/>
								</g>
							</g>
						</g>
					</g>
				</g>
			</g>
		</g>
	</g>
</g>
<g>
	<defs>
		<rect id="SVGID_153_" x="-389" y="-483.489" width="1024" height="469"/>
	</defs>
	<clipPath id="SVGID_154_">
		<use xlink:href="#SVGID_153_"  overflow="visible"/>
	</clipPath>
	<g clip-path="url(#SVGID_154_)" enable-background="new    ">
		<g>
			<defs>
				<rect id="SVGID_155_" x="144" y="-136.489" width="40" height="40"/>
			</defs>
			<clipPath id="SVGID_156_">
				<use xlink:href="#SVGID_155_"  overflow="visible"/>
			</clipPath>
			<g clip-path="url(#SVGID_156_)">
				<defs>
					<circle id="SVGID_157_" cx="164" cy="-116.489" r="20"/>
				</defs>
				<clipPath id="SVGID_158_">
					<use xlink:href="#SVGID_157_"  overflow="visible"/>
				</clipPath>
				<g clip-path="url(#SVGID_158_)">
					<defs>
						<rect id="SVGID_159_" x="144" y="-136.489" width="40" height="40"/>
					</defs>
					<clipPath id="SVGID_160_">
						<use xlink:href="#SVGID_159_"  overflow="visible"/>
					</clipPath>
					<rect x="139" y="-141.489" clip-path="url(#SVGID_160_)" fill="#FFFFFF" width="50" height="50"/>
				</g>
			</g>
			<g clip-path="url(#SVGID_156_)">
				<defs>
					<path id="SVGID_161_" d="M181-123.488c-0.76,1.145-1.687,2.118-2.771,2.937c-0.163,0.123-0.233,0.247-0.229,0.455
						c0.076,4.469-1.333,8.425-4.12,11.904c-2.626,3.279-6.032,5.235-10.147,5.975c-3.202,0.574-6.351,0.346-9.419-0.758
						c-1.165-0.419-2.27-0.972-3.313-1.674c1.604,0.109,3.186,0.006,4.737-0.423c1.555-0.43,2.957-1.155,4.269-2.174
						c-2.824-0.242-4.725-1.655-5.771-4.31c0.934,0.099,1.811,0.129,2.713-0.117c-3.05-0.932-4.686-2.932-4.893-6.138
						c0.485,0.188,0.907,0.387,1.35,0.513c0.438,0.125,0.896,0.177,1.354,0.236c-2.699-2.296-3.324-5.024-1.838-8.313
						c3.394,3.988,7.622,6.167,12.799,6.523c-0.041-0.464-0.1-0.887-0.112-1.311c-0.108-3.649,3.04-6.618,6.68-6.306
						c1.469,0.126,2.747,0.683,3.795,1.727c0.179,0.179,0.34,0.203,0.565,0.149c1.159-0.273,2.269-0.674,3.306-1.267
						c0.076-0.043,0.157-0.076,0.274-0.132c-0.228,0.729-0.539,1.376-1.019,1.907c-0.474,0.526-1.017,0.989-1.503,1.453
						C178.804-122.751,179.91-123.075,181-123.488"/>
				</defs>
				<clipPath id="SVGID_162_">
					<use xlink:href="#SVGID_161_"  overflow="visible"/>
				</clipPath>
				<g clip-path="url(#SVGID_162_)">
					<defs>
						<rect id="SVGID_163_" x="144" y="-136.489" width="40" height="40"/>
					</defs>
					<clipPath id="SVGID_164_">
						<use xlink:href="#SVGID_163_"  overflow="visible"/>
					</clipPath>
					<rect x="146" y="-131.489" clip-path="url(#SVGID_164_)" fill="#ADADAD" width="40" height="34.576"/>
				</g>
			</g>
		</g>
	</g>
</g>
<g>
	<defs>
		<path id="SVGID_165_" d="M31.599,24.783c-0.005-1.282-0.093-2.559-0.342-3.82c-0.235-1.198-1.077-2.124-2.276-2.296
			c-1.144-0.165-2.307-0.229-3.463-0.272c-1.726-0.064-3.454-0.073-5.181-0.105c0,0.012,0,0.022-0.001,0.034H18.73
			c-2.149,0.001-4.295,0.078-6.439,0.245c-1.461,0.113-2.56,0.959-2.827,2.333c-0.162,0.832-0.265,1.684-0.303,2.53
			C9.1,24.8,9.068,26.173,9.109,27.541c0.034,1.188,0.155,2.376,0.293,3.557c0.12,1.035,0.639,1.839,1.591,2.325
			c0.513,0.262,1.076,0.304,1.631,0.333c1.796,0.096,3.593,0.195,5.392,0.234c1.653,0.035,3.31,0.024,4.963-0.021
			c1.854-0.052,3.708-0.155,5.561-0.257c1.305-0.072,2.307-0.82,2.62-2.084c0.221-0.889,0.327-1.818,0.376-2.735
			C31.607,27.525,31.604,26.153,31.599,24.783z M15.506,22.373h-1.624v8.646h-1.517v-8.646h-1.586v-1.429h4.727V22.373z
			 M19.602,31.021h-1.334v-0.777c-0.209,0.185-0.375,0.345-0.555,0.484c-0.377,0.291-0.783,0.486-1.283,0.375
			c-0.326-0.072-0.541-0.263-0.609-0.585c-0.055-0.261-0.101-0.528-0.102-0.793c-0.008-2.013-0.005-4.025-0.004-6.038
			c0-0.048,0.007-0.096,0.014-0.179c0.411,0,0.799,0.003,1.188-0.002c0.164-0.002,0.153,0.103,0.152,0.212c0,0.665,0,1.331,0,1.996
			c0,1.169,0,2.338,0,3.507c0,0.057-0.004,0.113,0.002,0.17c0.015,0.176-0.012,0.41,0.191,0.456c0.16,0.036,0.377-0.013,0.52-0.103
			c0.307-0.194,0.496-0.451,0.49-0.874c-0.027-1.688-0.012-3.376-0.012-5.064v-0.28h1.342V31.021z M24.777,29.36
			c-0.003,0.281-0.035,0.568-0.1,0.843c-0.196,0.832-0.953,1.18-1.708,0.772c-0.285-0.154-0.529-0.386-0.818-0.602v0.646h-1.329
			c-0.006-0.084-0.016-0.169-0.016-0.254c-0.001-3.198,0-6.395-0.005-9.593c0-0.186,0.04-0.26,0.241-0.251
			c0.363,0.015,0.727,0.004,1.118,0.004v3.249c0.233-0.192,0.424-0.377,0.64-0.523c0.346-0.235,0.737-0.305,1.137-0.182
			c0.543,0.168,0.717,0.623,0.79,1.123c0.045,0.304,0.06,0.614,0.06,0.922C24.791,26.796,24.79,28.078,24.777,29.36z M29.514,30.424
			c-0.551,0.676-1.28,0.824-2.082,0.65c-0.803-0.175-1.3-0.7-1.475-1.503c-0.063-0.29-0.092-0.594-0.096-0.892
			c-0.012-0.956-0.017-1.914,0.002-2.87c0.007-0.345,0.053-0.697,0.143-1.029c0.247-0.907,1.085-1.406,2.025-1.362
			c0.986,0.046,1.8,0.707,1.86,1.895c0.038,0.727,0.007,1.456,0.007,2.221h-2.705c0.026,0.616,0.025,1.213,0.086,1.805
			c0.039,0.382,0.322,0.569,0.681,0.546c0.331-0.021,0.546-0.252,0.567-0.637c0.015-0.265,0.002-0.531,0.002-0.815h1.404
			C29.948,29.133,29.996,29.831,29.514,30.424z"/>
	</defs>
	<use xlink:href="#SVGID_165_"  overflow="visible" fill-rule="evenodd" clip-rule="evenodd" fill="#E62117"/>
	<clipPath id="SVGID_166_">
		<use xlink:href="#SVGID_165_"  overflow="visible"/>
	</clipPath>
	<g clip-path="url(#SVGID_166_)">
		<defs>
			<rect id="SVGID_167_" x="-462" y="-346.625" width="1024" height="469"/>
		</defs>
		<use xlink:href="#SVGID_167_"  overflow="visible" fill="#E62117"/>
		<clipPath id="SVGID_168_">
			<use xlink:href="#SVGID_167_"  overflow="visible"/>
		</clipPath>
		<rect x="4.091" y="13.289" clip-path="url(#SVGID_168_)" fill="#E62117" width="32.511" height="25.723"/>
	</g>
</g>
<g>
	<defs>
		<path id="SVGID_169_" d="M16.152,16.922h-1.506c-0.004-0.097-0.012-0.189-0.012-0.283c-0.002-0.893-0.031-1.786,0.008-2.677
			c0.041-0.939-0.115-1.839-0.41-2.72c-0.467-1.396-0.941-2.789-1.412-4.184C12.787,6.961,12.76,6.86,12.725,6.74
			c0.509,0,0.995-0.006,1.48,0.009c0.057,0.002,0.141,0.112,0.16,0.187c0.326,1.178,0.645,2.357,0.965,3.537
			c0.018,0.062,0.039,0.121,0.078,0.245c0.18-0.69,0.344-1.319,0.508-1.948c0.16-0.618,0.316-1.239,0.487-1.855
			c0.019-0.068,0.112-0.164,0.175-0.166c0.453-0.015,0.907-0.008,1.398-0.008c-0.062,0.219-0.115,0.417-0.174,0.612
			c-0.531,1.749-1.063,3.497-1.591,5.248c-0.039,0.129-0.057,0.27-0.058,0.404c-0.004,1.201-0.002,2.402-0.002,3.603V16.922z"/>
	</defs>
	<clipPath id="SVGID_170_">
		<use xlink:href="#SVGID_169_"  overflow="visible"/>
	</clipPath>
	<g clip-path="url(#SVGID_170_)">
		<defs>
			<rect id="SVGID_171_" x="-462" y="-346.625" width="1024" height="469"/>
		</defs>
		<clipPath id="SVGID_172_">
			<use xlink:href="#SVGID_171_"  overflow="visible"/>
		</clipPath>
		<rect x="7.725" y="1.739" clip-path="url(#SVGID_172_)" fill="#ADADAD" width="15.252" height="20.183"/>
	</g>
</g>
<g>
	<defs>
		<path id="SVGID_173_" d="M23.219,9.364h1.367v0.299c0,1.85,0,3.699,0,5.549c0,0.081-0.006,0.164,0.008,0.243
			c0.045,0.283,0.213,0.386,0.486,0.304c0.394-0.117,0.705-0.53,0.705-0.934c0-1.72,0-3.44,0.001-5.16V9.364h1.366v7.555h-1.36
			v-0.782c-0.271,0.228-0.494,0.436-0.739,0.614c-0.313,0.228-0.669,0.322-1.059,0.265c-0.344-0.051-0.594-0.229-0.674-0.574
			c-0.063-0.274-0.109-0.56-0.11-0.84c-0.009-2.036-0.005-4.072-0.004-6.108C23.206,9.461,23.212,9.429,23.219,9.364"/>
	</defs>
	<clipPath id="SVGID_174_">
		<use xlink:href="#SVGID_173_"  overflow="visible"/>
	</clipPath>
	<g clip-path="url(#SVGID_174_)">
		<defs>
			<rect id="SVGID_175_" x="-462" y="-346.625" width="1024" height="469"/>
		</defs>
		<clipPath id="SVGID_176_">
			<use xlink:href="#SVGID_175_"  overflow="visible"/>
		</clipPath>
		<rect x="18.204" y="4.364" clip-path="url(#SVGID_176_)" fill="#ADADAD" width="13.948" height="17.668"/>
	</g>
</g>
<g>
	<defs>
		<path id="SVGID_177_" d="M21.995,10.985c-0.082-0.794-0.5-1.395-1.294-1.627c-0.787-0.23-1.529-0.127-2.126,0.501
			c-0.443,0.466-0.547,1.06-0.558,1.666c-0.018,1.078-0.018,2.156,0,3.235c0.01,0.536,0.101,1.066,0.432,1.517
			c0.478,0.649,1.318,0.91,2.182,0.684c0.74-0.192,1.289-0.828,1.367-1.679c0.064-0.708,0.06-1.424,0.086-2.145
			C22.058,12.425,22.069,11.701,21.995,10.985 M20.68,14.845c0,0.19-0.047,0.387-0.107,0.569c-0.082,0.246-0.274,0.377-0.537,0.38
			c-0.264,0.004-0.463-0.124-0.542-0.37c-0.067-0.213-0.106-0.442-0.113-0.665c-0.017-0.543-0.005-1.087-0.005-1.63
			s-0.006-1.086,0.002-1.63c0.003-0.177,0.022-0.356,0.066-0.527c0.081-0.324,0.287-0.484,0.582-0.485
			c0.3-0.002,0.496,0.149,0.586,0.477c0.043,0.154,0.07,0.317,0.07,0.478C20.688,12.575,20.69,13.71,20.68,14.845"/>
	</defs>
	<clipPath id="SVGID_178_">
		<use xlink:href="#SVGID_177_"  overflow="visible"/>
	</clipPath>
	<g clip-path="url(#SVGID_178_)">
		<defs>
			<rect id="SVGID_179_" x="-462" y="-346.625" width="1024" height="469"/>
		</defs>
		<clipPath id="SVGID_180_">
			<use xlink:href="#SVGID_179_"  overflow="visible"/>
		</clipPath>
		<rect x="13.004" y="4.246" clip-path="url(#SVGID_180_)" fill="#ADADAD" width="14.08" height="17.795"/>
	</g>
</g>
<g>
	<defs>
		<path id="SVGID_181_" d="M22.16,27.283c0-0.688,0-1.378,0-2.067c0-0.268,0.188-0.465,0.513-0.541
			c0.293-0.069,0.547,0.028,0.638,0.299c0.076,0.226,0.117,0.473,0.119,0.711c0.008,1.143-0.004,2.285-0.01,3.429
			c0,0.04-0.002,0.081-0.006,0.121c-0.078,0.646-0.574,0.86-1.09,0.458c-0.085-0.066-0.154-0.209-0.156-0.317
			C22.153,28.678,22.16,27.98,22.16,27.283"/>
	</defs>
	<use xlink:href="#SVGID_181_"  overflow="visible" fill-rule="evenodd" clip-rule="evenodd" fill="#E62117"/>
	<clipPath id="SVGID_182_">
		<use xlink:href="#SVGID_181_"  overflow="visible"/>
	</clipPath>
	<g clip-path="url(#SVGID_182_)">
		<defs>
			<rect id="SVGID_183_" x="-462" y="-346.625" width="1024" height="469"/>
		</defs>
		<use xlink:href="#SVGID_183_"  overflow="visible" fill="#E62117"/>
		<clipPath id="SVGID_184_">
			<use xlink:href="#SVGID_183_"  overflow="visible"/>
		</clipPath>
		<rect x="17.158" y="19.653" clip-path="url(#SVGID_184_)" fill="#E62117" width="11.273" height="15.243"/>
	</g>
</g>
<g>
	<defs>
		<path id="SVGID_185_" d="M28.604,26.368h-1.41c0.027-0.406,0.028-0.802,0.088-1.189c0.053-0.341,0.295-0.519,0.604-0.521
			c0.328-0.002,0.574,0.171,0.63,0.522C28.576,25.561,28.575,25.95,28.604,26.368"/>
	</defs>
	<use xlink:href="#SVGID_185_"  overflow="visible" fill-rule="evenodd" clip-rule="evenodd" fill="#E62117"/>
	<clipPath id="SVGID_186_">
		<use xlink:href="#SVGID_185_"  overflow="visible"/>
	</clipPath>
	<g clip-path="url(#SVGID_186_)">
		<defs>
			<rect id="SVGID_187_" x="-462" y="-346.625" width="1024" height="469"/>
		</defs>
		<use xlink:href="#SVGID_187_"  overflow="visible" fill="#E62117"/>
		<clipPath id="SVGID_188_">
			<use xlink:href="#SVGID_187_"  overflow="visible"/>
		</clipPath>
		<rect x="22.193" y="19.657" clip-path="url(#SVGID_188_)" fill="#E62117" width="11.41" height="11.711"/>
	</g>
</g>
</svg>
